<svg width="9" height="14" viewBox="0 0 9 14" fill="none" xmlns="http://www.w3.org/2000/svg">
<path fill-rule="evenodd" clip-rule="evenodd" d="M4.64585 0.295166C4.76835 0.295166 4.88583 0.343829 4.97245 0.43045C5.05907 0.51707 5.10773 0.634553 5.10773 0.757053V11.6511L8.01392 8.744C8.10065 8.65727 8.21829 8.60854 8.34094 8.60854C8.46359 8.60854 8.58123 8.65727 8.66796 8.744C8.75469 8.83073 8.80341 8.94836 8.80341 9.07101C8.80341 9.19367 8.75469 9.3113 8.66796 9.39803L4.97286 13.0931C4.92996 13.1361 4.87899 13.1703 4.82287 13.1936C4.76676 13.2168 4.7066 13.2288 4.64585 13.2288C4.58509 13.2288 4.52493 13.2168 4.46882 13.1936C4.41271 13.1703 4.36174 13.1361 4.31883 13.0931L0.623736 9.39803C0.537006 9.3113 0.488281 9.19367 0.488281 9.07101C0.488281 8.94836 0.537006 8.83073 0.623736 8.744C0.710466 8.65727 0.828097 8.60854 0.950751 8.60854C1.07341 8.60854 1.19104 8.65727 1.27777 8.744L4.18396 11.6511V0.757053C4.18396 0.634553 4.23262 0.51707 4.31924 0.43045C4.40586 0.343829 4.52335 0.295166 4.64585 0.295166Z" fill="#ACADB4"/>
</svg>
