<svg width="25" height="16" viewBox="0 0 25 16" fill="none" xmlns="http://www.w3.org/2000/svg">
<path fill-rule="evenodd" clip-rule="evenodd" d="M24.313 7.59482C24.313 7.37104 24.2241 7.15643 24.0659 6.9982C23.9077 6.83996 23.6931 6.75107 23.4693 6.75107H3.56859L8.87916 1.44219C8.95761 1.36374 9.01983 1.27061 9.06229 1.16811C9.10475 1.06562 9.1266 0.955759 9.1266 0.844816C9.1266 0.733873 9.10475 0.624017 9.06229 0.521519C9.01983 0.419021 8.95761 0.325889 8.87916 0.247441C8.80071 0.168992 8.70758 0.106764 8.60508 0.0643078C8.50258 0.0218519 8.39273 0 8.28178 0C8.17084 0 8.06098 0.0218519 7.95849 0.0643078C7.85599 0.106764 7.76286 0.168992 7.68441 0.247441L0.934407 6.99744C0.855831 7.07582 0.79349 7.16893 0.750954 7.27143C0.708418 7.37394 0.686523 7.48383 0.686523 7.59482C0.686523 7.7058 0.708418 7.81569 0.750954 7.9182C0.79349 8.0207 0.855831 8.11381 0.934407 8.19219L7.68441 14.9422C7.76286 15.0206 7.85599 15.0829 7.95849 15.1253C8.06098 15.1678 8.17084 15.1896 8.28178 15.1896C8.39273 15.1896 8.50258 15.1678 8.60508 15.1253C8.70758 15.0829 8.80071 15.0206 8.87916 14.9422C8.95761 14.8637 9.01983 14.7706 9.06229 14.6681C9.10475 14.5656 9.1266 14.4558 9.1266 14.3448C9.1266 14.2339 9.10475 14.124 9.06229 14.0215C9.01983 13.919 8.95761 13.8259 8.87916 13.7474L3.56859 8.43857H23.4693C23.6931 8.43857 23.9077 8.34967 24.0659 8.19144C24.2241 8.0332 24.313 7.81859 24.313 7.59482Z" fill="white"/>
</svg>
