<svg width="12" height="12" viewBox="0 0 12 12" fill="none" xmlns="http://www.w3.org/2000/svg">
<path fill-rule="evenodd" clip-rule="evenodd" d="M5.99999 11.25C6.09944 11.25 6.19482 11.2105 6.26515 11.1402C6.33548 11.0698 6.37499 10.9745 6.37499 10.875V2.03025L8.73449 4.3905C8.8049 4.46092 8.9004 4.50047 8.99999 4.50047C9.09957 4.50047 9.19507 4.46092 9.26549 4.3905C9.3359 4.32009 9.37546 4.22458 9.37546 4.125C9.37546 4.02542 9.3359 3.92992 9.26549 3.8595L6.26549 0.859501C6.23065 0.824578 6.18927 0.796871 6.14371 0.777966C6.09815 0.759062 6.04931 0.749331 5.99999 0.749331C5.95066 0.749331 5.90182 0.759062 5.85626 0.777966C5.8107 0.796871 5.76932 0.824578 5.73449 0.859501L2.73449 3.8595C2.66407 3.92992 2.62451 4.02542 2.62451 4.125C2.62451 4.22458 2.66407 4.32009 2.73449 4.3905C2.8049 4.46092 2.9004 4.50047 2.99999 4.50047C3.09957 4.50047 3.19507 4.46092 3.26549 4.3905L5.62499 2.03025V10.875C5.62499 10.9745 5.66449 11.0698 5.73482 11.1402C5.80515 11.2105 5.90053 11.25 5.99999 11.25Z" fill="#3BDBAB"/>
</svg>
