<svg width="24" height="25" viewBox="0 0 24 25" fill="none" xmlns="http://www.w3.org/2000/svg">
  <path d="M2.34189 17.1067C2.13772 17.1748 2 17.3659 2 17.5811V18.4998C2 19.6044 2.89543 20.4998 4 20.4998H20C21.1046 20.4998 22 19.6044 22 18.4998V13.5811C22 13.2398 21.6657 12.9988 21.3419 13.1067L14.8686 15.2645C14.3273 15.4449 13.7458 15.4673 13.1923 15.3289L10.3223 14.6114C10.1378 14.5653 9.94396 14.5727 9.76354 14.6328L2.34189 17.1067Z" fill="#B5BCF1" />
  <path d="M19.0774 4.73273C20.4088 4.04048 22 5.00659 22 6.50721V10.4188C22 10.634 21.8623 10.825 21.6581 10.8931L14.2361 13.3671C14.0557 13.4272 13.8619 13.4347 13.6773 13.3886L10.8074 12.6711C10.2539 12.5327 9.67235 12.555 9.13108 12.7354L2.65811 14.8931C2.33435 15.001 2 14.76 2 14.4188V12.0801C2 11.3624 2.38457 10.6997 3.00772 10.3436L9.15499 6.83086C9.60275 6.575 10.132 6.50198 10.6323 6.62706L13.5073 7.34579C13.7441 7.40501 13.9945 7.37552 14.2111 7.26289L19.0774 4.73273Z" fill="white" />
</svg>
  