<svg width="39" height="39" viewBox="0 0 39 39" fill="none" xmlns="http://www.w3.org/2000/svg">
  <path fill-rule="evenodd" clip-rule="evenodd" d="M9.75 17.8749C12.4424 17.8749 14.625 15.6923 14.625 12.9999C14.625 10.3076 12.4424 8.12494 9.75 8.12494C7.05761 8.12494 4.875 10.3076 4.875 12.9999C4.875 15.6923 7.05761 17.8749 9.75 17.8749ZM14.625 34.1249C18.2149 34.1249 21.125 31.2148 21.125 27.6249C21.125 24.0351 18.2149 21.1249 14.625 21.1249C11.0351 21.1249 8.125 24.0351 8.125 27.6249C8.125 31.2148 11.0351 34.1249 14.625 34.1249Z" fill="white" />
  <path d="M34.1249 13C34.1249 17.4873 30.4873 21.125 25.9999 21.125C21.5126 21.125 17.8749 17.4873 17.8749 13C17.8749 8.51269 21.5126 4.875 25.9999 4.875C30.4873 4.875 34.1249 8.51269 34.1249 13Z" fill="#B5BCF1" />
</svg>
  