<svg width="39" height="39" viewBox="0 0 39 39" fill="none" xmlns="http://www.w3.org/2000/svg">
<path fill-rule="evenodd" clip-rule="evenodd" d="M9.75 17.8749C12.4424 17.8749 14.625 15.6923 14.625 12.9999C14.625 10.3076 12.4424 8.12494 9.75 8.12494C7.05761 8.12494 4.875 10.3076 4.875 12.9999C4.875 15.6923 7.05761 17.8749 9.75 17.8749ZM14.625 34.1249C18.2149 34.1249 21.125 31.2148 21.125 27.6249C21.125 24.0351 18.2149 21.1249 14.625 21.1249C11.0351 21.1249 8.125 24.0351 8.125 27.6249C8.125 31.2148 11.0351 34.1249 14.625 34.1249Z" fill="#9FA7DC"/>
<path d="M34.125 13C34.125 17.4873 30.4873 21.125 26 21.125C21.5127 21.125 17.875 17.4873 17.875 13C17.875 8.51269 21.5127 4.875 26 4.875C30.4873 4.875 34.125 8.51269 34.125 13Z" fill="#7687FF"/>
</svg>
