<svg width="39" height="39" viewBox="0 0 39 39" fill="none" xmlns="http://www.w3.org/2000/svg">
<path fill-rule="evenodd" clip-rule="evenodd" d="M17.6375 6.22563C18.311 7.88941 17.5082 9.78414 15.8444 10.4576C12.2653 11.9064 9.75 15.4134 9.75 19.5001C9.75 19.9157 9.77581 20.3237 9.8256 20.7229C10.0477 22.5041 8.78385 24.128 7.00272 24.3501C5.22158 24.5722 3.59765 23.3083 3.37555 21.5272C3.29258 20.8618 3.25 20.1852 3.25 19.5001C3.25 12.6753 7.45626 6.84074 13.4056 4.43253C15.0693 3.75904 16.9641 4.56184 17.6375 6.22563ZM8.83919 27.6161C9.96187 26.2156 12.0073 25.9904 13.4078 27.113C15.0776 28.4516 17.1911 29.2501 19.5 29.2501C21.8089 29.2501 23.9224 28.4516 25.5922 27.113C26.9927 25.9904 29.0381 26.2156 30.1608 27.6161C31.2835 29.0165 31.0583 31.062 29.6578 32.1846C26.8764 34.4143 23.3397 35.7501 19.5 35.7501C15.6603 35.7501 12.1236 34.4143 9.34222 32.1846C7.94173 31.062 7.71652 29.0165 8.83919 27.6161Z" fill="white"/>
<path fill-rule="evenodd" clip-rule="evenodd" d="M21.3625 6.22563C22.036 4.56184 23.9307 3.75904 25.5945 4.43253C31.5438 6.84074 35.7501 12.6753 35.7501 19.5001C35.7501 20.1852 35.7075 20.8618 35.6245 21.5272C35.4024 23.3083 33.7785 24.5722 31.9974 24.3501C30.2162 24.128 28.9524 22.5041 29.1745 20.7229C29.2243 20.3237 29.2501 19.9157 29.2501 19.5001C29.2501 15.4134 26.7348 11.9064 23.1556 10.4576C21.4918 9.78414 20.689 7.88941 21.3625 6.22563Z" fill="#B5BCF1"/>
</svg>
