<svg width="1118" height="287" viewBox="0 0 1118 287" fill="none" xmlns="http://www.w3.org/2000/svg">
<g clip-path="url(#clip0)">
<path d="M196.671 111.742C181.507 104.589 162.627 103.193 141.964 106.694C137.367 107.467 132.813 108.305 128.389 109.121C117.262 111.183 104.74 114.792 93.4203 112.493C91.165 112.042 88.8882 111.269 87.2343 109.68C85.1723 107.725 84.356 104.632 84.893 101.861C85.967 96.4053 91.4227 93.6345 96.0623 91.6369C102.656 88.8017 109.788 87.2337 116.833 86.0523C131.653 83.5392 146.904 82.723 161.918 83.3889C167.202 83.6251 171.927 80.081 173.195 74.9474L185.287 25.7383C187.006 18.779 181.765 12.0345 174.569 11.9915C126.649 11.6908 77.7619 14.7409 45.1992 39.2059L58.5379 56.9692C82.9384 38.6474 121.064 34.6737 160.328 34.2226L153.756 60.9859C132.491 60.857 87.0839 63.0909 69.7286 83.4533C63.4137 90.8637 61.1584 99.9709 63.1989 109.787C67.1511 128.775 82.7236 132.705 89.3822 134.381C99.7352 137.001 114.169 134.338 132.405 130.944C136.723 130.149 141.147 129.204 145.637 128.56C163.572 126.025 174.741 126.648 184.342 130.665C186.404 123.426 190.808 116.338 196.671 111.742Z" fill="url(#paint0_linear)"/>
<path d="M162.275 105.371C168.89 109.605 170.967 118.657 166.814 125.147C166.533 125.586 166.229 125.985 165.897 126.39C171.118 126.975 176.717 127.176 184.954 130.048C190.436 131.965 196.427 136.212 201.241 138.984L211.675 122.1C205.603 118.569 198.747 112.54 191.543 110.02C181.902 106.654 172.238 104.904 161.765 105.069C161.937 105.178 162.12 105.272 162.275 105.371Z" fill="url(#paint1_linear)"/>
<path d="M21.3352 111.851C20.8197 111.851 20.2827 111.808 19.7672 111.744C13.6886 110.884 9.47864 105.257 10.3378 99.1997C17.1682 50.8282 55.4874 32.399 57.1198 31.6258C62.683 29.0268 69.2771 31.4324 71.8761 36.9741C74.4751 42.5157 72.0909 49.0885 66.5707 51.7089C65.2819 52.3318 37.4232 66.2289 32.3112 102.293C31.5164 107.834 26.7695 111.851 21.3352 111.851Z" fill="url(#paint2_linear)"/>
<path d="M21.3352 111.851C20.8197 111.851 20.2827 111.808 19.7672 111.744C13.6886 110.884 9.47864 105.257 10.3378 99.1997C17.1682 50.8282 55.4874 32.399 57.1198 31.6258C62.683 29.0268 69.2771 31.4324 71.8761 36.9741C74.4751 42.5157 72.0909 49.0885 66.5707 51.7089C65.2819 52.3318 37.4232 66.2289 32.3112 102.293C31.5164 107.834 26.7695 111.851 21.3352 111.851Z" fill="url(#paint3_linear)"/>
<path d="M17.7285 257.336L35.9 203.638C39.189 195.052 43.0311 195.605 48.2721 197.001C54.0285 198.526 58.6305 200.633 55.3817 210.253L37.2102 263.952C33.7884 273.719 30.0791 271.985 24.8381 270.589C19.0817 269.042 14.8869 265.618 17.7285 257.336Z" fill="url(#paint4_linear)"/>
<path d="M94.8397 280.56C83.3912 280.56 71.642 279.507 59.721 277.209C53.1698 275.963 49.2176 269.261 51.2366 262.925L67.4321 212.406C69.1289 207.143 74.4343 203.921 79.8901 204.845C80.1264 204.888 104.398 208.883 125.598 203.749C142.91 199.561 152.104 195.888 154.874 188.757C156.55 184.483 161.512 181.884 166.065 182.442C174.378 183.43 178.158 192.602 174.85 199.303C165.979 217.281 147.206 221.362 130.818 225.336C114.021 229.396 96.3647 228.837 85.7969 227.914L76.3675 257.319C140.333 264.686 192.506 233.026 206.79 205.167C216.456 186.308 213.298 169.382 208.959 158.492L208.809 158.084C208.745 157.891 200.582 135.896 184.065 130.612C179.21 129.066 175.688 124.62 175.946 119.508C176.354 111.904 183.571 107.221 190.315 109.305C216.821 117.467 228.441 147.194 229.622 150.416C238.107 171.81 237.011 194.857 226.529 215.305C208.745 249.973 156.356 280.56 94.8397 280.56Z" fill="url(#paint5_linear)"/>
<path d="M161.122 214.088C152.853 214.088 145.872 207.107 145.872 198.837C145.872 198.279 145.915 197.742 145.979 197.184C141.018 199.675 134.402 201.63 125.466 203.799C119.517 205.238 113.331 205.969 107.488 206.248V228.479C114.877 228.157 122.867 227.276 130.686 225.386C141.146 222.851 152.552 220.274 161.745 214.066C161.53 214.066 161.316 214.088 161.122 214.088Z" fill="url(#paint6_linear)"/>
<path d="M162.582 160.703C157.986 158.018 148.728 155.161 141.511 155.87V155.827C131.674 155.999 121.278 157.782 112.106 159.371C106.93 160.252 102.011 161.089 98.6815 161.369C90.326 162.013 61.9089 163.044 47.1096 148.996C27.1768 130.052 29.3033 102.494 37.9165 82.9905C40.3866 77.3844 37.852 70.8332 32.2459 68.3416C26.6398 65.85 19.9812 68.406 17.4896 74.0121C5.80489 100.41 3.50658 138.214 31.7948 165.085C52.6513 184.91 86.696 184.566 100.378 183.492C104.739 183.149 109.872 182.268 115.822 181.258C124.22 179.819 133.714 177.951 141.876 177.8L143.23 177.822C145.012 177.8 146.795 177.972 148.513 178.445C150.296 178.96 151.95 179.948 153.046 181.216C154.227 182.569 154.592 184.609 154.571 186.736C154.442 189.055 153.153 193.824 145.7 197.261C140.974 199.451 138.719 204.929 139.965 209.998C141.683 216.914 149.502 220.523 155.924 217.473C175.019 208.408 176.802 193.265 176.802 193.265C179.787 173.741 169.091 164.505 162.582 160.703Z" fill="url(#paint7_linear)"/>
<path d="M345.586 213.716C335.809 213.716 326.342 212.231 317.184 209.261C308.15 206.167 301.034 202.207 295.836 197.38V197.38C299.261 190.159 308.873 188.189 316.12 191.559C317.874 192.374 319.714 193.139 321.639 193.853C329.435 196.576 337.418 197.937 345.586 197.937C356.352 197.937 364.396 196.143 369.718 192.554C375.039 188.841 377.7 183.953 377.7 177.889C377.7 173.434 376.215 169.845 373.245 167.122C370.398 164.276 366.81 162.11 362.478 160.625C358.27 159.14 352.268 157.469 344.472 155.613C334.695 153.262 326.775 150.91 320.711 148.559C314.77 146.208 309.635 142.619 305.303 137.792C301.096 132.842 298.992 126.221 298.992 117.93C298.992 110.999 300.786 104.75 304.375 99.1807C308.088 93.6117 313.657 89.1565 321.082 85.8151C328.507 82.4737 337.727 80.803 348.741 80.803C356.414 80.803 363.963 81.7931 371.389 83.7732C378.814 85.7533 385.187 88.5996 390.509 92.3123L388.615 96.9042C386.408 102.254 379.901 104.259 374.564 102.021C372.086 100.982 369.543 100.097 366.933 99.3663C360.746 97.51 354.682 96.5818 348.741 96.5818C338.222 96.5818 330.302 98.5 324.98 102.336C319.783 106.173 317.184 111.123 317.184 117.187C317.184 121.642 318.669 125.293 321.639 128.139C324.609 130.862 328.26 133.028 332.591 134.637C337.046 136.122 343.049 137.73 350.598 139.463C360.374 141.814 368.233 144.166 374.173 146.517C380.113 148.868 385.187 152.457 389.395 157.284C393.726 162.11 395.892 168.607 395.892 176.775C395.892 183.582 394.036 189.831 390.323 195.524C386.61 201.093 380.98 205.548 373.43 208.89C365.881 212.107 356.6 213.716 345.586 213.716Z" fill="white"/>
<path d="M529.82 112.918C542.196 112.918 551.973 116.506 559.15 123.684C566.452 130.862 570.103 141.505 570.103 155.613V194.41C570.103 204.253 562.124 212.231 552.282 212.231V212.231V157.655C552.282 148.126 550.054 140.948 545.599 136.122C541.268 131.295 535.018 128.882 526.85 128.882C517.816 128.882 510.638 131.728 505.317 137.421C499.995 142.99 497.335 151.034 497.335 161.553V203.321C497.335 208.242 493.345 212.231 488.424 212.231V212.231C483.503 212.231 479.514 208.242 479.514 203.321V157.655C479.514 148.126 477.286 140.948 472.831 136.122C468.5 131.295 462.25 128.882 454.082 128.882C445.048 128.882 437.87 131.728 432.549 137.421C427.227 142.99 424.567 151.034 424.567 161.553V194.41C424.567 204.252 416.588 212.231 406.746 212.231V212.231V113.846H416.213C420.416 113.846 423.824 117.253 423.824 121.457V128.511C427.413 123.437 432.116 119.6 437.932 117.001C443.749 114.279 450.37 112.918 457.795 112.918C465.468 112.918 472.274 114.464 478.214 117.558C484.155 120.652 488.734 125.169 491.951 131.11C495.664 125.417 500.8 120.962 507.359 117.744C514.042 114.526 521.529 112.918 529.82 112.918Z" fill="white"/>
<path d="M682.586 113.846V212.231H681.101C672.489 212.231 665.508 205.25 665.508 196.638V196.638C661.548 202.083 656.536 206.229 650.472 209.075C644.408 211.922 637.725 213.345 630.423 213.345C620.894 213.345 612.355 211.241 604.806 207.033C597.257 202.826 591.317 196.947 586.985 189.398C582.778 181.725 580.674 172.939 580.674 163.038C580.674 153.138 582.778 144.413 586.985 136.864C591.317 129.315 597.257 123.437 604.806 119.229C612.355 115.021 620.894 112.918 630.423 112.918C637.477 112.918 643.975 114.279 649.915 117.001C655.855 119.6 660.805 123.499 664.765 128.696V128.696C664.765 120.495 671.414 113.846 679.616 113.846H682.586ZM631.908 197.752C638.096 197.752 643.727 196.329 648.801 193.482C653.875 190.512 657.835 186.428 660.681 181.23C663.528 175.909 664.951 169.845 664.951 163.038C664.951 156.232 663.528 150.23 660.681 145.032C657.835 139.711 653.875 135.627 648.801 132.78C643.727 129.934 638.096 128.511 631.908 128.511C625.597 128.511 619.904 129.934 614.83 132.78C609.88 135.627 605.92 139.711 602.95 145.032C600.103 150.23 598.68 156.232 598.68 163.038C598.68 169.845 600.103 175.909 602.95 181.23C605.92 186.428 609.88 190.512 614.83 193.482C619.904 196.329 625.597 197.752 631.908 197.752Z" fill="white"/>
<path d="M719.716 130.367C722.81 124.674 727.388 120.343 733.452 117.373C739.516 114.403 746.88 113.846 755.543 113.846V122.669C755.543 125.771 752.805 128.511 749.703 128.511V128.511C740.05 128.511 734.195 132.904 728.626 138.721C723.181 144.413 720.458 152.581 720.458 163.224V194.41C720.458 204.253 712.48 212.231 702.637 212.231V212.231V113.846H703.194C712.319 113.846 719.716 121.243 719.716 130.367V130.367Z" fill="white"/>
<path d="M815.631 206.476C813.032 208.704 809.815 210.437 805.978 211.674C802.142 212.788 798.182 213.345 794.098 213.345C784.198 213.345 776.525 210.684 771.079 205.363C765.634 200.041 762.912 192.43 762.912 182.53V110.133C762.912 100.291 770.89 92.3123 780.732 92.3123V92.3123V113.846H808.949V113.846C808.949 121.945 802.383 128.511 794.284 128.511H780.732V181.787C780.732 187.109 782.032 191.193 784.631 194.039C787.353 196.885 791.19 198.309 796.14 198.309C796.478 198.309 796.814 198.303 797.146 198.291C804.169 198.038 812.829 200.032 815.631 206.476V206.476Z" fill="white"/>
<path d="M854.241 213.345C844.712 213.345 837.348 210.746 832.151 205.548C826.953 200.227 824.354 192.802 824.354 183.272V74.4915V74.4915C834.196 74.4915 842.175 82.4701 842.175 92.3123V181.787C842.175 187.109 843.412 191.193 845.887 194.039C848.486 196.885 852.323 198.309 857.397 198.309V198.309C862.132 198.309 867.284 205.077 867.1 209.809L867.05 211.117C862.966 212.602 858.696 213.345 854.241 213.345Z" fill="white"/>
<path d="M870.329 113.846V113.846C880.171 113.846 888.149 121.824 888.149 131.666V212.231V212.231C878.307 212.231 870.329 204.252 870.329 194.41V113.846ZM879.239 94.9111C875.774 94.9111 872.866 93.7973 870.514 91.5697C868.287 89.3422 867.173 86.6195 867.173 83.4019C867.173 80.1843 868.287 77.4617 870.514 75.2341C872.866 72.8827 875.774 71.707 879.239 71.707C882.704 71.707 885.551 72.8208 887.778 75.0484C890.129 77.1523 891.305 79.813 891.305 83.0306C891.305 86.372 890.129 89.2184 887.778 91.5697C885.551 93.7973 882.704 94.9111 879.239 94.9111Z" fill="white"/>
<path d="M961.042 112.918C973.542 112.918 983.442 116.568 990.744 123.87C998.169 131.048 1001.88 141.629 1001.88 155.613V194.41C1001.88 204.253 993.903 212.231 984.061 212.231V212.231V157.655C984.061 148.126 981.771 140.948 977.192 136.122C972.613 131.295 966.054 128.882 957.515 128.882C947.862 128.882 940.251 131.728 934.682 137.421C929.113 142.99 926.329 151.034 926.329 161.553V194.41C926.329 204.252 918.35 212.231 908.508 212.231V212.231V130.924C908.508 121.492 916.154 113.846 925.586 113.846V113.846V128.696C929.175 123.622 934.002 119.724 940.066 117.001C946.253 114.279 953.246 112.918 961.042 112.918Z" fill="white"/>
<path d="M1059.43 166.38L1039.02 185.314V212.231V212.231C1029.17 212.231 1021.19 204.252 1021.19 194.41V91.5073C1021.19 82.1097 1028.81 74.4915 1038.21 74.4915H1039.02V162.853L1076.76 128.369C1086.99 119.026 1100.34 113.846 1114.2 113.846V113.846L1072.8 154.499L1118.28 212.231V212.231C1104.43 212.231 1091.32 205.96 1082.63 195.174L1059.43 166.38Z" fill="white"/>
</g>
<defs>
<linearGradient id="paint0_linear" x1="120.956" y1="121.507" x2="120.956" y2="11.0303" gradientUnits="userSpaceOnUse">
<stop stop-color="#A966E5"/>
<stop offset="1" stop-color="#7966E8"/>
</linearGradient>
<linearGradient id="paint1_linear" x1="165.763" y1="125.133" x2="201.471" y2="143.121" gradientUnits="userSpaceOnUse">
<stop stop-color="#A966E6"/>
<stop offset="1" stop-color="#3F2575"/>
</linearGradient>
<linearGradient id="paint2_linear" x1="41.5773" y1="30.5781" x2="41.5773" y2="111.851" gradientUnits="userSpaceOnUse">
<stop offset="0.286458" stop-color="#6F6EBD"/>
<stop offset="1" stop-color="#1C1FEA"/>
</linearGradient>
<linearGradient id="paint3_linear" x1="41.5773" y1="30.5781" x2="41.5773" y2="111.851" gradientUnits="userSpaceOnUse">
<stop offset="0.229167" stop-color="#8267E8"/>
<stop offset="1" stop-color="#2F3198"/>
</linearGradient>
<linearGradient id="paint4_linear" x1="44.1486" y1="204.641" x2="21.2023" y2="292.726" gradientUnits="userSpaceOnUse">
<stop stop-color="#E374FF"/>
<stop offset="1" stop-color="#EE4A93"/>
</linearGradient>
<linearGradient id="paint5_linear" x1="157.997" y1="125.602" x2="57.6247" y2="235.793" gradientUnits="userSpaceOnUse">
<stop stop-color="#7A3CFE"/>
<stop offset="1" stop-color="#FCA543"/>
</linearGradient>
<linearGradient id="paint6_linear" x1="167.017" y1="206.935" x2="104.946" y2="202.752" gradientUnits="userSpaceOnUse">
<stop stop-color="#EFB253"/>
<stop offset="1" stop-color="#DB8185"/>
</linearGradient>
<linearGradient id="paint7_linear" x1="14.9506" y1="88.8784" x2="153.822" y2="213.132" gradientUnits="userSpaceOnUse">
<stop stop-color="#E89331"/>
<stop offset="1" stop-color="#EDB355"/>
</linearGradient>
<clipPath id="clip0">
<rect width="1118" height="286.688" fill="white" transform="translate(0 0.15625)"/>
</clipPath>
</defs>
</svg>
