<svg width="1118" height="287" viewBox="0 0 1118 287" fill="none" xmlns="http://www.w3.org/2000/svg">
<g clip-path="url(#clip0)">
<path d="M196.671 111.585C181.507 104.433 162.627 103.037 141.964 106.538C137.367 107.311 132.813 108.149 128.389 108.965C117.262 111.027 104.74 114.635 93.4203 112.337C91.165 111.886 88.8882 111.113 87.2343 109.523C85.1723 107.569 84.356 104.476 84.893 101.705C85.967 96.249 91.4227 93.4783 96.0623 91.4807C102.656 88.6454 109.788 87.0774 116.833 85.896C131.653 83.383 146.904 82.5668 161.918 83.2326C167.202 83.4689 171.927 79.9248 173.195 74.7912L185.287 25.5821C187.006 18.6228 181.765 11.8782 174.569 11.8353C126.649 11.5345 77.7619 14.5846 45.1992 39.0496L58.5379 56.813C82.9384 38.4911 121.064 34.5174 160.328 34.0664L153.756 60.8296C132.491 60.7007 87.0839 62.9346 69.7286 83.2971C63.4137 90.7074 61.1584 99.8146 63.1989 109.631C67.1511 128.618 82.7236 132.549 89.3822 134.225C99.7352 136.845 114.169 134.182 132.405 130.788C136.723 129.993 141.147 129.048 145.637 128.404C163.572 125.869 174.741 126.492 184.342 130.509C186.404 123.27 190.808 116.182 196.671 111.585Z" fill="url(#paint0_linear)"/>
<path d="M162.275 105.214C168.89 109.448 170.967 118.501 166.814 124.991C166.533 125.429 166.229 125.829 165.897 126.234C171.118 126.819 176.717 127.019 184.954 129.892C190.436 131.809 196.427 136.056 201.241 138.828L211.675 121.943C205.603 118.413 198.747 112.384 191.543 109.864C181.902 106.497 172.238 104.748 161.765 104.912C161.937 105.022 162.12 105.115 162.275 105.214Z" fill="url(#paint1_linear)"/>
<path d="M21.3352 111.695C20.8197 111.695 20.2827 111.652 19.7672 111.587C13.6886 110.728 9.47864 105.101 10.3378 99.0434C17.1682 50.672 55.4874 32.2428 57.1198 31.4695C62.683 28.8705 69.2771 31.2762 71.8761 36.8178C74.4751 42.3595 72.0909 48.9322 66.5707 51.5527C65.2819 52.1756 37.4232 66.0727 32.3112 102.136C31.5164 107.678 26.7695 111.695 21.3352 111.695Z" fill="url(#paint2_linear)"/>
<path d="M21.3352 111.695C20.8197 111.695 20.2827 111.652 19.7672 111.587C13.6886 110.728 9.47864 105.101 10.3378 99.0434C17.1682 50.672 55.4874 32.2428 57.1198 31.4695C62.683 28.8705 69.2771 31.2762 71.8761 36.8178C74.4751 42.3595 72.0909 48.9322 66.5707 51.5527C65.2819 52.1756 37.4232 66.0727 32.3112 102.136C31.5164 107.678 26.7695 111.695 21.3352 111.695Z" fill="url(#paint3_linear)"/>
<path d="M17.7285 257.18L35.9 203.482C39.189 194.896 43.0311 195.448 48.2721 196.844C54.0285 198.37 58.6305 200.476 55.3817 210.097L37.2102 263.795C33.7884 273.562 30.0791 271.829 24.8381 270.433C19.0817 268.886 14.8869 265.462 17.7285 257.18Z" fill="url(#paint4_linear)"/>
<path d="M94.8397 280.403C83.3912 280.403 71.642 279.351 59.721 277.052C53.1698 275.807 49.2176 269.105 51.2366 262.769L67.4321 212.249C69.1289 206.987 74.4343 203.765 79.8901 204.689C80.1264 204.732 104.398 208.727 125.598 203.593C142.91 199.405 152.104 195.732 154.874 188.601C156.55 184.326 161.512 181.727 166.065 182.286C174.378 183.274 178.158 192.445 174.85 199.147C165.979 217.125 147.206 221.206 130.818 225.18C114.021 229.239 96.3647 228.681 85.7969 227.757L76.3675 257.163C140.333 264.53 192.506 232.869 206.79 205.011C216.456 186.152 213.298 169.226 208.959 158.336L208.809 157.928C208.745 157.735 200.582 135.74 184.065 130.456C179.21 128.91 175.688 124.463 175.946 119.351C176.354 111.748 183.571 107.065 190.315 109.149C216.821 117.311 228.441 147.038 229.622 150.26C238.107 171.653 237.011 194.701 226.529 215.149C208.745 249.817 156.356 280.403 94.8397 280.403Z" fill="url(#paint5_linear)"/>
<path d="M161.122 213.932C152.853 213.932 145.872 206.951 145.872 198.681C145.872 198.123 145.915 197.586 145.979 197.027C141.018 199.519 134.402 201.474 125.466 203.643C119.517 205.082 113.331 205.812 107.488 206.092V228.323C114.877 228.001 122.867 227.12 130.686 225.23C141.146 222.695 152.552 220.118 161.745 213.91C161.53 213.91 161.316 213.932 161.122 213.932Z" fill="url(#paint6_linear)"/>
<path d="M162.582 160.546C157.986 157.862 148.728 155.005 141.511 155.714V155.671C131.674 155.843 121.278 157.625 112.106 159.215C106.93 160.095 102.011 160.933 98.6815 161.212C90.326 161.857 61.9089 162.888 47.1096 148.84C27.1768 129.895 29.3033 102.338 37.9165 82.8343C40.3866 77.2282 37.852 70.677 32.2459 68.1854C26.6398 65.6938 19.9812 68.2498 17.4896 73.8559C5.80489 100.254 3.50658 138.058 31.7948 164.928C52.6513 184.754 86.696 184.41 100.378 183.336C104.739 182.992 109.872 182.112 115.822 181.102C124.22 179.663 133.714 177.794 141.876 177.644L143.23 177.665C145.012 177.644 146.795 177.816 148.513 178.288C150.296 178.804 151.95 179.792 153.046 181.059C154.227 182.412 154.592 184.453 154.571 186.579C154.442 188.899 153.153 193.668 145.7 197.104C140.974 199.295 138.719 204.772 139.965 209.841C141.683 216.758 149.502 220.366 155.924 217.316C175.019 208.252 176.802 193.109 176.802 193.109C179.787 173.584 169.091 164.348 162.582 160.546Z" fill="url(#paint7_linear)"/>
<path d="M345.586 213.56C335.809 213.56 326.342 212.075 317.184 209.105C308.15 206.011 301.034 202.051 295.836 197.224V197.224C299.261 190.003 308.873 188.033 316.12 191.403C317.874 192.218 319.714 192.983 321.639 193.697C329.435 196.42 337.418 197.781 345.586 197.781C356.352 197.781 364.396 195.987 369.718 192.398C375.039 188.685 377.7 183.797 377.7 177.733C377.7 173.278 376.215 169.689 373.245 166.966C370.398 164.12 366.81 161.954 362.478 160.469C358.27 158.984 352.268 157.313 344.472 155.457C334.695 153.105 326.775 150.754 320.711 148.403C314.77 146.051 309.635 142.463 305.303 137.636C301.096 132.686 298.992 126.065 298.992 117.773C298.992 110.843 300.786 104.593 304.375 99.0244C308.088 93.4555 313.657 89.0003 321.082 85.6589C328.507 82.3175 337.727 80.6468 348.741 80.6468C356.414 80.6468 363.963 81.6368 371.389 83.6169C378.814 85.597 385.187 88.4434 390.509 92.156L388.615 96.748C386.408 102.098 379.901 104.102 374.564 101.864C372.086 100.826 369.543 99.9408 366.933 99.2101C360.746 97.3538 354.682 96.4256 348.741 96.4256C338.222 96.4256 330.302 98.3438 324.98 102.18C319.783 106.017 317.184 110.967 317.184 117.031C317.184 121.486 318.669 125.137 321.639 127.983C324.609 130.706 328.26 132.872 332.591 134.48C337.046 135.965 343.049 137.574 350.598 139.307C360.374 141.658 368.233 144.009 374.173 146.361C380.113 148.712 385.187 152.301 389.395 157.128C393.726 161.954 395.892 168.451 395.892 176.619C395.892 183.426 394.036 189.675 390.323 195.368C386.61 200.937 380.98 205.392 373.43 208.733C365.881 211.951 356.6 213.56 345.586 213.56Z" fill="#232540"/>
<path d="M529.82 112.761C542.196 112.761 551.973 116.35 559.15 123.528C566.452 130.706 570.103 141.349 570.103 155.457V194.254C570.103 204.096 562.124 212.075 552.282 212.075V212.075V157.499C552.282 147.97 550.054 140.792 545.599 135.965C541.268 131.139 535.018 128.726 526.85 128.726C517.816 128.726 510.638 131.572 505.317 137.265C499.995 142.834 497.335 150.878 497.335 161.397V203.164C497.335 208.086 493.345 212.075 488.424 212.075V212.075C483.503 212.075 479.514 208.086 479.514 203.164V157.499C479.514 147.97 477.286 140.792 472.831 135.965C468.5 131.139 462.25 128.726 454.082 128.726C445.048 128.726 437.87 131.572 432.549 137.265C427.227 142.834 424.567 150.878 424.567 161.397V194.254C424.567 204.096 416.588 212.075 406.746 212.075V212.075V113.689H416.213C420.416 113.689 423.824 117.097 423.824 121.301V128.354C427.413 123.28 432.116 119.444 437.932 116.845C443.749 114.123 450.37 112.761 457.795 112.761C465.468 112.761 472.274 114.308 478.214 117.402C484.155 120.496 488.734 125.013 491.951 130.953C495.664 125.261 500.8 120.805 507.359 117.588C514.042 114.37 521.529 112.761 529.82 112.761Z" fill="#232540"/>
<path d="M682.586 113.689V212.075H681.101C672.489 212.075 665.508 205.094 665.508 196.482V196.482C661.548 201.927 656.536 206.073 650.472 208.919C644.408 211.765 637.725 213.189 630.423 213.189C620.894 213.189 612.355 211.085 604.806 206.877C597.257 202.669 591.317 196.791 586.985 189.242C582.778 181.569 580.674 172.783 580.674 162.882C580.674 152.982 582.778 144.257 586.985 136.708C591.317 129.159 597.257 123.28 604.806 119.073C612.355 114.865 620.894 112.761 630.423 112.761C637.477 112.761 643.975 114.123 649.915 116.845C655.855 119.444 660.805 123.342 664.765 128.54V128.54C664.765 120.338 671.414 113.689 679.616 113.689H682.586ZM631.908 197.595C638.096 197.595 643.727 196.172 648.801 193.326C653.875 190.356 657.835 186.272 660.681 181.074C663.528 175.753 664.951 169.689 664.951 162.882C664.951 156.076 663.528 150.073 660.681 144.876C657.835 139.554 653.875 135.47 648.801 132.624C643.727 129.778 638.096 128.354 631.908 128.354C625.597 128.354 619.904 129.778 614.83 132.624C609.88 135.47 605.92 139.554 602.95 144.876C600.103 150.073 598.68 156.076 598.68 162.882C598.68 169.689 600.103 175.753 602.95 181.074C605.92 186.272 609.88 190.356 614.83 193.326C619.904 196.172 625.597 197.595 631.908 197.595Z" fill="#232540"/>
<path d="M719.716 130.211C722.81 124.518 727.388 120.187 733.452 117.216C739.516 114.246 746.88 113.689 755.543 113.689V122.513C755.543 125.615 752.805 128.354 749.703 128.354V128.354C740.05 128.354 734.195 132.748 728.626 138.564C723.181 144.257 720.458 152.425 720.458 163.068V194.254C720.458 204.096 712.48 212.075 702.637 212.075V212.075V113.689H703.194C712.319 113.689 719.716 121.086 719.716 130.211V130.211Z" fill="#232540"/>
<path d="M815.631 206.32C813.032 208.548 809.815 210.28 805.978 211.518C802.142 212.632 798.182 213.189 794.098 213.189C784.198 213.189 776.525 210.528 771.079 205.206C765.634 199.885 762.912 192.274 762.912 182.374V109.977C762.912 100.135 770.89 92.156 780.732 92.156V92.156V113.689H808.949V113.689C808.949 121.789 802.383 128.354 794.284 128.354H780.732V181.631C780.732 186.953 782.032 191.036 784.631 193.883C787.353 196.729 791.19 198.152 796.14 198.152C796.478 198.152 796.814 198.146 797.146 198.134C804.169 197.882 812.829 199.875 815.631 206.32V206.32Z" fill="#232540"/>
<path d="M854.241 213.189C844.712 213.189 837.348 210.59 832.151 205.392C826.953 200.071 824.354 192.645 824.354 183.116V74.3353V74.3353C834.196 74.3353 842.175 82.3139 842.175 92.156V181.631C842.175 186.953 843.412 191.036 845.887 193.883C848.486 196.729 852.323 198.152 857.397 198.152V198.152C862.132 198.152 867.284 204.921 867.1 209.653L867.05 210.961C862.966 212.446 858.696 213.189 854.241 213.189Z" fill="#232540"/>
<path d="M870.329 113.689V113.689C880.171 113.689 888.149 121.668 888.149 131.51V212.075V212.075C878.307 212.075 870.329 204.096 870.329 194.254V113.689ZM879.239 94.7549C875.774 94.7549 872.866 93.6411 870.514 91.4135C868.287 89.1859 867.173 86.4633 867.173 83.2457C867.173 80.028 868.287 77.3054 870.514 75.0778C872.866 72.7265 875.774 71.5508 879.239 71.5508C882.704 71.5508 885.551 72.6646 887.778 74.8922C890.129 76.996 891.305 79.6567 891.305 82.8744C891.305 86.2158 890.129 89.0621 887.778 91.4135C885.551 93.6411 882.704 94.7549 879.239 94.7549Z" fill="#232540"/>
<path d="M961.042 112.761C973.542 112.761 983.442 116.412 990.744 123.714C998.169 130.891 1001.88 141.472 1001.88 155.457V194.254C1001.88 204.096 993.903 212.075 984.061 212.075V212.075V157.499C984.061 147.97 981.771 140.792 977.192 135.965C972.613 131.139 966.054 128.726 957.515 128.726C947.862 128.726 940.251 131.572 934.682 137.265C929.113 142.834 926.329 150.878 926.329 161.397V194.254C926.329 204.096 918.35 212.075 908.508 212.075V212.075V130.768C908.508 121.336 916.154 113.689 925.586 113.689V113.689V128.54C929.175 123.466 934.002 119.568 940.066 116.845C946.253 114.123 953.246 112.761 961.042 112.761Z" fill="#232540"/>
<path d="M1059.43 166.224L1039.02 185.158V212.075V212.075C1029.17 212.075 1021.19 204.096 1021.19 194.254V91.3511C1021.19 81.9535 1028.81 74.3353 1038.21 74.3353H1039.02V162.697L1076.76 128.213C1086.99 118.87 1100.34 113.689 1114.2 113.689V113.689L1072.8 154.343L1118.28 212.075V212.075C1104.43 212.075 1091.32 205.803 1082.63 195.017L1059.43 166.224Z" fill="#232540"/>
</g>
<defs>
<linearGradient id="paint0_linear" x1="120.956" y1="121.351" x2="120.956" y2="10.8741" gradientUnits="userSpaceOnUse">
<stop stop-color="#A966E5"/>
<stop offset="1" stop-color="#7966E8"/>
</linearGradient>
<linearGradient id="paint1_linear" x1="165.763" y1="124.976" x2="201.471" y2="142.964" gradientUnits="userSpaceOnUse">
<stop stop-color="#A966E6"/>
<stop offset="1" stop-color="#3F2575"/>
</linearGradient>
<linearGradient id="paint2_linear" x1="41.5773" y1="30.4219" x2="41.5773" y2="111.695" gradientUnits="userSpaceOnUse">
<stop offset="0.286458" stop-color="#6F6EBD"/>
<stop offset="1" stop-color="#1C1FEA"/>
</linearGradient>
<linearGradient id="paint3_linear" x1="41.5773" y1="30.4219" x2="41.5773" y2="111.695" gradientUnits="userSpaceOnUse">
<stop offset="0.229167" stop-color="#8267E8"/>
<stop offset="1" stop-color="#2F3198"/>
</linearGradient>
<linearGradient id="paint4_linear" x1="44.1486" y1="204.485" x2="21.2023" y2="292.57" gradientUnits="userSpaceOnUse">
<stop stop-color="#E374FF"/>
<stop offset="1" stop-color="#EE4A93"/>
</linearGradient>
<linearGradient id="paint5_linear" x1="157.997" y1="125.446" x2="57.6247" y2="235.637" gradientUnits="userSpaceOnUse">
<stop stop-color="#7A3CFE"/>
<stop offset="1" stop-color="#FCA543"/>
</linearGradient>
<linearGradient id="paint6_linear" x1="167.017" y1="206.779" x2="104.946" y2="202.596" gradientUnits="userSpaceOnUse">
<stop stop-color="#EFB253"/>
<stop offset="1" stop-color="#DB8185"/>
</linearGradient>
<linearGradient id="paint7_linear" x1="14.9506" y1="88.7222" x2="153.822" y2="212.975" gradientUnits="userSpaceOnUse">
<stop stop-color="#E89331"/>
<stop offset="1" stop-color="#EDB355"/>
</linearGradient>
<clipPath id="clip0">
<rect width="1118" height="286.688" fill="white"/>
</clipPath>
</defs>
</svg>
