<svg width="39" height="39" viewBox="0 0 39 39" fill="none" xmlns="http://www.w3.org/2000/svg">
<path fill-rule="evenodd" clip-rule="evenodd" d="M30.225 5.2C30.9429 5.73848 31.0885 6.75703 30.55 7.475L11.05 33.475C10.5115 34.193 9.49294 34.3385 8.77497 33.8C8.057 33.2615 7.9115 32.243 8.44997 31.525L27.95 5.525C28.4885 4.80703 29.507 4.66153 30.225 5.2Z" fill="#9FA7DC"/>
<path fill-rule="evenodd" clip-rule="evenodd" d="M9.75 14.625C12.4424 14.625 14.625 12.4424 14.625 9.75C14.625 7.05761 12.4424 4.875 9.75 4.875C7.05761 4.875 4.875 7.05761 4.875 9.75C4.875 12.4424 7.05761 14.625 9.75 14.625ZM29.25 34.125C31.9424 34.125 34.125 31.9424 34.125 29.25C34.125 26.5576 31.9424 24.375 29.25 24.375C26.5576 24.375 24.375 26.5576 24.375 29.25C24.375 31.9424 26.5576 34.125 29.25 34.125Z" fill="#7687FF"/>
</svg>
