<svg width="13" height="14" viewBox="0 0 13 14" fill="none" xmlns="http://www.w3.org/2000/svg">
<g clip-path="url(#clip0)">
<path d="M6.4466 12.9223C4.95057 12.9223 3.51582 12.328 2.45797 11.2702C1.40012 10.2123 0.805825 8.77759 0.805825 7.28156C0.805825 5.78554 1.40012 4.35078 2.45797 3.29293C3.51582 2.23508 4.95057 1.64079 6.4466 1.64079C7.94263 1.64079 9.37738 2.23508 10.4352 3.29293C11.4931 4.35078 12.0874 5.78554 12.0874 7.28156C12.0874 8.77759 11.4931 10.2123 10.4352 11.2702C9.37738 12.328 7.94263 12.9223 6.4466 12.9223ZM6.4466 13.7282C8.15635 13.7282 9.79607 13.049 11.005 11.84C12.214 10.631 12.8932 8.99131 12.8932 7.28156C12.8932 5.57182 12.214 3.9321 11.005 2.72313C9.79607 1.51415 8.15635 0.834961 6.4466 0.834961C4.73686 0.834961 3.09714 1.51415 1.88817 2.72313C0.679194 3.9321 0 5.57182 0 7.28156C0 8.99131 0.679194 10.631 1.88817 11.84C3.09714 13.049 4.73686 13.7282 6.4466 13.7282Z" fill="white"/>
<path d="M9.26635 6.87866H6.84887H3.62557C3.51871 6.87866 3.41623 6.92111 3.34067 6.99667C3.26511 7.07223 3.22266 7.17472 3.22266 7.28157C3.22266 7.38843 3.26511 7.49092 3.34067 7.56648C3.41623 7.64204 3.51871 7.68449 3.62557 7.68449H6.84887H9.26635C9.3732 7.68449 9.47569 7.64204 9.55125 7.56648C9.62681 7.49092 9.66926 7.38843 9.66926 7.28157C9.66926 7.17472 9.62681 7.07223 9.55125 6.99667C9.47569 6.92111 9.3732 6.87866 9.26635 6.87866Z" fill="white"/>
</g>
<defs>
<clipPath id="clip0">
<rect width="12.8932" height="12.8932" fill="white" transform="translate(0 0.834961)"/>
</clipPath>
</defs>
</svg>
