<svg width="40" height="40" viewBox="0 0 40 40" fill="none" xmlns="http://www.w3.org/2000/svg">
  <circle cx="19.834" cy="19.834" r="19.834" fill="#1E2036" />
  <path d="M27.8351 16.1474C26.2066 15.3792 24.179 15.2293 21.96 15.6053C21.4663 15.6883 20.9773 15.7783 20.5021 15.8659C19.3073 16.0874 17.9625 16.4749 16.7469 16.2281C16.5047 16.1797 16.2601 16.0966 16.0825 15.9259C15.8611 15.716 15.7734 15.3838 15.8311 15.0863C15.9464 14.5004 16.5323 14.2028 17.0306 13.9883C17.7387 13.6838 18.5045 13.5154 19.2611 13.3886C20.8527 13.1187 22.4905 13.031 24.1029 13.1025C24.6703 13.1279 25.1778 12.7473 25.3139 12.196L26.6125 6.91141C26.7971 6.16405 26.2342 5.43974 25.4615 5.43513C20.3153 5.40284 15.0653 5.73039 11.5684 8.3577L13.0008 10.2653C15.6212 8.29772 19.7156 7.87099 23.9322 7.82255L23.2263 10.6967C20.9427 10.6828 16.0664 10.9227 14.2026 13.1095C13.5244 13.9053 13.2822 14.8833 13.5014 15.9374C13.9258 17.9766 15.5981 18.3987 16.3132 18.5786C17.425 18.86 18.9751 18.574 20.9335 18.2095C21.3971 18.1242 21.8723 18.0227 22.3544 17.9535C24.2805 17.6813 25.48 17.7482 26.511 18.1795C26.7325 17.4022 27.2053 16.641 27.8351 16.1474Z" fill="url(#paint0_linear_990:745)" />
  <path d="M24.1403 15.4625C24.8507 15.9172 25.0738 16.8893 24.6278 17.5863C24.5976 17.6334 24.565 17.6763 24.5293 17.7198C25.09 17.7826 25.6912 17.8041 26.5759 18.1126C27.1646 18.3185 27.8079 18.7745 28.3249 19.0723L29.4455 17.259C28.7934 16.8799 28.0571 16.2324 27.2835 15.9618C26.2481 15.6003 25.2102 15.4123 24.0856 15.43C24.1041 15.4418 24.1237 15.4518 24.1403 15.4625Z" fill="url(#paint1_linear_990:745)" />
  <path d="M9.00351 16.1589C8.94815 16.1589 8.89049 16.1542 8.83513 16.1473C8.18234 16.0551 7.73023 15.4507 7.82249 14.8002C8.55602 9.60558 12.6711 7.62645 12.8464 7.54341C13.4439 7.26431 14.152 7.52265 14.4311 8.11777C14.7102 8.7129 14.4542 9.41875 13.8614 9.70016C13.723 9.76705 10.7312 11.2595 10.1822 15.1324C10.0969 15.7275 9.5871 16.1589 9.00351 16.1589Z" fill="url(#paint2_linear_990:745)" />
  <path d="M9.00351 16.1589C8.94815 16.1589 8.89049 16.1542 8.83513 16.1473C8.18234 16.0551 7.73023 15.4507 7.82249 14.8002C8.55602 9.60558 12.6711 7.62645 12.8464 7.54341C13.4439 7.26431 14.152 7.52265 14.4311 8.11777C14.7102 8.7129 14.4542 9.41875 13.8614 9.70016C13.723 9.76705 10.7312 11.2595 10.1822 15.1324C10.0969 15.7275 9.5871 16.1589 9.00351 16.1589Z" fill="url(#paint3_linear_990:745)" />
  <path d="M8.61748 31.7819L10.5689 26.0152C10.9221 25.0932 11.3347 25.1526 11.8976 25.3025C12.5158 25.4663 13.01 25.6925 12.6611 26.7257L10.7096 32.4924C10.3422 33.5413 9.94382 33.3551 9.38099 33.2052C8.7628 33.0391 8.31232 32.6713 8.61748 31.7819Z" fill="url(#paint4_linear_990:745)" />
  <path d="M16.8976 34.2762C15.6682 34.2762 14.4064 34.1632 13.1262 33.9164C12.4227 33.7826 11.9983 33.0629 12.2151 32.3825L13.9543 26.9571C14.1365 26.392 14.7063 26.046 15.2922 26.1452C15.3176 26.1498 17.9241 26.5788 20.2008 26.0276C22.06 25.5777 23.0473 25.1833 23.3448 24.4175C23.5247 23.9585 24.0576 23.6794 24.5466 23.7393C25.4393 23.8454 25.8453 24.8304 25.49 25.5501C24.5374 27.4808 22.5213 27.919 20.7613 28.3458C18.9575 28.7817 17.0614 28.7218 15.9265 28.6226L14.9139 31.7804C21.7832 32.5716 27.3861 29.1716 28.9201 26.1798C29.9581 24.1545 29.619 22.3369 29.153 21.1674L29.1369 21.1235C29.13 21.1028 28.2534 18.7407 26.4796 18.1733C25.9583 18.0072 25.58 17.5297 25.6077 16.9808C25.6515 16.1642 26.4265 15.6613 27.1508 15.8851C29.9973 16.7616 31.2452 19.9541 31.3721 20.3001C32.2832 22.5975 32.1656 25.0726 31.0399 27.2685C29.13 30.9915 23.504 34.2762 16.8976 34.2762Z" fill="url(#paint5_linear_990:745)" />
  <path d="M24.1735 21.4046C23.6799 21.1162 22.6857 20.8095 21.9107 20.8856V20.881C20.8542 20.8994 19.7378 21.0909 18.7528 21.2616C18.1969 21.3561 17.6687 21.4461 17.3111 21.4761C16.4138 21.5453 13.3621 21.656 11.7728 20.1474C9.63219 18.1129 9.86055 15.1535 10.7855 13.059C11.0508 12.457 10.7786 11.7534 10.1766 11.4858C9.57452 11.2183 8.85945 11.4928 8.59188 12.0948C7.33705 14.9297 7.09023 18.9895 10.1281 21.8751C12.3679 24.0042 16.024 23.9673 17.4934 23.852C17.9616 23.8151 18.5129 23.7205 19.1519 23.6121C20.0538 23.4575 21.0733 23.2568 21.9499 23.2407L22.0952 23.243C22.2866 23.2407 22.4781 23.2591 22.6626 23.3099C22.8541 23.3652 23.0317 23.4714 23.1493 23.6075C23.2762 23.7528 23.3154 23.9719 23.3131 24.2003C23.2993 24.4494 23.1609 24.9615 22.3605 25.3305C21.853 25.5658 21.6108 26.154 21.7446 26.6984C21.9291 27.4412 22.7687 27.8287 23.4584 27.5011C25.5091 26.5277 25.7005 24.9015 25.7005 24.9015C26.0212 22.8047 24.8724 21.8129 24.1735 21.4046Z" fill="url(#paint6_linear_990:745)" />
  <defs>
    <linearGradient id="paint0_linear_990:745" x1="19.7039" y1="17.1961" x2="19.7039" y2="5.33191" gradientUnits="userSpaceOnUse">
      <stop stop-color="#A966E5" />
      <stop offset="1" stop-color="#7966E8" />
    </linearGradient>
    <linearGradient id="paint1_linear_990:745" x1="24.5149" y1="17.5847" x2="28.3497" y2="19.5165" gradientUnits="userSpaceOnUse">
      <stop stop-color="#A966E6" />
      <stop offset="1" stop-color="#3F2575" />
    </linearGradient>
    <linearGradient id="paint2_linear_990:745" x1="11.1773" y1="7.43091" x2="11.1773" y2="16.1589" gradientUnits="userSpaceOnUse">
      <stop offset="0.286458" stop-color="#6F6EBD" />
      <stop offset="1" stop-color="#1C1FEA" />
    </linearGradient>
    <linearGradient id="paint3_linear_990:745" x1="11.1773" y1="7.43091" x2="11.1773" y2="16.1589" gradientUnits="userSpaceOnUse">
      <stop offset="0.229167" stop-color="#8267E8" />
      <stop offset="1" stop-color="#2F3198" />
    </linearGradient>
    <linearGradient id="paint4_linear_990:745" x1="11.4548" y1="26.123" x2="8.99053" y2="35.5825" gradientUnits="userSpaceOnUse">
      <stop stop-color="#E374FF" />
      <stop offset="1" stop-color="#EE4A93" />
    </linearGradient>
    <linearGradient id="paint5_linear_990:745" x1="23.6801" y1="17.6352" x2="12.9011" y2="29.4688" gradientUnits="userSpaceOnUse">
      <stop stop-color="#7A3CFE" />
      <stop offset="1" stop-color="#FCA543" />
    </linearGradient>
    <linearGradient id="paint6_linear_990:745" x1="8.31921" y1="13.6913" x2="23.2327" y2="27.035" gradientUnits="userSpaceOnUse">
      <stop stop-color="#E89331" />
      <stop offset="1" stop-color="#EDB355" />
    </linearGradient>
  </defs>
</svg>