<svg width="19" height="23" viewBox="0 0 19 23" fill="none" xmlns="http://www.w3.org/2000/svg">
  <path d="M15.7546 8.3888C14.4795 7.78739 12.892 7.67 11.1546 7.96438C10.7681 8.0294 10.3852 8.09984 10.0132 8.16847C9.07767 8.34185 8.02475 8.64526 7.07297 8.45201C6.88334 8.41409 6.6919 8.34907 6.55284 8.21543C6.37946 8.05108 6.31083 7.791 6.35598 7.55803C6.44628 7.09929 6.90502 6.86632 7.29512 6.69836C7.84957 6.45996 8.44917 6.32812 9.04155 6.22879C10.2877 6.01748 11.57 5.94886 12.8324 6.00484C13.2767 6.02471 13.674 5.72671 13.7806 5.29507L14.7974 1.15745C14.9419 0.572296 14.5012 0.00519684 13.8962 0.00158478C9.86691 -0.0236997 5.75638 0.232759 3.01843 2.28983L4.13998 3.78342C6.19163 2.24287 9.39734 1.90876 12.6988 1.87083L12.1461 4.12115C10.3581 4.11031 6.5402 4.29814 5.08092 6.01026C4.54995 6.63334 4.36032 7.3991 4.53189 8.22445C4.8642 9.82099 6.17357 10.1515 6.73344 10.2924C7.60395 10.5127 8.8176 10.2887 10.3509 10.0034C10.7139 9.93657 11.086 9.85711 11.4634 9.80293C12.9715 9.58982 13.9106 9.64219 14.7179 9.97992C14.8913 9.37128 15.2615 8.77529 15.7546 8.3888Z" fill="url(#paint0_linear)" />
  <path d="M12.8622 7.85304C13.4184 8.20904 13.5931 8.97022 13.2438 9.5159C13.2202 9.55276 13.1947 9.58634 13.1667 9.62041C13.6057 9.6696 14.0765 9.68646 14.7691 9.92798C15.2301 10.0892 15.7337 10.4463 16.1385 10.6793L17.0159 9.25966C16.5053 8.96283 15.9288 8.45586 15.3231 8.244C14.5125 7.96092 13.6999 7.81379 12.8193 7.82764C12.8338 7.83689 12.8491 7.84471 12.8622 7.85304Z" fill="url(#paint1_linear)" />
  <path d="M1.01159 8.3981C0.968242 8.3981 0.923092 8.39449 0.879748 8.38907C0.36864 8.31683 0.0146578 7.84365 0.0868991 7.33435C0.661218 3.26716 3.88318 1.71759 4.02044 1.65257C4.4882 1.43404 5.04265 1.63631 5.26118 2.10227C5.47971 2.56823 5.27924 3.12088 4.81509 3.34121C4.70673 3.39359 2.36431 4.56209 1.93447 7.59442C1.86765 8.06037 1.46851 8.3981 1.01159 8.3981Z" fill="url(#paint2_linear)" />
  <path d="M1.01147 8.39871C0.96812 8.39871 0.92297 8.3951 0.879625 8.38968C0.368518 8.31744 0.0145357 7.84426 0.086777 7.33496C0.661096 3.26777 3.88306 1.7182 4.02032 1.65318C4.48808 1.43465 5.04253 1.63692 5.26106 2.10288C5.47959 2.56884 5.27912 3.12149 4.81497 3.34182C4.70661 3.3942 2.36418 4.5627 1.93435 7.59503C1.86753 8.06098 1.46839 8.39871 1.01147 8.39871Z" fill="url(#paint3_linear)" />
  <path d="M0.707884 20.6303L2.23579 16.1152C2.51233 15.3933 2.83539 15.4398 3.27606 15.5572C3.76008 15.6854 4.14703 15.8625 3.87386 16.6715L2.34595 21.1865C2.05824 22.0078 1.74635 21.862 1.30568 21.7446C0.821664 21.6146 0.468957 21.3267 0.707884 20.6303Z" fill="url(#paint4_linear)" />
  <path d="M7.19189 22.583C6.22927 22.583 5.24137 22.4945 4.23902 22.3012C3.68818 22.1965 3.35587 21.633 3.52564 21.1002L4.88739 16.8524C5.03007 16.4099 5.47616 16.1391 5.93489 16.2167C5.95476 16.2203 7.99557 16.5562 9.77813 16.1246C11.2338 15.7724 12.0068 15.4636 12.2397 14.864C12.3806 14.5046 12.7978 14.2861 13.1807 14.333C13.8796 14.4161 14.1975 15.1873 13.9194 15.7508C13.1735 17.2624 11.595 17.6055 10.217 17.9397C8.80467 18.281 7.32012 18.234 6.43155 18.1564L5.6387 20.6288C11.0171 21.2483 15.4039 18.5862 16.6049 16.2438C17.4176 14.6581 17.1522 13.2349 16.7873 12.3193L16.7747 12.285C16.7693 12.2687 16.083 10.4193 14.6941 9.97506C14.286 9.84502 13.9898 9.47118 14.0115 9.04134C14.0458 8.40201 14.6526 8.00829 15.2197 8.18348C17.4483 8.86977 18.4254 11.3693 18.5247 11.6402C19.2381 13.439 19.146 15.3769 18.2647 17.0962C16.7693 20.0112 12.3644 22.583 7.19189 22.583Z" fill="url(#paint5_linear)" />
  <path d="M12.888 12.5053C12.5015 12.2795 11.7231 12.0393 11.1162 12.0989V12.0953C10.2891 12.1098 9.41496 12.2597 8.64378 12.3933C8.20853 12.4674 7.79495 12.5378 7.51501 12.5613C6.81247 12.6155 4.42308 12.7021 3.17873 11.521C1.50273 9.92808 1.68153 7.61094 2.40575 5.97106C2.61344 5.49969 2.40033 4.94885 1.92895 4.73935C1.45758 4.52985 0.89771 4.74476 0.688211 5.21614C-0.294271 7.43575 -0.487519 10.6144 1.89103 12.8737C3.64468 14.5407 6.50724 14.5118 7.65769 14.4215C8.02431 14.3926 8.45595 14.3185 8.95622 14.2337C9.66238 14.1127 10.4606 13.9555 11.1469 13.9429L11.2607 13.9447C11.4106 13.9429 11.5605 13.9573 11.705 13.9971C11.8549 14.0404 11.994 14.1235 12.0861 14.2301C12.1854 14.3438 12.2161 14.5154 12.2143 14.6942C12.2035 14.8893 12.0951 15.2902 11.4684 15.5792C11.0711 15.7634 10.8815 16.2239 10.9862 16.6501C11.1307 17.2317 11.7881 17.5351 12.3281 17.2786C13.9337 16.5165 14.0836 15.2432 14.0836 15.2432C14.3346 13.6016 13.4352 12.825 12.888 12.5053Z" fill="url(#paint6_linear)" />
  <defs>
    <linearGradient id="paint0_linear" x1="9.38822" y1="9.2099" x2="9.38822" y2="-0.0792354" gradientUnits="userSpaceOnUse">
      <stop stop-color="#A966E5" />
      <stop offset="1" stop-color="#7966E8" />
    </linearGradient>
    <linearGradient id="paint1_linear" x1="13.1555" y1="9.51468" x2="16.1579" y2="11.0272" gradientUnits="userSpaceOnUse">
      <stop stop-color="#A966E6" />
      <stop offset="1" stop-color="#3F2575" />
    </linearGradient>
    <linearGradient id="paint2_linear" x1="2.71359" y1="1.56448" x2="2.71359" y2="8.3981" gradientUnits="userSpaceOnUse">
      <stop offset="0.286458" stop-color="#6F6EBD" />
      <stop offset="1" stop-color="#1C1FEA" />
    </linearGradient>
    <linearGradient id="paint3_linear" x1="2.71347" y1="1.56509" x2="2.71347" y2="8.39871" gradientUnits="userSpaceOnUse">
      <stop offset="0.229167" stop-color="#8267E8" />
      <stop offset="1" stop-color="#2F3198" />
    </linearGradient>
    <linearGradient id="paint4_linear" x1="2.92935" y1="16.1996" x2="0.999969" y2="23.606" gradientUnits="userSpaceOnUse">
      <stop stop-color="#E374FF" />
      <stop offset="1" stop-color="#EE4A93" />
    </linearGradient>
    <linearGradient id="paint5_linear" x1="12.5023" y1="9.55377" x2="4.06276" y2="18.8189" gradientUnits="userSpaceOnUse">
      <stop stop-color="#7A3CFE" />
      <stop offset="1" stop-color="#FCA543" />
    </linearGradient>
    <linearGradient id="paint6_linear" x1="0.474719" y1="6.46613" x2="12.1513" y2="16.9136" gradientUnits="userSpaceOnUse">
      <stop stop-color="#E89331" />
      <stop offset="1" stop-color="#EDB355" />
    </linearGradient>
  </defs>
</svg>
  