<svg width="199" height="163" viewBox="0 0 199 163" fill="none" xmlns="http://www.w3.org/2000/svg">
<path d="M260.66 67.0551L270.372 60.4823L270.215 60.1064C269.907 59.3656 266.746 51.7738 262.928 42.6015L249.026 9.20611L248.926 8.97977L215.106 0L169.857 30.6225L169.519 30.8509L173.646 40.7659C179.566 54.9834 190.061 80.1947 190.866 82.1301L190.965 82.3594L191.203 82.4222C197.666 84.1382 218.215 89.5903 224.554 91.2704H224.566L224.785 91.3282L224.968 91.2046L224.979 91.1966L260.66 67.0551ZM217.9 88.4735L216.069 84.0784L219.164 84.9L220.994 89.2942L217.9 88.4735ZM214.563 87.5881L212.734 83.194L215.828 84.0146L217.657 88.4087L214.563 87.5881ZM197.88 83.1621L196.051 78.7699L199.144 79.5915L200.974 83.9857L197.88 83.1621ZM194.544 82.2766L192.714 77.8825L195.622 78.6532L195.808 78.7031L197.64 83.0973L194.544 82.2766ZM207.893 85.8183L206.063 81.4231L209.157 82.2437L210.989 86.6389L207.893 85.8183ZM204.555 84.9329L202.72 80.5377L205.819 81.3623L207.648 85.7495L204.555 84.9329ZM251.622 71.9707C251.223 71.0195 250.573 69.4511 249.737 67.444L254.072 64.5115C254.979 66.6872 255.642 68.2825 255.957 69.0383L251.622 71.9707ZM233.595 84.1661L231.71 79.6393L236.048 76.7039C236.77 78.4399 237.408 79.9704 237.933 81.2307L233.595 84.1661ZM223.035 85.5102L227.036 82.8021L228.92 87.3289L224.919 90.037L223.035 85.5102ZM248.338 10.1484L250.223 14.6751L246.222 17.3832L244.338 12.8564L248.338 10.1484ZM203.41 39.3471L200.841 38.666L204.69 36.0607L207.259 36.7427L203.41 39.3471ZM204.118 40.0719L208.119 37.3648C208.453 38.1625 209.115 39.7579 210.004 41.8916L206.008 44.5987L204.118 40.0719ZM208.287 37.2502L212.626 34.3158L214.509 38.8425L210.173 41.778C209.276 39.6242 208.614 38.0339 208.288 37.2502H208.287ZM212.795 34.2001L217.132 31.2647C217.642 32.4911 218.282 34.0256 219.017 35.7914L214.675 38.7279L212.795 34.2001ZM207.479 36.5931L204.912 35.9131L209.196 33.0116L211.766 33.6936L207.479 36.5931ZM204.654 35.8443L201.573 35.0267L205.856 32.1252L208.938 32.9428L204.654 35.8443ZM204.435 35.9919L200.586 38.5972L197.504 37.7796L201.354 35.1742L204.435 35.9919ZM200.286 39.5485C200.615 40.3392 201.255 41.8777 202.116 43.9436L199.021 43.123L197.191 38.7289L200.286 39.5485ZM200.529 39.6133L203.138 40.3053L204.967 44.7004L202.358 44.0084C201.518 41.9903 200.88 40.4588 200.529 39.6143V39.6133ZM206.082 44.7862L210.082 42.0771C210.68 43.5009 211.365 45.1571 212.124 46.9798L208.123 49.6869L206.082 44.7862ZM210.251 41.9644L214.589 39.029L216.629 43.9317L212.292 46.8671C211.533 45.0444 210.843 43.3873 210.251 41.9654V41.9644ZM214.757 38.9153L219.095 35.9799L221.136 40.8806L216.799 43.816L214.757 38.9153ZM217.301 31.151L221.638 28.2176L223.523 32.7443L219.186 35.6798C218.448 33.9099 217.81 32.3754 217.301 31.152V31.151ZM211.985 33.544L209.416 32.862L213.699 29.9615L216.27 30.6435L211.985 33.544ZM209.16 32.7942L206.079 31.9776L210.362 29.0761L213.443 29.8937L209.16 32.7942ZM205.824 31.9068L202.742 31.0892L207.026 28.1877L210.107 29.0053L205.824 31.9068ZM205.604 32.0544L201.321 34.9559L198.237 34.1423L202.521 31.2407L205.604 32.0544ZM201.099 35.1074L197.249 37.7128L194.168 36.8922L198.017 34.2878L201.099 35.1074ZM196.949 38.6641L198.778 43.0592L195.684 42.2386L193.854 37.8434L196.949 38.6641ZM198.875 43.2915L200.897 48.1493L197.803 47.3287L195.781 42.4699L198.875 43.2915ZM199.117 43.3553L202.212 44.1769C202.799 45.5858 203.481 47.227 204.235 49.0348L201.14 48.2141L199.117 43.3553ZM202.454 44.2408L205.063 44.9327C205.65 46.3436 206.334 47.9848 207.086 49.7915L204.477 49.0936L202.454 44.2408ZM208.199 49.8773L212.201 47.1692C212.839 48.7027 213.525 50.3499 214.242 52.0729L210.242 54.78L208.199 49.8773ZM212.37 47.0555L216.707 44.1201L218.748 49.0228L214.412 51.9582C213.695 50.2362 213.008 48.5881 212.371 47.0555H212.37ZM216.875 44.0064L221.213 41.071C221.861 42.6275 222.545 44.2707 223.254 45.9737L218.917 48.9091L216.875 44.0064ZM221.381 40.9574L225.72 38.0219C226.357 39.5545 227.044 41.2026 227.761 42.9246L223.422 45.86C222.715 44.157 222.03 42.5118 221.382 40.9574H221.381ZM221.303 40.7689L219.262 35.8662L223.601 32.9318C224.192 34.3526 224.882 36.0108 225.641 37.8335L221.303 40.7689ZM221.802 28.1059L226.14 25.1705L228.024 29.6972L224.965 31.7682L223.686 32.6327C222.788 30.458 222.124 28.8637 221.807 28.1029L221.802 28.1059ZM216.487 30.4989L213.922 29.8129L218.205 26.9124L220.774 27.5934L216.487 30.4989ZM213.662 29.7491L210.59 28.9285L214.874 26.024L217.955 26.8416L213.662 29.7491ZM210.324 28.8637L207.243 28.0471L211.527 25.1455L214.608 25.9632L210.324 28.8637ZM206.988 27.9793L203.916 27.1587L208.199 24.2571L211.281 25.0747L206.988 27.9793ZM206.769 28.1268L202.485 31.0284L199.405 30.2117L203.689 27.3102L206.769 28.1268ZM202.263 31.1759L197.979 34.0774L194.898 33.2598L199.182 30.3593L202.263 31.1759ZM197.756 34.226L193.907 36.8304L190.826 36.0128L194.68 33.4024L197.756 34.226ZM193.612 37.7796L195.442 42.1768L192.348 41.3562L190.518 36.961L193.612 37.7796ZM195.539 42.4061L197.561 47.2619L194.467 46.4413L192.445 41.5835L195.539 42.4061ZM197.658 47.4962L199.68 52.3551L196.586 51.5345L194.563 46.6756L197.658 47.4962ZM197.9 47.5601L200.994 48.3817L203.019 53.2445L199.926 52.4229L197.9 47.5601ZM201.237 48.4455L204.331 49.2671L206.354 54.1249L203.259 53.3043L201.237 48.4455ZM204.573 49.3309L207.182 50.0229L209.205 54.8817L206.597 54.1897L204.573 49.3309ZM210.32 54.9674L214.321 52.2603C214.981 53.8437 215.664 55.4869 216.362 57.163L212.361 59.8701C211.663 58.195 210.979 56.5518 210.32 54.9674ZM214.489 52.1477L218.827 49.2122L219.279 50.2981C219.797 51.5434 220.329 52.8207 220.868 54.1139L216.531 57.0493C215.833 55.3732 215.148 53.729 214.489 52.1477ZM219.463 50.2213L218.995 49.0976L223.334 46.1651C223.996 47.7605 224.68 49.4007 225.374 51.0678L221.036 54.0032C220.503 52.718 219.977 51.4497 219.463 50.2203V50.2213ZM223.502 46.0485L227.84 43.1131C228.499 44.6964 229.182 46.3396 229.881 48.0157L225.542 50.9512L223.502 46.0485ZM228.008 42.9994L232.345 40.064L234.387 44.9686L230.049 47.9041L228.008 42.9994ZM227.93 42.8119L225.889 37.9083L230.226 34.9738L232.268 39.8765L227.93 42.8119ZM225.81 37.7198C225.051 35.8951 224.361 34.238 223.77 32.8171L225.081 31.9297L228.108 29.8817L230.149 34.7844L225.81 37.7198ZM226.313 25.0568L230.651 22.1214L232.536 26.6482L228.198 29.5836L226.313 25.0568ZM220.998 27.4498L218.428 26.7678L222.712 23.8663L225.282 24.5483L220.998 27.4498ZM218.172 26.7L215.091 25.8824L219.375 22.9809L222.456 23.7985L218.172 26.7ZM214.836 25.8146L211.755 24.997L216.039 22.0964L219.12 22.9131L214.836 25.8146ZM211.499 24.9272L208.418 24.1096L212.701 21.209L215.783 22.0267L211.499 24.9272ZM208.163 24.0418L205.081 23.2252L209.365 20.3236L212.446 21.1412L208.163 24.0418ZM207.943 24.1903L203.66 27.0919L200.579 26.2742L204.862 23.3727L207.943 24.1903ZM203.437 27.2394L199.153 30.1409L196.072 29.3233L200.355 26.4228L203.437 27.2394ZM198.935 30.2885L194.651 33.189L191.563 32.3714L195.847 29.4709L198.935 30.2885ZM194.429 33.3376L190.58 35.942L187.498 35.1244L191.348 32.52L194.429 33.3376ZM190.276 36.8922L192.105 41.2864L189.011 40.4658L187.18 36.0736L190.276 36.8922ZM192.202 41.5187L194.224 46.3765L191.136 45.5559L189.112 40.6981L192.202 41.5187ZM194.32 46.6088L196.345 51.4696L193.25 50.652L191.226 45.7932L194.32 46.6088ZM196.444 51.702L198.467 56.5598L195.368 55.7372L193.346 50.8784L196.444 51.702ZM196.686 51.7658L199.781 52.5864L201.803 57.4452L198.715 56.6246L196.686 51.7658ZM200.024 52.6512L203.117 53.4718L205.136 58.3296L202.042 57.509L200.024 52.6512ZM203.36 53.5366L206.454 54.3572L208.476 59.216L205.382 58.3944L203.36 53.5366ZM206.697 54.422L209.305 55.114C209.959 56.6814 210.636 58.3107 211.329 59.9718L208.719 59.2798C208.024 57.6207 207.346 55.9904 206.693 54.422H206.697ZM212.443 60.0576L216.444 57.3505L218.485 62.2531L217.19 63.1266L214.476 64.9602L212.443 60.0576ZM216.608 57.2328L220.951 54.3014C221.624 55.9166 222.309 57.5608 222.992 59.204L218.65 62.1395L216.608 57.2328ZM221.114 54.1837L225.453 51.2503L227.493 56.153L223.155 59.0874C222.471 57.4462 221.788 55.803 221.114 54.1877V54.1837ZM225.621 51.1336L229.958 48.1982C230.631 49.8135 231.315 51.4587 232 53.1009L227.662 56.0363C226.977 54.3961 226.294 52.7569 225.621 51.1376V51.1336ZM230.127 48.0845L234.465 45.1491C235.137 46.7644 235.822 48.4096 236.505 50.0518L232.168 52.9912L230.127 48.0845ZM236.584 50.2392L238.624 55.1419L234.287 58.0773L232.246 53.1747L236.584 50.2392ZM236.753 50.1256L241.09 47.1901C241.774 48.8343 242.458 50.4805 243.131 52.0928L238.793 55.0322C238.121 53.4179 237.437 51.7728 236.753 50.1296V50.1256ZM236.674 49.9381C235.989 48.2949 235.306 46.6477 234.634 45.0354L238.971 42.1C239.644 43.7163 240.328 45.3585 241.012 47.0027C239.58 47.9749 238.124 48.957 236.674 49.9421V49.9381ZM234.555 44.853C233.858 43.1769 233.173 41.5347 232.514 39.9503L236.43 37.3L236.852 37.0149C237.512 38.5982 238.196 40.2434 238.892 41.9175L234.555 44.853ZM236.318 37.1345L232.433 39.7618L230.395 34.8582L234.732 31.9227C235.373 33.4612 236.058 35.1064 236.773 36.8254L236.318 37.1345ZM230.315 34.6707C229.558 32.851 228.868 31.1949 228.274 29.768L232.611 26.8326C233.209 28.2694 233.898 29.9236 234.653 31.7353L230.315 34.6707ZM230.813 22.0077L235.151 19.0733C235.467 19.8321 236.131 21.4264 237.035 23.6001L232.706 26.5305L230.813 22.0077ZM225.498 24.4007L222.928 23.7197L223.872 23.0816L227.215 20.8182L229.785 21.5002L225.498 24.4007ZM223.76 22.9161L222.672 23.6519L219.598 22.8333L223.882 19.9318L226.963 20.7494L223.76 22.9161ZM219.336 22.7665L216.255 21.9489L220.552 19.0444L223.633 19.861L219.336 22.7665ZM216 21.8811L212.918 21.0635L217.202 18.1629L220.283 18.9806L216 21.8811ZM212.662 20.9957L209.581 20.1781L213.865 17.2775L216.945 18.0951L212.662 20.9957ZM209.326 20.1103L206.245 19.2936L210.529 16.3921L213.61 17.2097L209.326 20.1103ZM209.107 20.2588L204.823 23.1603L201.744 22.3348L206.028 19.4332L209.107 20.2588ZM204.6 23.3079L200.317 26.2094L197.241 25.3878L201.525 22.4873L204.6 23.3079ZM200.1 26.354L195.817 29.2545L192.735 28.4369L197.019 25.5364L200.1 26.354ZM195.595 29.4031L191.311 32.3036L188.23 31.487L192.513 28.5855L195.595 29.4031ZM191.088 32.4522L187.239 35.0566L184.158 34.24L188.008 31.6346L191.088 32.4522ZM186.939 36.0088L188.774 40.404L185.674 39.5844L183.845 35.1902L186.939 36.0088ZM188.865 40.6353L190.888 45.4941L187.793 44.6695L185.771 39.8117L188.865 40.6353ZM190.984 45.7254L193.006 50.5842L189.913 49.7636L187.89 44.9048L190.984 45.7254ZM193.103 50.8166L195.126 55.6744L192.032 54.8538L190.01 49.9959L193.103 50.8166ZM195.222 55.9067L197.241 60.7655L194.153 59.9449L192.131 55.0861L195.222 55.9067ZM195.465 55.9715L198.559 56.7921L200.582 61.6499L197.487 60.8293L195.465 55.9715ZM198.801 56.8559L201.896 57.6775L203.916 62.5353L200.828 61.7197L198.801 56.8559ZM202.139 57.7413L205.233 58.5619L207.255 63.4207L204.161 62.6001L202.139 57.7413ZM205.475 58.6287L208.569 59.4493C209.236 61.0507 209.913 62.6769 210.591 64.3081L207.502 63.4855L205.475 58.6287ZM208.812 59.5141L211.42 60.2061L213.443 65.0639L210.834 64.3719C210.156 62.7417 209.479 61.1125 208.812 59.5121V59.5141ZM214.558 65.1507L217.302 63.2931C217.691 63.0309 218.112 62.7457 218.559 62.4426L220.6 67.3453L216.599 70.0534L214.558 65.1507ZM218.727 62.3289L223.066 59.3935L225.106 64.2962L220.769 67.2316L218.727 62.3289ZM223.234 59.2798L227.572 56.3444C228.255 57.9846 228.937 59.6258 229.613 61.2471L225.274 64.1805L223.234 59.2798ZM227.74 56.2307L232.077 53.2953C232.763 54.9395 233.446 56.5857 234.119 58.197L229.781 61.1324C229.106 59.5102 228.422 57.8689 227.74 56.2287V56.2307ZM234.2 58.3834C234.898 60.0605 235.582 61.7028 236.24 63.2861L231.903 66.2215L229.859 61.3209L234.2 58.3834ZM234.369 58.2698L238.703 55.3383C239.4 57.0144 240.085 58.6576 240.744 60.24L236.406 63.1754L234.369 58.2698ZM238.874 55.2197L243.212 52.2843C243.909 53.9594 244.594 55.6016 245.253 57.1869L240.913 60.1244C240.253 58.54 239.569 56.8958 238.871 55.2197H238.874ZM243.38 52.1706L247.719 49.2352C248.416 50.9123 249.1 52.5545 249.759 54.1378L245.421 57.0733C244.76 55.4879 244.075 53.8427 243.377 52.1706H243.38ZM243.303 51.9831L241.261 47.0805L245.599 44.145L247.64 49.0477L243.303 51.9831ZM241.184 46.892L239.142 41.9903L243.48 39.0549C244.153 40.6712 244.837 42.3124 245.521 43.9576L241.184 46.892ZM239.064 41.8069L237.023 36.9042L241.361 33.9688L243.402 38.8714L239.064 41.8069ZM236.945 36.7217L234.898 31.8071L239.235 28.8717C239.873 30.4042 240.559 32.0514 241.276 33.7743L236.945 36.7217ZM234.826 31.6316C234.069 29.8129 233.379 28.1548 232.782 26.7219L237.12 23.7865C237.711 25.2074 238.401 26.8635 239.16 28.6892L234.826 31.6316ZM235.324 18.9686L239.662 16.0332C239.977 16.789 240.641 18.3843 241.547 20.5599L237.21 23.4814L235.324 18.9686ZM230.009 21.3616L227.439 20.6796L231.723 17.7791L234.3 18.4461L230.009 21.3616ZM227.184 20.6118L224.103 19.7952L228.386 16.8936L231.468 17.7113L227.184 20.6118ZM223.847 19.7274L220.766 18.9098L225.049 16.0082L228.13 16.8258L223.847 19.7274ZM220.511 18.842L217.429 18.0243L221.713 15.1228L224.794 15.9404L220.511 18.842ZM217.174 17.9476L214.093 17.13L218.377 14.2294L221.458 15.046L217.174 17.9476ZM213.838 17.0622L210.757 16.2445L215.04 13.344L218.122 14.1616L213.838 17.0622ZM210.501 16.1767L207.419 15.3551L211.703 12.4536L214.784 13.2712L210.501 16.1767ZM210.283 16.3253L205.999 19.2268L202.918 18.4092L207.201 15.5077L210.283 16.3253ZM205.776 19.3744L201.492 22.2759L198.411 21.4583L202.694 18.5568L205.776 19.3744ZM201.27 22.4245L196.986 25.325L193.905 24.5074L198.189 21.6069L201.27 22.4245ZM196.764 25.4736L192.48 28.3741L189.399 27.5575L193.683 24.656L196.764 25.4736ZM192.26 28.5167L187.977 31.4182L184.888 30.6016L189.172 27.7001L192.26 28.5167ZM187.754 31.5658L183.902 34.1722L180.821 33.3546L184.67 30.7492L187.754 31.5658ZM183.605 35.1224L185.435 39.5176L182.34 38.697L180.505 34.2998L183.605 35.1224ZM185.532 39.7499L187.554 44.6077L184.46 43.7871L182.437 38.9283L185.532 39.7499ZM187.651 44.835L189.67 49.6988L186.576 48.8782L184.553 44.0194L187.651 44.835ZM189.77 49.9311L191.792 54.7899L188.698 53.9683L186.676 49.1105L189.77 49.9311ZM191.889 55.0213L193.911 59.8801L190.817 59.0595L188.795 54.2007L191.889 55.0213ZM194.008 60.1124L196.031 64.9702L192.936 64.1496L190.913 59.2908L194.008 60.1124ZM194.251 60.1762L197.341 60.9968L199.363 65.8556L196.269 65.035L194.251 60.1762ZM197.587 61.0616L200.681 61.8822L202.703 66.741L199.615 65.9194L197.587 61.0616ZM200.924 61.947L204.012 62.7676L206.036 67.6264L202.944 66.8048L200.924 61.947ZM204.261 62.8315L207.355 63.6531L209.377 68.5109L206.283 67.6903L204.261 62.8315ZM207.594 63.7139L210.69 64.5375L212.711 69.3973L209.617 68.5767L207.594 63.7139ZM210.931 64.5993L213.54 65.2913L215.562 70.1501L212.953 69.4581L210.931 64.5993ZM216.677 70.2358L220.678 67.5287L222.719 72.4304L218.718 75.1385C218.062 73.5561 217.374 71.9129 216.677 70.2388V70.2358ZM220.851 67.4171L225.185 64.4816L227.227 69.3843L222.888 72.3197C222.229 70.7364 221.549 69.0981 220.851 67.4171ZM225.357 64.368L229.694 61.4325L231.736 66.3352L227.398 69.2706C226.735 67.6863 226.049 66.0421 225.353 64.368H225.357ZM231.809 66.5227L233.851 71.4253L229.518 74.3608C228.879 72.8243 228.192 71.1771 227.477 69.4581L231.809 66.5227ZM231.978 66.409L236.316 63.4736C237.033 65.1965 237.719 66.8437 238.357 68.3763L234.019 71.3117C233.369 69.7502 232.685 68.106 231.978 66.406V66.409ZM236.485 63.3599L240.822 60.4235C241.539 62.1465 242.225 63.7936 242.863 65.3262L238.526 68.2616L236.485 63.3599ZM240.99 60.3108L245.329 57.3754L247.369 62.2781L243.032 65.2095L240.99 60.3108ZM245.497 57.2607L249.835 54.3253C250.552 56.0493 251.237 57.6955 251.876 59.228L247.537 62.1634L245.497 57.2607ZM250.003 54.2116L254.34 51.2762C255.058 52.9992 255.744 54.6464 256.382 56.1789L252.044 59.1143C251.406 57.5818 250.72 55.9366 250.003 54.2116ZM249.924 54.0242C249.266 52.4408 248.581 50.7966 247.884 49.1215L252.222 46.1861C252.919 47.8622 253.603 49.5054 254.263 51.0888L249.924 54.0242ZM247.805 48.9331C247.133 47.3188 246.449 45.6736 245.764 44.0314L250.103 41.0959C250.787 42.7391 251.471 44.3863 252.144 45.9986L247.805 48.9331ZM245.686 43.8479L243.645 38.9452L247.984 36.0098L250.024 40.9125L245.686 43.8479ZM243.565 38.7528C242.867 37.0767 242.182 35.4325 241.523 33.8501L245.862 30.9147C246.519 32.4961 247.206 34.1433 247.902 35.8174L243.565 38.7528ZM241.446 33.6676L239.404 28.765L243.745 25.8246C244.383 27.3571 245.069 29.0043 245.786 30.7272L241.446 33.6676ZM239.326 28.5775C238.566 26.7499 237.876 25.0937 237.285 23.6748C238.812 22.6339 240.27 21.6517 241.626 20.7394C242.218 22.1593 242.907 23.8164 243.667 25.6421L239.326 28.5775ZM239.824 15.9145L244.161 12.9791L246.046 17.5059L241.709 20.4413C240.803 18.2397 240.139 16.6414 239.832 15.9055L239.824 15.9145ZM234.508 18.3075L231.939 17.6255L236.223 14.724L238.793 15.406L234.508 18.3075ZM231.691 17.5487L228.61 16.7311L232.893 13.8306L235.975 14.6482C234.636 15.5546 233.196 16.5307 231.691 17.5487ZM228.355 16.6633L225.273 15.8467L229.557 12.9452L232.638 13.7628L228.355 16.6633ZM225.017 15.7789L221.936 14.9613L226.22 12.0598L229.301 12.8774L225.017 15.7789ZM221.681 14.8935L218.6 14.0759L222.883 11.1744L225.965 11.992L221.681 14.8935ZM218.344 14.0081L215.263 13.1905L219.546 10.2899L222.627 11.1066L218.344 14.0081ZM215.007 13.1227L211.926 12.3051L216.21 9.40453L219.291 10.2221L215.007 13.1227ZM211.67 12.2373L208.589 11.4206L212.873 8.51911L215.954 9.33673L211.67 12.2373ZM211.451 12.3858L207.167 15.2873L204.086 14.4697L208.37 11.5682L211.451 12.3858ZM206.945 15.4349L202.662 18.3364L199.58 17.5188L203.864 14.6173L206.945 15.4349ZM202.439 18.484L198.156 21.3855L195.075 20.5679L199.358 17.6674L202.439 18.484ZM197.933 21.5371L193.649 24.4376L190.567 23.618L194.85 20.7165L197.933 21.5371ZM193.427 24.5862L189.143 27.4877L186.062 26.6701L190.346 23.7686L193.427 24.5862ZM188.921 27.6353L184.637 30.5368L181.552 29.7132L185.836 26.8117L188.921 27.6353ZM184.415 30.6844L180.566 33.2897L177.484 32.4721L181.334 29.8667L184.415 30.6844ZM180.265 34.241L182.099 38.6331L179.005 37.8125L177.176 33.4174L180.265 34.241ZM182.192 38.8685L184.214 43.7263L181.12 42.9057L179.097 38.0469L182.192 38.8685ZM184.311 43.9586L186.333 48.8164L183.24 47.9958L181.216 43.134L184.311 43.9586ZM186.43 49.0437L188.452 53.9025L185.364 53.0809L183.34 48.2231L186.43 49.0437ZM188.548 54.1339L190.572 58.9927L187.479 58.1741L185.456 53.3153L188.548 54.1339ZM190.666 59.227L192.689 64.0848L189.594 63.2642L187.578 58.4054L190.666 59.227ZM192.785 64.3121L194.808 69.1699L191.713 68.3493L189.691 63.4915L192.785 64.3121ZM193.027 64.3759L196.123 65.1975L198.145 70.0553L195.05 69.2397L193.027 64.3759ZM196.365 65.2614L199.459 66.083L201.481 70.9408L198.387 70.1202L196.365 65.2614ZM199.701 66.1468L202.795 66.9674L204.818 71.8262L201.724 71.0106L199.701 66.1468ZM203.038 67.0322L206.132 67.8528L208.155 72.7116L205.06 71.89L203.038 67.0322ZM206.374 67.9176L209.469 68.7382L211.491 73.597L208.399 72.7804L206.374 67.9176ZM209.712 68.802L212.806 69.6236L214.828 74.4814L211.734 73.6608L209.712 68.802ZM213.05 69.6964L215.659 70.3884L217.681 75.2472L215.073 74.5512L213.05 69.6964ZM218.796 75.3329L222.798 72.6258C223.515 74.3478 224.2 75.995 224.838 77.5285L220.837 80.2356C220.198 78.6941 219.512 77.0479 218.796 75.3289V75.3329ZM222.966 72.5122L227.304 69.5767C228.02 71.2957 228.705 72.9429 229.345 74.4784L225.006 77.4139C224.369 75.8783 223.682 74.2302 222.966 72.5082V72.5122ZM229.419 74.6629C230.175 76.4776 230.863 78.1328 231.46 79.5656L227.127 82.501L225.086 77.5983L229.419 74.6629ZM229.587 74.5492L233.925 71.6138L235.966 76.5155L231.628 79.4509L229.587 74.5492ZM234.101 71.4991L238.438 68.5637C239.197 70.3874 239.888 72.0465 240.479 73.4664L236.141 76.4018L234.101 71.4991ZM238.603 68.45L242.941 65.5146L244.982 70.4173L240.645 73.3527L238.603 68.45ZM243.109 65.4009L247.45 62.4655C248.204 64.2772 248.892 65.9304 249.49 67.3682L245.152 70.3036C244.561 68.8808 243.868 67.2226 243.109 65.4009ZM247.616 62.3519L251.954 59.4164C252.714 61.2411 253.403 62.8983 253.995 64.3181L249.657 67.2535L247.616 62.3519ZM252.122 59.3018L256.46 56.3663C257.219 58.192 257.91 59.8492 258.501 61.269L254.163 64.2044L252.122 59.3018ZM256.629 56.2527L260.966 53.3172L263.007 58.2199L258.669 61.1553L256.629 56.2527ZM256.55 56.0652C255.912 54.5317 255.226 52.8845 254.509 51.1625L258.847 48.2271L260.887 53.1298L256.55 56.0652ZM254.431 50.9741C253.773 49.3917 253.087 47.7465 252.39 46.0724L256.727 43.137L258.769 48.0387L254.431 50.9741ZM252.312 45.884C251.639 44.2687 250.955 42.6255 250.271 40.9813L254.608 38.0459L256.65 42.9485L252.312 45.884ZM250.193 40.7988L248.152 35.8951L252.489 32.9597L254.531 37.8624L250.193 40.7988ZM248.073 35.7137L246.033 30.811L250.371 27.8756L252.412 32.7782L248.073 35.7137ZM245.955 30.6106C245.238 28.8866 244.552 27.2394 243.914 25.7079L248.253 22.7725L250.293 27.6752L245.955 30.6106ZM243.836 25.5254C243.075 23.6988 242.385 22.0416 241.794 20.6228C243.409 19.5309 244.876 18.5378 246.132 17.6873L248.173 22.59L243.836 25.5254ZM239.023 15.2554L236.453 14.5734L240.736 11.6719L243.306 12.3539L239.023 15.2554ZM236.193 14.4996L233.112 13.682L237.396 10.7805L240.477 11.5981L236.193 14.4996ZM232.856 13.6142L229.775 12.7966L234.059 9.89609L237.14 10.7137L232.856 13.6142ZM229.52 12.7288L226.439 11.9112L230.723 9.01068L233.804 9.82829L229.52 12.7288ZM226.183 11.8444L223.102 11.0268L227.385 8.12526L230.467 8.94288L226.183 11.8444ZM222.847 10.959L219.765 10.1414L224.049 7.23985L227.13 8.05746L222.847 10.959ZM219.513 10.0706L216.432 9.25297L220.716 6.35145L223.797 7.16906L219.513 10.0706ZM216.177 9.18517L213.096 8.37553L217.379 5.47501L220.46 6.29162L216.177 9.18517ZM212.84 8.29975L209.759 7.48314L214.042 4.58162L217.102 5.39324L217.123 5.39923L212.84 8.29975ZM212.621 8.44832L208.337 11.3498L205.256 10.5322L209.539 7.63071L212.621 8.44832ZM208.115 11.4974L203.831 14.3989L200.75 13.5813L205.034 10.6798L208.115 11.4974ZM203.609 14.5465L199.325 17.448L196.245 16.6334L200.529 13.7329L203.609 14.5465ZM199.103 17.5966L194.82 20.4971L191.738 19.6805L196.022 16.779L199.103 17.5966ZM194.596 20.6457L190.313 23.5472L187.228 22.7336L191.512 19.8321L194.596 20.6457ZM190.091 23.6948L185.807 26.5963L182.726 25.7787L187.009 22.8772L190.091 23.6948ZM185.586 26.7469L181.302 29.6484L178.214 28.8308L182.498 25.9303L185.586 26.7469ZM181.08 29.796L177.229 32.4053L174.147 31.5877L177.997 28.9833L181.08 29.796ZM176.929 33.3536L178.758 37.7477L175.67 36.9271L173.831 32.533L176.929 33.3536ZM178.854 37.98L180.878 42.8379L177.784 42.0173L175.761 37.1594L178.854 37.98ZM180.974 43.0742L182.996 47.929L179.907 47.1084L177.885 42.2496L180.974 43.0742ZM183.095 48.1593L185.118 53.0181L182.023 52.1975L180.001 47.3387L183.095 48.1593ZM185.214 53.2504L187.236 58.1082L184.143 57.2876L182.12 52.4288L185.214 53.2504ZM187.333 58.3356L189.356 63.1934L186.262 62.3728L184.24 57.515L187.333 58.3356ZM189.452 63.4207L191.473 68.2905L188.375 67.4689L186.353 62.6111L189.452 63.4207ZM191.572 68.5109L193.594 73.3697L190.5 72.5491L188.475 67.7022L191.572 68.5109ZM191.814 68.5757L194.908 69.3963L196.93 74.2551L193.837 73.4345L191.814 68.5757ZM195.151 69.4611L198.243 70.2946L200.266 75.1535L197.172 74.3319L195.151 69.4611ZM198.488 70.3455L201.582 71.1671L203.604 76.0249L200.511 75.2043L198.488 70.3455ZM201.825 71.2309L204.913 72.0515L206.936 76.9103L203.842 76.0897L201.825 71.2309ZM207.038 77.1426L209.06 82.0014L205.966 81.1799L203.944 76.322L207.038 77.1426ZM205.161 72.1163L208.255 72.9369L210.278 77.7957L207.183 76.9751L205.161 72.1163ZM208.497 73.0017L211.592 73.8223L213.614 78.6811L210.519 77.8725L208.497 73.0017ZM211.835 73.8872L214.929 74.7078L216.951 79.5656L213.857 78.745L211.835 73.8872ZM215.173 74.7815L217.782 75.4795L219.804 80.3373L217.196 79.6453C216.558 78.1188 215.879 76.4876 215.173 74.7815ZM220.92 80.4181L224.921 77.711C225.68 79.5347 226.369 81.1918 226.962 82.6137L222.96 85.3207C222.358 83.8859 221.669 82.2308 220.916 80.4191L220.92 80.4181ZM227.208 82.6874L231.545 79.752L233.43 84.2788L229.093 87.2142L227.208 82.6874ZM236.221 76.5883L240.558 73.6538C241.461 75.8225 242.125 77.4158 242.443 78.1806L238.105 81.116L236.221 76.5883ZM240.726 73.5392L245.064 70.6037L246.949 75.1315L242.607 78.0719L240.726 73.5392ZM245.229 70.4941L249.567 67.5586C250.406 69.5757 251.061 71.1482 251.451 72.0854L247.113 75.0218C246.782 74.2222 246.121 72.6328 245.229 70.4941ZM254.241 64.3959L258.579 61.4605C259.485 63.6371 260.149 65.2314 260.463 65.9872L260.101 66.2315L256.126 68.9237L254.241 64.3959ZM258.748 61.3458L263.09 58.4074L264.975 62.9351L260.637 65.8696C260.31 65.0958 259.647 63.5045 258.748 61.3428V61.3458ZM263.253 58.2967L267.254 55.5896C268.172 57.7922 268.837 59.3905 269.139 60.1164L265.138 62.8165L263.253 58.2967ZM267.176 55.4051L263.176 58.1132L261.135 53.2106L265.135 50.5035L267.176 55.4051ZM265.058 50.315L261.056 53.0231L259.016 48.1204L263.016 45.4123C263.735 47.1303 264.42 48.7785 265.058 50.308V50.315ZM262.008 42.9914C262.323 43.7485 262.633 44.493 262.938 45.2249L258.937 47.932L256.897 43.0293L260.898 40.3152L262.008 42.9914ZM260.819 40.1348L256.814 42.8349L254.773 37.9322L258.774 35.2251L260.819 40.1348ZM254.699 37.7517L252.658 32.849L256.659 30.1419L258.7 35.0436L254.699 37.7517ZM252.58 32.6666L250.538 27.7519L254.539 25.0438L256.58 29.9465L252.58 32.6666ZM250.46 27.5754L248.42 22.6728L252.421 19.9657L254.462 24.8683L250.46 27.5754ZM248.346 22.4734L246.305 17.5707L250.307 14.8636L252.347 19.7663L248.346 22.4734ZM243.534 12.2034L240.963 11.5223L244.813 8.91795L247.383 9.59996L243.534 12.2034ZM240.708 11.4545L237.627 10.6369L241.473 8.02855L244.554 8.84616L240.708 11.4545ZM237.367 10.5691L234.286 9.75151L238.134 7.14712L241.215 7.96473L237.367 10.5691ZM237.878 7.07932L234.03 9.68371L230.949 8.8661L234.798 6.25772L237.878 7.07932ZM234.542 6.19391L230.693 8.79431L227.612 7.9767L231.461 5.37231L234.542 6.19391ZM227.356 7.9089L224.275 7.09228L228.123 4.48689L231.205 5.30351L227.356 7.9089ZM224.02 7.02448L220.939 6.20687L224.787 3.60248L227.868 4.42009L224.02 7.02448ZM220.683 6.13907L217.602 5.32145L221.449 2.71706L224.53 3.53468L220.683 6.13907ZM221.195 2.64926L217.347 5.25365L217.157 5.2038L214.268 4.43604L218.117 1.83165L221.195 2.64926ZM214.009 4.36824L211.44 3.68922L215.289 1.08583L217.863 1.76385L214.009 4.36824ZM213.79 4.5168L209.506 7.41833L206.936 6.73632L211.22 3.8348L213.79 4.5168ZM209.284 7.5659L205.001 10.4674L202.431 9.78542L206.715 6.88389L209.284 7.5659ZM204.779 10.615L200.495 13.5165L197.926 12.8345L202.209 9.93398L204.779 10.615ZM200.272 13.6651L195.988 16.5656L193.418 15.8836L197.702 12.9831L200.272 13.6651ZM195.766 16.7142L191.482 19.6147L188.913 18.9337L193.197 16.0322L195.766 16.7142ZM191.264 19.7633L186.98 22.6648L184.41 21.9828L188.694 19.0813L191.264 19.7633ZM186.757 22.8124L182.474 25.7139L179.903 25.0319L184.187 22.1313L186.757 22.8124ZM182.251 25.8624L177.968 28.763L175.398 28.081L179.681 25.1804L182.251 25.8624ZM177.742 28.9155L173.892 31.5199L171.322 30.8379L175.171 28.2335L177.742 28.9155ZM173.593 32.4721L175.425 36.8623L172.816 36.1703L170.986 31.7762L173.593 32.4721ZM174.566 40.382L172.909 36.4027L175.518 37.0916L177.54 41.9495L174.932 41.2575C174.808 40.9623 174.686 40.6705 174.566 40.382ZM175.026 41.4928L177.634 42.1848L179.657 47.0436L177.048 46.3516C176.342 44.6486 175.663 43.0173 175.026 41.4928ZM179.754 47.2759L181.776 52.1347L179.167 51.4427C178.477 49.7846 177.799 48.1523 177.145 46.5839L179.754 47.2759ZM179.264 51.675L181.873 52.367L183.895 57.2258L181.29 56.5348C180.612 54.9046 179.934 53.2764 179.267 51.674L179.264 51.675ZM183.992 57.4581L186.017 62.318L183.409 61.62C182.743 60.0247 182.065 58.3924 181.386 56.7612L183.992 57.4581ZM183.503 61.8563L186.111 62.5483L188.136 67.4031L185.528 66.7111C184.875 65.1467 184.197 63.5145 183.506 61.8543L183.503 61.8563ZM185.622 66.9414L188.23 67.6334L190.253 72.4922L187.644 71.8002C187.016 70.2877 186.336 68.6544 185.625 66.9444L185.622 66.9414ZM190.35 72.7245L192.372 77.5824L189.77 76.8934L187.747 72.0356L190.35 72.7245ZM190.592 72.7884L193.686 73.61L195.708 78.4678L195.67 78.4578L192.614 77.6472L190.592 72.7884ZM193.928 73.6738L197.022 74.4944L199.045 79.3532L195.951 78.5326L193.928 73.6738ZM197.265 74.5592L200.359 75.3798L202.382 80.2386L199.287 79.418L197.265 74.5592ZM200.602 75.4446L203.696 76.2652L205.719 81.124L202.625 80.3034L200.602 75.4446ZM207.277 77.2144L210.371 78.036L212.393 82.8938L209.3 82.0732L207.277 77.2144ZM210.614 78.0999L213.702 78.9204L215.726 83.7793L212.638 82.9577L210.614 78.0999ZM213.951 78.9853L217.045 79.8059L219.067 84.6647L215.97 83.8471L213.951 78.9853ZM217.288 79.8707L219.896 80.5627C220.64 82.3484 221.322 83.9876 221.919 85.4215L219.31 84.7295L217.288 79.8707ZM191.69 81.5169L189.861 77.1227L192.47 77.8147L194.3 82.2088L191.69 81.5169ZM199.386 79.6493L202.48 80.4709L204.314 84.8681L201.22 84.0475L199.386 79.6493ZM211.226 86.6997L209.395 82.3085L212.488 83.1292L214.318 87.5243L211.226 86.6997ZM219.407 84.9608L222.016 85.6528C222.801 87.5413 223.43 89.0528 223.845 90.0469L221.236 89.356C220.868 88.4715 220.233 86.946 219.408 84.9638L219.407 84.9608Z" fill="#8459FF" fill-opacity="0.44"/>
<path d="M91.1413 195.804L100.853 189.231L100.696 188.856C100.388 188.115 97.2271 180.523 93.4086 171.351L79.5067 137.955L79.407 137.729L45.5871 128.749L0.337712 159.372L0 159.6L4.12725 169.515C10.0467 183.733 20.5416 208.944 21.3466 210.879L21.4462 211.109L21.6843 211.171C28.1466 212.887 48.6962 218.339 55.035 220.02H55.047L55.2662 220.077L55.4494 219.954L55.4604 219.946L91.1413 195.804ZM48.3814 217.223L46.5504 212.828L49.6446 213.649L51.4746 218.043L48.3814 217.223ZM45.0441 216.337L43.2151 211.943L46.3093 212.764L48.1383 217.158L45.0441 216.337ZM28.3608 211.911L26.5318 207.519L29.625 208.341L31.455 212.735L28.3608 211.911ZM25.0245 211.026L23.1945 206.632L26.1034 207.402L26.2887 207.452L28.1207 211.846L25.0245 211.026ZM38.3736 214.567L36.5436 210.172L39.6378 210.993L41.4698 215.388L38.3736 214.567ZM35.0363 213.682L33.2013 209.287L36.2995 210.111L38.1285 214.499L35.0363 213.682ZM82.1028 200.72C81.7043 199.769 81.0538 198.2 80.218 196.193L84.5534 193.261C85.46 195.436 86.1234 197.032 86.4382 197.787L82.1028 200.72ZM64.0755 212.915L62.1907 208.388L66.5292 205.453C67.2514 207.189 67.889 208.72 68.414 209.98L64.0755 212.915ZM53.5158 214.259L57.5166 211.551L59.4014 216.078L55.3996 218.786L53.5158 214.259ZM78.8193 138.897L80.7041 143.424L76.7034 146.132L74.8186 141.606L78.8193 138.897ZM33.8907 168.096L31.3215 167.415L35.1708 164.81L37.74 165.492L33.8907 168.096ZM34.599 168.821L38.5997 166.114C38.9335 166.912 39.5959 168.507 40.4845 170.641L36.4888 173.348L34.599 168.821ZM38.7681 165.999L43.1065 163.065L44.9904 167.592L40.6539 170.527C39.7573 168.373 39.0948 166.783 38.7691 165.999H38.7681ZM43.2759 162.949L47.6133 160.014C48.1234 161.24 48.763 162.775 49.4982 164.541L45.1557 167.477L43.2759 162.949ZM37.9602 165.342L35.393 164.662L39.6766 161.761L42.2468 162.443L37.9602 165.342ZM35.135 164.593L32.0537 163.776L36.3374 160.874L39.4186 161.692L35.135 164.593ZM34.9158 164.741L31.0665 167.346L27.9852 166.529L31.8345 163.923L34.9158 164.741ZM30.7666 168.298C31.0964 169.088 31.7359 170.627 32.5966 172.693L29.5024 171.872L27.6724 167.478L30.7666 168.298ZM31.0097 168.362L33.6187 169.054L35.4478 173.45L32.8387 172.758C31.9989 170.739 31.3614 169.208 31.0097 168.363V168.362ZM36.5625 173.535L40.5632 170.826C41.161 172.25 41.8464 173.906 42.6045 175.729L38.6037 178.436L36.5625 173.535ZM40.7316 170.714L45.07 167.778L47.1103 172.681L42.7728 175.616C42.0137 173.794 41.3243 172.136 40.7316 170.715V170.714ZM45.2384 167.664L49.5759 164.729L51.6171 169.63L47.2796 172.565L45.2384 167.664ZM47.7817 159.9L52.1192 156.967L54.004 161.493L49.6665 164.429C48.9293 162.659 48.2908 161.125 47.7817 159.901V159.9ZM42.466 162.293L39.8968 161.611L44.1804 158.711L46.7506 159.393L42.466 162.293ZM39.6408 161.543L36.5595 160.727L40.8432 157.825L43.9244 158.643L39.6408 161.543ZM36.3045 160.656L33.2232 159.838L37.5069 156.937L40.5882 157.754L36.3045 160.656ZM36.0853 160.804L31.8017 163.705L28.7184 162.891L33.0021 159.99L36.0853 160.804ZM31.5795 163.857L27.7302 166.462L24.649 165.641L28.4983 163.037L31.5795 163.857ZM27.4303 167.413L29.2594 171.808L26.1652 170.988L24.3352 166.593L27.4303 167.413ZM29.356 172.041L31.3783 176.898L28.2841 176.078L26.2618 171.219L29.356 172.041ZM29.5981 172.104L32.6933 172.926C33.28 174.335 33.9624 175.976 34.7156 177.784L31.6214 176.963L29.5981 172.104ZM32.9353 172.99L35.5444 173.682C36.1312 175.093 36.8145 176.734 37.5667 178.541L34.9576 177.843L32.9353 172.99ZM38.6804 178.626L42.6822 175.918C43.3197 177.452 44.0061 179.099 44.7234 180.822L40.7226 183.529L38.6804 178.626ZM42.8505 175.805L47.188 172.869L49.2292 177.772L44.8927 180.707C44.1755 178.985 43.4891 177.337 42.8515 175.805H42.8505ZM47.3563 172.756L51.6938 169.82C52.3423 171.377 53.0257 173.02 53.735 174.723L49.3975 177.658L47.3563 172.756ZM51.8621 169.706L56.2006 166.771C56.8382 168.304 57.5245 169.952 58.2418 171.674L53.9033 174.609C53.196 172.906 52.5107 171.261 51.8631 169.706H51.8621ZM51.7844 169.518L49.7432 164.615L54.0817 161.681C54.6734 163.102 55.3628 164.76 56.1219 166.583L51.7844 169.518ZM52.2825 156.855L56.621 153.92L58.5048 158.446L55.4455 160.517L54.1673 161.382C53.2688 159.207 52.6053 157.613 52.2875 156.852L52.2825 156.855ZM46.9678 159.248L44.4026 158.562L48.6863 155.662L51.2555 156.343L46.9678 159.248ZM44.1426 158.498L41.0713 157.678L45.355 154.773L48.4362 155.591L44.1426 158.498ZM40.8053 157.613L37.7241 156.796L42.0077 153.895L45.089 154.712L40.8053 157.613ZM37.4691 156.728L34.3968 155.908L38.6804 153.006L41.7617 153.824L37.4691 156.728ZM37.2499 156.876L32.9662 159.778L29.886 158.961L34.1696 156.059L37.2499 156.876ZM32.7441 159.925L28.4604 162.827L25.3792 162.009L29.6628 159.108L32.7441 159.925ZM28.2373 162.975L24.388 165.58L21.3067 164.762L25.161 162.152L28.2373 162.975ZM24.0931 166.529L25.9231 170.926L22.8289 170.105L20.9989 165.71L24.0931 166.529ZM26.0197 171.155L28.042 176.011L24.9478 175.19L22.9255 170.333L26.0197 171.155ZM28.1386 176.245L30.1609 181.104L27.0667 180.284L25.0445 175.425L28.1386 176.245ZM28.3807 176.309L31.4749 177.131L33.5002 181.994L30.407 181.172L28.3807 176.309ZM31.718 177.195L34.8122 178.016L36.8345 182.874L33.7403 182.053L31.718 177.195ZM35.0543 178.08L37.6633 178.772L39.6856 183.631L37.0775 182.939L35.0543 178.08ZM40.8013 183.717L44.8021 181.009C45.4616 182.593 46.145 184.236 46.8433 185.912L42.8416 188.619C42.1442 186.944 41.4598 185.301 40.8013 183.717ZM44.9704 180.897L49.3079 177.961L49.7602 179.047C50.2782 180.293 50.8101 181.57 51.3491 182.863L47.0116 185.798C46.3143 184.122 45.6289 182.478 44.9704 180.897ZM49.9445 178.97L49.4762 177.847L53.8147 174.914C54.4772 176.51 55.1606 178.15 55.8549 179.817L51.5175 182.752C50.9835 181.467 50.4575 180.199 49.9445 178.969V178.97ZM53.983 174.798L58.3205 171.862C58.98 173.446 59.6634 175.089 60.3617 176.765L56.0233 179.7L53.983 174.798ZM58.4889 171.749L62.8263 168.813L64.8675 173.718L60.5301 176.653L58.4889 171.749ZM58.4111 171.561L56.3699 166.657L60.7074 163.723L62.7486 168.626L58.4111 171.561ZM56.2912 166.469C55.5321 164.644 54.8418 162.987 54.251 161.566L55.562 160.679L58.5885 158.631L60.6297 163.534L56.2912 166.469ZM56.7943 153.806L61.1318 150.871L63.0166 155.397L58.6791 158.333L56.7943 153.806ZM51.4786 156.199L48.9094 155.517L53.1931 152.615L55.7633 153.297L51.4786 156.199ZM48.6534 155.449L45.5721 154.632L49.8558 151.73L52.937 152.548L48.6534 155.449ZM45.3171 154.564L42.2359 153.746L46.5195 150.846L49.6008 151.662L45.3171 154.564ZM41.9798 153.676L38.8986 152.859L43.1823 149.958L46.2635 150.776L41.9798 153.676ZM38.6436 152.791L35.5623 151.974L39.846 149.073L42.9272 149.89L38.6436 152.791ZM38.4244 152.939L34.1407 155.841L31.0595 155.023L35.3432 152.122L38.4244 152.939ZM33.9176 155.989L29.6339 158.89L26.5527 158.072L30.8364 155.172L33.9176 155.989ZM29.4158 159.038L25.1321 161.938L22.0439 161.121L26.3276 158.22L29.4158 159.038ZM24.91 162.087L21.0606 164.691L17.9794 163.874L21.8287 161.269L24.91 162.087ZM20.7568 165.641L22.5858 170.036L19.4916 169.215L17.6606 164.823L20.7568 165.641ZM22.6825 170.268L24.7047 175.126L21.6165 174.305L19.5932 169.447L22.6825 170.268ZM24.8014 175.358L26.8257 180.219L23.7305 179.401L21.7072 174.542L24.8014 175.358ZM26.9253 180.451L28.9476 185.309L25.8494 184.486L23.8271 179.628L26.9253 180.451ZM27.1674 180.515L30.2615 181.336L32.2838 186.194L29.1956 185.374L27.1674 180.515ZM30.5046 181.4L33.5978 182.221L35.6171 187.079L32.5229 186.258L30.5046 181.4ZM33.8409 182.286L36.9351 183.106L38.9574 187.965L35.8632 187.144L33.8409 182.286ZM37.1782 183.171L39.7862 183.863C40.4397 185.431 41.1171 187.06 41.8095 188.721L39.2004 188.029C38.5051 186.37 37.8267 184.74 37.1742 183.171H37.1782ZM42.9242 188.807L46.925 186.1L48.9662 191.002L47.6711 191.876L44.9565 193.709L42.9242 188.807ZM47.0893 185.982L51.4318 183.051C52.1052 184.666 52.7896 186.31 53.473 187.953L49.1306 190.889L47.0893 185.982ZM51.5952 182.933L55.9336 179.999L57.9738 184.902L53.6364 187.837C52.952 186.195 52.2686 184.552 51.5952 182.937V182.933ZM56.102 179.883L60.4394 176.947C61.1118 178.563 61.7962 180.208 62.4806 181.85L58.1432 184.785C57.4578 183.145 56.7754 181.506 56.102 179.887V179.883ZM60.6078 176.834L64.9462 173.898C65.6177 175.514 66.303 177.159 66.9864 178.801L62.649 181.74L60.6078 176.834ZM67.0651 178.988L69.1053 183.891L64.7679 186.826L62.7267 181.924L67.0651 178.988ZM67.2335 178.875L71.5709 175.939C72.2553 177.583 72.9387 179.23 73.6122 180.842L69.2737 183.781C68.6023 182.167 67.9179 180.522 67.2335 178.879V178.875ZM67.1548 178.687C66.4704 177.044 65.787 175.397 65.1146 173.785L69.452 170.849C70.1245 172.465 70.8089 174.108 71.4932 175.752C70.0607 176.724 68.6053 177.706 67.1548 178.691V178.687ZM65.0359 173.602C64.3385 171.926 63.6541 170.284 62.9947 168.699L66.9107 166.049L67.3331 165.764C67.9926 167.347 68.677 168.993 69.3733 170.667L65.0359 173.602ZM66.7992 165.884L62.914 168.511L60.8757 163.607L65.2132 160.672C65.8538 162.21 66.5391 163.856 67.2544 165.575L66.7992 165.884ZM60.7961 163.42C60.0389 161.6 59.3486 159.944 58.7548 158.517L63.0923 155.582C63.69 157.019 64.3794 158.673 65.1335 160.484L60.7961 163.42ZM61.2942 150.757L65.6316 147.822C65.9484 148.581 66.6119 150.176 67.5164 152.349L63.1869 155.28L61.2942 150.757ZM55.9794 153.15L53.4092 152.469L54.3526 151.831L57.6959 149.567L60.2661 150.249L55.9794 153.15ZM54.2411 151.665L53.1532 152.401L50.0789 151.582L54.3626 148.681L57.4438 149.499L54.2411 151.665ZM49.8169 151.516L46.7357 150.698L51.0333 147.794L54.1135 148.61L49.8169 151.516ZM46.4807 150.63L43.3994 149.813L47.6831 146.912L50.7643 147.73L46.4807 150.63ZM43.1434 149.745L40.0622 148.927L44.3458 146.027L47.4261 146.844L43.1434 149.745ZM39.8071 148.859L36.7259 148.043L41.0095 145.141L44.0908 145.959L39.8071 148.859ZM39.588 149.008L35.3043 151.909L32.2251 151.084L36.5087 148.182L39.588 149.008ZM35.0812 152.057L30.7975 154.959L27.7222 154.137L32.0059 151.236L35.0812 152.057ZM30.5813 155.103L26.2977 158.004L23.2164 157.186L27.5001 154.286L30.5813 155.103ZM26.0755 158.152L21.7919 161.053L18.7106 160.236L22.9943 157.335L26.0755 158.152ZM21.5687 161.201L17.7204 163.806L14.6392 162.989L18.4885 160.384L21.5687 161.201ZM17.4195 164.758L19.2545 169.153L16.1554 168.334L14.3263 163.939L17.4195 164.758ZM19.3462 169.384L21.3685 174.243L18.2743 173.419L16.252 168.561L19.3462 169.384ZM21.4651 174.475L23.4874 179.333L20.3942 178.513L18.3709 173.654L21.4651 174.475ZM23.584 179.566L25.6073 184.424L22.5131 183.603L20.4908 178.745L23.584 179.566ZM25.7029 184.656L27.7222 189.515L24.634 188.694L22.6117 183.835L25.7029 184.656ZM25.946 184.721L29.0402 185.541L31.0625 190.399L27.9683 189.578L25.946 184.721ZM29.2823 185.605L32.3765 186.427L34.3968 191.284L31.3086 190.469L29.2823 185.605ZM32.6195 186.49L35.7137 187.311L37.736 192.17L34.6418 191.349L32.6195 186.49ZM35.9558 187.378L39.05 188.198C39.7165 189.8 40.3939 191.426 41.0723 193.057L37.9831 192.235L35.9558 187.378ZM39.2931 188.263L41.9011 188.955L43.9244 193.813L41.3154 193.121C40.637 191.491 39.9595 189.862 39.2931 188.261V188.263ZM45.0392 193.9L47.7827 192.042C48.1722 191.78 48.5926 191.495 49.0399 191.192L51.0811 196.094L47.0804 198.802L45.0392 193.9ZM49.2083 191.078L53.5467 188.143L55.5869 193.045L51.2495 195.981L49.2083 191.078ZM53.7151 188.029L58.0525 185.094C58.7359 186.734 59.4183 188.375 60.0937 189.996L55.7553 192.93L53.7151 188.029ZM58.2209 184.98L62.5583 182.044C63.2437 183.689 63.9271 185.335 64.5995 186.946L60.2621 189.882C59.5867 188.259 58.9033 186.618 58.2209 184.978V184.98ZM64.6812 187.133C65.3786 188.81 66.063 190.452 66.7214 192.035L62.384 194.971L60.3398 190.07L64.6812 187.133ZM64.8496 187.019L69.1841 184.087C69.8814 185.764 70.5658 187.407 71.2253 188.989L66.8868 191.925L64.8496 187.019ZM69.3554 183.969L73.6928 181.033C74.3902 182.709 75.0746 184.351 75.7341 185.936L71.3936 188.874C70.7341 187.289 70.0498 185.645 69.3524 183.969H69.3554ZM73.8612 180.92L78.1997 177.984C78.897 179.661 79.5814 181.304 80.2399 182.887L75.9024 185.822C75.2409 184.237 74.5556 182.592 73.8582 180.92H73.8612ZM73.7835 180.732L71.7423 175.83L76.0797 172.894L78.121 177.797L73.7835 180.732ZM71.6646 175.641L69.6234 170.739L73.9608 167.804C74.6343 169.42 75.3177 171.062 76.002 172.707L71.6646 175.641ZM69.5447 170.556L67.5045 165.653L71.8419 162.718L73.8831 167.621L69.5447 170.556ZM67.4258 165.471L65.3786 160.556L69.716 157.621C70.3536 159.153 71.04 160.801 71.7572 162.523L67.4258 165.471ZM65.3068 160.381C64.5497 158.562 63.8604 156.904 63.2626 155.471L67.6011 152.536C68.1918 153.957 68.8822 155.613 69.6413 157.438L65.3068 160.381ZM65.8049 147.718L70.1434 144.782C70.4582 145.538 71.1217 147.133 72.0282 149.309L67.6908 152.231L65.8049 147.718ZM60.4902 150.111L57.92 149.429L62.2037 146.528L64.7809 147.195L60.4902 150.111ZM57.665 149.361L54.5838 148.544L58.8674 145.643L61.9487 146.46L57.665 149.361ZM54.3277 148.477L51.2465 147.659L55.5301 144.757L58.6114 145.575L54.3277 148.477ZM50.9915 147.591L47.9102 146.773L52.1939 143.872L55.2751 144.69L50.9915 147.591ZM47.6552 146.697L44.5739 145.879L48.8576 142.979L51.9388 143.795L47.6552 146.697ZM44.3189 145.811L41.2377 144.994L45.5213 142.093L48.6026 142.911L44.3189 145.811ZM40.9816 144.926L37.9004 144.104L42.1841 141.203L45.2653 142.02L40.9816 144.926ZM40.7635 145.074L36.4798 147.976L33.3986 147.158L37.6822 144.257L40.7635 145.074ZM36.2567 148.124L31.973 151.025L28.8918 150.207L33.1754 147.306L36.2567 148.124ZM31.7509 151.174L27.4672 154.074L24.386 153.257L28.6696 150.356L31.7509 151.174ZM27.2451 154.223L22.9614 157.123L19.8802 156.307L24.1638 153.405L27.2451 154.223ZM22.7412 157.266L18.4576 160.167L15.3694 159.351L19.653 156.449L22.7412 157.266ZM18.2354 160.315L14.3831 162.921L11.3019 162.104L15.1512 159.498L18.2354 160.315ZM14.0863 163.872L15.9163 168.267L12.8211 167.446L10.9861 163.049L14.0863 163.872ZM16.0129 168.499L18.0352 173.357L14.941 172.536L12.9177 167.677L16.0129 168.499ZM18.1318 173.584L20.1511 178.448L17.0569 177.627L15.0336 172.769L18.1318 173.584ZM20.2507 178.68L22.273 183.539L19.1788 182.717L17.1565 177.86L20.2507 178.68ZM22.3697 183.77L24.3919 188.629L21.2977 187.809L19.2755 182.95L22.3697 183.77ZM24.4886 188.862L26.5119 193.719L23.4167 192.899L21.3944 188.04L24.4886 188.862ZM24.7316 188.925L27.8219 189.746L29.8441 194.605L26.7499 193.784L24.7316 188.925ZM28.0679 189.811L31.1621 190.631L33.1844 195.49L30.0962 194.669L28.0679 189.811ZM31.4052 190.696L34.4934 191.517L36.5167 196.376L33.4245 195.554L31.4052 190.696ZM34.7415 191.581L37.8357 192.402L39.8579 197.26L36.7637 196.439L34.7415 191.581ZM38.0747 192.463L41.1709 193.287L43.1922 198.146L40.098 197.326L38.0747 192.463ZM41.412 193.348L44.021 194.04L46.0433 198.899L43.4343 198.207L41.412 193.348ZM47.1581 198.985L51.1588 196.278L53.2 201.18L49.1993 203.888C48.5428 202.305 47.8554 200.662 47.1581 198.988V198.985ZM51.3322 196.166L55.6656 193.231L57.7078 198.133L53.3694 201.069C52.7099 199.486 52.0295 197.847 51.3322 196.166ZM55.838 193.117L60.1754 190.182L62.2166 195.084L57.8792 198.02C57.2157 196.435 56.5303 194.791 55.834 193.117H55.838ZM62.2904 195.272L64.3316 200.174L59.9991 203.11C59.3595 201.573 58.6732 199.926 57.9579 198.207L62.2904 195.272ZM62.4587 195.158L66.7972 192.223C67.5144 193.946 68.1998 195.593 68.8384 197.125L64.4999 200.061C63.8504 198.499 63.166 196.855 62.4587 195.155V195.158ZM66.9655 192.109L71.303 189.173C72.0202 190.896 72.7056 192.543 73.3442 194.075L69.0067 197.011L66.9655 192.109ZM71.4713 189.06L75.8098 186.125L77.85 191.027L73.5125 193.959L71.4713 189.06ZM75.9781 186.01L80.3156 183.074C81.0328 184.798 81.7182 186.445 82.3568 187.977L78.0183 190.913L75.9781 186.01ZM80.4839 182.961L84.8214 180.025C85.5387 181.748 86.225 183.396 86.8626 184.928L82.5252 187.863C81.8866 186.331 81.2012 184.686 80.4839 182.961ZM80.4052 182.773C79.7467 181.19 79.0624 179.546 78.365 177.871L82.7025 174.935C83.3998 176.611 84.0842 178.255 84.7437 179.838L80.4052 182.773ZM78.2863 177.682C77.6139 176.068 76.9295 174.423 76.2451 172.781L80.5836 169.845C81.268 171.488 81.9523 173.135 82.6248 174.748L78.2863 177.682ZM76.1674 172.597L74.1262 167.694L78.4646 164.759L80.5049 169.662L76.1674 172.597ZM74.0455 167.502C73.3482 165.826 72.6628 164.182 72.0043 162.599L76.3427 159.664C77.0002 161.245 77.6866 162.892 78.383 164.567L74.0455 167.502ZM71.9266 162.417L69.8854 157.514L74.2258 154.574C74.8644 156.106 75.5498 157.753 76.267 159.476L71.9266 162.417ZM69.8067 157.327C69.0466 155.499 68.3572 153.843 67.7665 152.424C69.2926 151.383 70.7511 150.401 72.1069 149.489C72.6986 150.908 73.388 152.566 74.1481 154.391L69.8067 157.327ZM70.3048 144.664L74.6422 141.728L76.527 146.255L72.1896 149.19C71.284 146.989 70.6196 145.391 70.3128 144.655L70.3048 144.664ZM64.9891 147.057L62.4199 146.375L66.7035 143.473L69.2737 144.155L64.9891 147.057ZM62.1718 146.298L59.0906 145.48L63.3742 142.58L66.4555 143.397C65.1166 144.304 63.6771 145.28 62.1718 146.298ZM58.8355 145.412L55.7543 144.596L60.0379 141.694L63.1192 142.512L58.8355 145.412ZM55.4983 144.528L52.417 143.71L56.7007 140.809L59.7819 141.627L55.4983 144.528ZM52.162 143.643L49.0807 142.825L53.3644 139.924L56.4456 140.741L52.162 143.643ZM48.8247 142.757L45.7435 141.94L50.0271 139.039L53.1084 139.856L48.8247 142.757ZM45.4885 141.872L42.4072 141.054L46.6909 138.154L49.7721 138.971L45.4885 141.872ZM42.1512 140.986L39.0699 140.17L43.3536 137.268L46.4348 138.086L42.1512 140.986ZM41.932 141.135L37.6484 144.036L34.5671 143.219L38.8508 140.317L41.932 141.135ZM37.4262 144.184L33.1426 147.086L30.0613 146.268L34.345 143.366L37.4262 144.184ZM32.9204 147.233L28.6367 150.135L25.5555 149.317L29.8392 146.417L32.9204 147.233ZM28.4136 150.286L24.1299 153.187L21.0477 152.367L25.3314 149.466L28.4136 150.286ZM23.9078 153.335L19.6241 156.237L16.5429 155.419L20.8265 152.518L23.9078 153.335ZM19.402 156.384L15.1183 159.286L12.0331 158.462L16.3167 155.561L19.402 156.384ZM14.8962 159.434L11.0469 162.039L7.96461 161.221L11.8149 158.616L14.8962 159.434ZM10.746 162.99L12.58 167.382L9.48581 166.562L7.65679 162.167L10.746 162.99ZM12.6727 167.618L14.6949 172.475L11.6007 171.655L9.57846 166.796L12.6727 167.618ZM14.7916 172.708L16.8139 177.566L13.7207 176.745L11.6974 171.883L14.7916 172.708ZM16.9105 177.793L18.9328 182.652L15.8445 181.83L13.8213 176.972L16.9105 177.793ZM19.0294 182.883L21.0527 187.742L17.9595 186.923L15.9372 182.064L19.0294 182.883ZM21.1473 187.976L23.1696 192.834L20.0754 192.013L18.0591 187.155L21.1473 187.976ZM23.2662 193.061L25.2885 197.919L22.1943 197.098L20.172 192.241L23.2662 193.061ZM23.5083 193.125L26.6035 193.947L28.6258 198.804L25.5306 197.989L23.5083 193.125ZM26.8456 194.01L29.9398 194.832L31.9621 199.69L28.8679 198.869L26.8456 194.01ZM30.1819 194.896L33.276 195.717L35.2993 200.575L32.2051 199.76L30.1819 194.896ZM33.5191 195.781L36.6133 196.602L38.6356 201.461L35.5414 200.639L33.5191 195.781ZM36.8554 196.667L39.9496 197.487L41.9719 202.346L38.8797 201.53L36.8554 196.667ZM40.1927 197.551L43.2869 198.373L45.3091 203.231L42.2149 202.41L40.1927 197.551ZM43.5309 198.446L46.14 199.138L48.1623 203.996L45.5542 203.3L43.5309 198.446ZM49.277 204.082L53.2787 201.375C53.996 203.097 54.6814 204.744 55.319 206.278L51.3182 208.985C50.6787 207.443 49.9933 205.797 49.277 204.078V204.082ZM53.4471 201.261L57.7845 198.326C58.5008 200.045 59.1862 201.692 59.8258 203.228L55.4873 206.163C54.8497 204.627 54.1634 202.979 53.4471 201.257V201.261ZM59.8995 203.412C60.6556 205.227 61.344 206.882 61.9407 208.315L57.6082 211.25L55.567 206.347L59.8995 203.412ZM60.0678 203.298L64.4063 200.363L66.4465 205.265L62.109 208.2L60.0678 203.298ZM64.5816 200.248L68.9191 197.313C69.6782 199.137 70.3685 200.796 70.9603 202.216L66.6218 205.151L64.5816 200.248ZM69.0844 197.199L73.4219 194.264L75.4631 199.166L71.1256 202.102L69.0844 197.199ZM73.5902 194.15L77.9307 191.215C78.6848 193.026 79.3732 194.68 79.9709 196.117L75.6334 199.053C75.0417 197.63 74.3493 195.972 73.5902 194.15ZM78.0971 191.101L82.4345 188.166C83.1946 189.99 83.884 191.647 84.4757 193.067L80.1383 196.003L78.0971 191.101ZM82.6029 188.051L86.9413 185.115C87.7004 186.941 88.3908 188.598 88.9815 190.018L84.6441 192.954L82.6029 188.051ZM87.1097 185.002L91.4471 182.066L93.4883 186.969L89.1499 189.904L87.1097 185.002ZM87.031 184.814C86.3934 183.281 85.707 181.634 84.9898 179.912L89.3282 176.976L91.3684 181.879L87.031 184.814ZM84.912 179.723C84.2536 178.141 83.5682 176.496 82.8708 174.822L87.2083 171.886L89.2495 176.788L84.912 179.723ZM82.7931 174.633C82.1197 173.018 81.4363 171.375 80.7519 169.73L85.0894 166.795L87.1306 171.698L82.7931 174.633ZM80.6742 169.548L78.633 164.644L82.9705 161.709L85.0117 166.612L80.6742 169.548ZM78.5543 164.463L76.5141 159.56L80.8515 156.625L82.8928 161.527L78.5543 164.463ZM76.4364 159.36C75.7191 157.636 75.0327 155.989 74.3952 154.457L78.7336 151.522L80.7738 156.424L76.4364 159.36ZM74.3165 154.275C73.5564 152.448 72.866 150.791 72.2753 149.372C73.8901 148.28 75.3565 147.287 76.6127 146.436L78.6539 151.339L74.3165 154.275ZM69.5038 144.005L66.9336 143.323L71.2173 140.421L73.7865 141.103L69.5038 144.005ZM66.6736 143.249L63.5934 142.431L67.877 139.53L70.9583 140.347L66.6736 143.249ZM63.3374 142.363L60.2561 141.546L64.5398 138.645L67.621 139.463L63.3374 142.363ZM60.0011 141.478L56.9198 140.66L61.2035 137.76L64.2847 138.577L60.0011 141.478ZM56.6638 140.594L53.5826 139.776L57.8662 136.874L60.9475 137.692L56.6638 140.594ZM53.3276 139.708L50.2463 138.891L54.53 135.989L57.6112 136.807L53.3276 139.708ZM49.9943 138.82L46.913 138.002L51.1967 135.101L54.2779 135.918L49.9943 138.82ZM46.658 137.934L43.5767 137.125L47.8604 134.224L50.9407 135.041L46.658 137.934ZM43.3207 137.049L40.2395 136.232L44.5231 133.331L47.5825 134.142L47.6044 134.148L43.3207 137.049ZM43.1016 137.197L38.8179 140.099L35.7367 139.281L40.0203 136.38L43.1016 137.197ZM38.5958 140.247L34.3121 143.148L31.2308 142.33L35.5145 139.429L38.5958 140.247ZM34.0899 143.296L29.8063 146.197L26.726 145.383L31.0097 142.482L34.0899 143.296ZM29.5841 146.346L25.3005 149.246L22.2192 148.43L26.5029 145.528L29.5841 146.346ZM25.0773 149.395L20.7937 152.296L17.7094 151.483L21.9931 148.581L25.0773 149.395ZM20.5715 152.444L16.2879 155.345L13.2066 154.528L17.4903 151.626L20.5715 152.444ZM16.0667 155.496L11.783 158.398L8.69483 157.58L12.9785 154.679L16.0667 155.496ZM11.5609 158.545L7.70959 161.154L4.62834 160.337L8.47766 157.732L11.5609 158.545ZM7.40973 162.103L9.23875 166.497L6.15053 165.676L4.31155 161.282L7.40973 162.103ZM9.33538 166.729L11.3587 171.587L8.26447 170.766L6.24219 165.909L9.33538 166.729ZM11.4553 171.823L13.4766 176.678L10.3884 175.858L8.36608 170.999L11.4553 171.823ZM13.5762 176.908L15.5985 181.767L12.5043 180.947L10.482 176.088L13.5762 176.908ZM15.6951 182L17.7174 186.857L14.6242 186.037L12.6009 181.178L15.6951 182ZM17.814 187.085L19.8373 191.943L16.7431 191.122L14.7208 186.264L17.814 187.085ZM19.933 192.17L21.9542 197.04L18.8561 196.218L16.8338 191.36L19.933 192.17ZM22.0529 197.26L24.0751 202.119L20.981 201.298L18.9557 196.451L22.0529 197.26ZM22.2949 197.325L25.3891 198.145L27.4114 203.004L24.3182 202.184L22.2949 197.325ZM25.6322 198.21L28.7244 199.044L30.7467 203.903L27.6525 203.081L25.6322 198.21ZM28.9685 199.095L32.0627 199.916L34.085 204.774L30.9918 203.953L28.9685 199.095ZM32.3057 199.98L35.394 200.801L37.4172 205.659L34.3231 204.839L32.3057 199.98ZM37.5189 205.892L39.5411 210.751L36.4469 209.929L34.4247 205.071L37.5189 205.892ZM35.642 200.865L38.7362 201.686L40.7585 206.545L37.6643 205.724L35.642 200.865ZM38.9783 201.751L42.0725 202.571L44.0948 207.43L40.9996 206.622L38.9783 201.751ZM42.3156 202.636L45.4098 203.457L47.432 208.315L44.3378 207.494L42.3156 202.636ZM45.6538 203.531L48.2629 204.229L50.2852 209.086L47.6771 208.394C47.0385 206.868 46.3601 205.237 45.6538 203.531ZM51.4009 209.167L55.4016 206.46C56.1607 208.284 56.8501 209.941 57.4428 211.363L53.4411 214.07C52.8394 212.635 52.15 210.98 51.3969 209.168L51.4009 209.167ZM57.6889 211.437L62.0264 208.501L63.9112 213.028L59.5737 215.963L57.6889 211.437ZM66.7015 205.337L71.039 202.403C71.9415 204.572 72.606 206.165 72.9238 206.93L68.5863 209.865L66.7015 205.337ZM71.2073 202.288L75.5448 199.353L77.4296 203.881L73.0882 206.821L71.2073 202.288ZM75.7102 199.243L80.0476 196.308C80.8874 198.325 81.5419 199.897 81.9324 200.835L77.594 203.771C77.2632 202.971 76.6018 201.382 75.7102 199.243ZM84.7218 193.145L89.0602 190.21C89.9658 192.386 90.6302 193.981 90.944 194.736L90.5824 194.981L86.6066 197.673L84.7218 193.145ZM89.2286 190.095L93.571 187.157L95.4558 191.684L91.1184 194.619C90.7906 193.845 90.1282 192.254 89.2286 190.092V190.095ZM93.7344 187.046L97.7351 184.339C98.6526 186.541 99.3181 188.14 99.6199 188.866L95.6192 191.566L93.7344 187.046ZM97.6574 184.154L93.6567 186.862L91.6155 181.96L95.6162 179.253L97.6574 184.154ZM95.5385 179.064L91.5368 181.772L89.4966 176.87L93.4973 174.161C94.2156 175.879 94.9009 177.528 95.5385 179.057V179.064ZM92.4891 171.741C92.8039 172.498 93.1138 173.242 93.4186 173.974L89.4179 176.681L87.3776 171.778L91.3794 169.064L92.4891 171.741ZM91.2997 168.884L87.295 171.584L85.2537 166.681L89.2545 163.974L91.2997 168.884ZM85.18 166.501L83.1388 161.598L87.1395 158.891L89.1808 163.793L85.18 166.501ZM83.0611 161.416L81.0189 156.501L85.0196 153.793L87.0609 158.696L83.0611 161.416ZM80.9412 156.325L78.901 151.422L82.9017 148.715L84.9429 153.617L80.9412 156.325ZM78.8273 151.222L76.786 146.32L80.7878 143.613L82.828 148.515L78.8273 151.222ZM74.0146 140.952L71.4444 140.271L75.2937 137.667L77.8639 138.349L74.0146 140.952ZM71.1894 140.204L68.1082 139.386L71.9535 136.778L75.0347 137.595L71.1894 140.204ZM67.8481 139.318L64.7669 138.501L68.6152 135.896L71.6965 136.714L67.8481 139.318ZM68.3592 135.828L64.5109 138.433L61.4296 137.615L65.279 135.007L68.3592 135.828ZM65.0229 134.943L61.1736 137.543L58.0934 136.726L61.9417 134.121L65.0229 134.943ZM57.8373 136.658L54.7561 135.841L58.6044 133.236L61.6857 134.053L57.8373 136.658ZM54.5011 135.774L51.4198 134.956L55.2681 132.352L58.3494 133.169L54.5011 135.774ZM51.1638 134.888L48.0826 134.071L51.9299 131.466L55.0111 132.284L51.1638 134.888ZM51.6758 131.398L47.8275 134.003L47.6382 133.953L44.7493 133.185L48.5976 130.581L51.6758 131.398ZM44.4903 133.117L41.9211 132.438L45.7704 129.835L48.3436 130.513L44.4903 133.117ZM44.2711 133.266L39.9874 136.167L37.4172 135.485L41.7009 132.584L44.2711 133.266ZM39.7653 136.315L35.4816 139.217L32.9124 138.535L37.1961 135.633L39.7653 136.315ZM35.2595 139.364L30.9758 142.266L28.4066 141.584L32.6903 138.683L35.2595 139.364ZM30.7527 142.414L26.469 145.315L23.8988 144.633L28.1825 141.732L30.7527 142.414ZM26.2469 145.463L21.9632 148.364L19.394 147.683L23.6777 144.781L26.2469 145.463ZM21.745 148.512L17.4614 151.414L14.8912 150.732L19.1748 147.83L21.745 148.512ZM17.2382 151.562L12.9546 154.463L10.3844 153.781L14.668 150.88L17.2382 151.562ZM12.7324 154.612L8.44877 157.512L5.87857 156.83L10.1622 153.93L12.7324 154.612ZM8.22263 157.665L4.37331 160.269L1.80312 159.587L5.65243 156.983L8.22263 157.665ZM4.07346 161.221L5.90547 165.611L3.29742 164.919L1.4674 160.525L4.07346 161.221ZM5.04675 169.131L3.39007 165.152L5.99911 165.841L8.0214 170.699L5.41335 170.007C5.28915 169.711 5.16695 169.42 5.04675 169.131ZM5.50699 170.242L8.11504 170.934L10.1383 175.793L7.52927 175.101C6.82297 173.398 6.14356 171.766 5.50699 170.242ZM10.235 176.025L12.2572 180.884L9.64819 180.192C8.95782 178.534 8.28041 176.901 7.6259 175.333L10.235 176.025ZM9.74482 180.424L12.3539 181.116L14.3762 185.975L11.7711 185.284C11.0927 183.654 10.4153 182.026 9.74781 180.423L9.74482 180.424ZM14.4728 186.207L16.4981 191.067L13.89 190.369C13.2235 188.774 12.5461 187.142 11.8667 185.51L14.4728 186.207ZM13.9836 190.605L16.5917 191.297L18.617 196.152L16.0089 195.46C15.3564 193.896 14.678 192.264 13.9866 190.603L13.9836 190.605ZM16.1026 195.691L18.7106 196.383L20.7339 201.241L18.1249 200.549C17.4972 199.037 16.8168 197.404 16.1056 195.694L16.1026 195.691ZM20.8305 201.474L22.8528 206.331L20.2507 205.643L18.2285 200.785L20.8305 201.474ZM21.0726 201.538L24.1668 202.359L26.1891 207.217L26.1512 207.207L23.0949 206.396L21.0726 201.538ZM24.4089 202.423L27.5031 203.244L29.5264 208.102L26.4322 207.282L24.4089 202.423ZM27.7461 203.308L30.8403 204.129L32.8626 208.988L29.7684 208.167L27.7461 203.308ZM31.0834 204.194L34.1766 205.014L36.1999 209.873L33.1057 209.053L31.0834 204.194ZM37.7579 205.964L40.8521 206.785L42.8744 211.643L39.7812 210.822L37.7579 205.964ZM41.0952 206.849L44.1834 207.67L46.2067 212.528L43.1185 211.707L41.0952 206.849ZM44.4315 207.734L47.5257 208.555L49.548 213.414L46.4508 212.596L44.4315 207.734ZM47.7688 208.62L50.3768 209.312C51.121 211.098 51.8034 212.737 52.4001 214.171L49.791 213.479L47.7688 208.62ZM22.1714 210.266L20.3424 205.872L22.9514 206.564L24.7805 210.958L22.1714 210.266ZM29.8671 208.398L32.9613 209.22L34.7952 213.617L31.7011 212.797L29.8671 208.398ZM41.7069 215.449L39.8759 211.058L42.9691 211.878L44.7991 216.273L41.7069 215.449ZM49.8877 213.71L52.4967 214.402C53.2817 216.29 53.9113 217.802 54.3257 218.796L51.7167 218.105C51.3491 217.221 50.7135 215.695 49.8887 213.713L49.8877 213.71Z" fill="#8459FF" fill-opacity="0.44"/>
<path d="M175.901 133.576L185.613 127.003L185.455 126.627C185.147 125.886 181.986 118.294 178.168 109.122L164.266 75.7266L164.166 75.5003L130.346 66.5205L85.097 97.143L84.7593 97.3714L88.8865 107.286C94.8059 121.504 105.301 146.715 106.106 148.651L106.205 148.88L106.444 148.943C112.906 150.659 133.455 156.111 139.794 157.791H139.806L140.025 157.849L140.209 157.725L140.22 157.717L175.901 133.576ZM133.141 154.994L131.31 150.599L134.404 151.42L136.234 155.815L133.141 154.994ZM129.803 154.109L127.974 149.714L131.069 150.535L132.898 154.929L129.803 154.109ZM113.12 149.683L111.291 145.29L114.384 146.112L116.214 150.506L113.12 149.683ZM109.784 148.797L107.954 144.403L110.863 145.174L111.048 145.224L112.88 149.618L109.784 148.797ZM123.133 152.339L121.303 147.944L124.397 148.764L126.229 153.159L123.133 152.339ZM119.796 151.453L117.961 147.058L121.059 147.883L122.888 152.27L119.796 151.453ZM166.862 138.491C166.464 137.54 165.813 135.972 164.977 133.964L169.313 131.032C170.219 133.208 170.883 134.803 171.198 135.559L166.862 138.491ZM148.835 150.687L146.95 146.16L151.288 143.224C152.011 144.96 152.648 146.491 153.173 147.751L148.835 150.687ZM138.275 152.031L142.276 149.323L144.161 153.849L140.159 156.557L138.275 152.031ZM163.579 76.6689L165.463 81.1956L161.463 83.9037L159.578 79.377L163.579 76.6689ZM118.65 105.868L116.081 105.187L119.93 102.581L122.499 103.263L118.65 105.868ZM119.358 106.592L123.359 103.885C123.693 104.683 124.355 106.278 125.244 108.412L121.248 111.119L119.358 106.592ZM123.527 103.771L127.866 100.836L129.75 105.363L125.413 108.298C124.517 106.145 123.854 104.554 123.528 103.771H123.527ZM128.035 100.721L132.373 97.7852C132.883 99.0116 133.522 100.546 134.257 102.312L129.915 105.248L128.035 100.721ZM122.719 103.114L120.152 102.434L124.436 99.5321L127.006 100.214L122.719 103.114ZM119.894 102.365L116.813 101.547L121.097 98.6457L124.178 99.4633L119.894 102.365ZM119.675 102.512L115.826 105.118L112.745 104.3L116.594 101.695L119.675 102.512ZM115.526 106.069C115.856 106.86 116.495 108.398 117.356 110.464L114.262 109.644L112.432 105.249L115.526 106.069ZM115.769 106.134L118.378 106.826L120.207 111.221L117.598 110.529C116.758 108.511 116.121 106.979 115.769 106.135V106.134ZM121.322 111.307L125.323 108.598C125.92 110.021 126.606 111.678 127.364 113.5L123.363 116.207L121.322 111.307ZM125.491 108.485L129.829 105.549L131.87 110.452L127.532 113.388C126.773 111.565 126.084 109.908 125.491 108.486V108.485ZM129.998 105.436L134.335 102.5L136.376 107.401L132.039 110.337L129.998 105.436ZM132.541 97.6715L136.878 94.7381L138.763 99.2649L134.426 102.2C133.689 100.43 133.05 98.8959 132.541 97.6725V97.6715ZM127.225 100.065L124.656 99.3825L128.94 96.482L131.51 97.164L127.225 100.065ZM124.4 99.3147L121.319 98.4981L125.602 95.5966L128.684 96.4142L124.4 99.3147ZM121.064 98.4273L117.983 97.6097L122.266 94.7082L125.347 95.5258L121.064 98.4273ZM120.845 98.5749L116.561 101.476L113.478 100.663L117.761 97.7612L120.845 98.5749ZM116.339 101.628L112.489 104.233L109.408 103.413L113.258 100.808L116.339 101.628ZM112.19 105.185L114.019 109.58L110.924 108.759L109.094 104.364L112.19 105.185ZM114.115 109.812L116.138 114.67L113.043 113.849L111.021 108.99L114.115 109.812ZM114.357 109.876L117.453 110.697C118.039 112.106 118.722 113.748 119.475 115.555L116.381 114.735L114.357 109.876ZM117.695 110.761L120.304 111.453C120.89 112.864 121.574 114.505 122.326 116.312L119.717 115.614L117.695 110.761ZM123.44 116.398L127.441 113.69C128.079 115.223 128.765 116.87 129.483 118.593L125.482 121.3L123.44 116.398ZM127.61 113.576L131.947 110.641L133.988 115.543L129.652 118.479C128.935 116.757 128.248 115.109 127.611 113.576H127.61ZM132.116 110.527L136.453 107.592C137.102 109.148 137.785 110.791 138.494 112.494L134.157 115.43L132.116 110.527ZM136.621 107.478L140.96 104.542C141.597 106.075 142.284 107.723 143.001 109.445L138.663 112.381C137.955 110.678 137.27 109.032 136.622 107.478H136.621ZM136.544 107.289L134.502 102.387L138.841 99.4523C139.433 100.873 140.122 102.531 140.881 104.354L136.544 107.289ZM137.042 94.6264L141.38 91.691L143.264 96.2178L140.205 98.2887L138.927 99.1532C138.028 96.9785 137.365 95.3842 137.047 94.6234L137.042 94.6264ZM131.727 97.0194L129.162 96.3334L133.446 93.4329L136.015 94.1139L131.727 97.0194ZM128.902 96.2696L125.831 95.449L130.114 92.5445L133.195 93.3621L128.902 96.2696ZM125.565 95.3842L122.483 94.5676L126.767 91.666L129.848 92.4837L125.565 95.3842ZM122.228 94.4998L119.156 93.6792L123.44 90.7776L126.521 91.5953L122.228 94.4998ZM122.009 94.6473L117.726 97.5489L114.645 96.7323L118.929 93.8307L122.009 94.6473ZM117.503 97.6964L113.22 100.598L110.138 99.7803L114.422 96.8798L117.503 97.6964ZM112.997 100.747L109.147 103.351L106.066 102.533L109.92 99.9229L112.997 100.747ZM108.852 104.3L110.682 108.697L107.588 107.877L105.758 103.482L108.852 104.3ZM110.779 108.927L112.801 113.782L109.707 112.962L107.685 108.104L110.779 108.927ZM112.898 114.017L114.92 118.876L111.826 118.055L109.804 113.196L112.898 114.017ZM113.14 114.081L116.234 114.902L118.259 119.765L115.166 118.943L113.14 114.081ZM116.477 114.966L119.571 115.788L121.594 120.645L118.5 119.825L116.477 114.966ZM119.814 115.851L122.423 116.543L124.445 121.402L121.837 120.71L119.814 115.851ZM125.561 121.488L129.561 118.781C130.221 120.364 130.904 122.007 131.603 123.684L127.601 126.391C126.903 124.716 126.219 123.072 125.561 121.488ZM129.73 118.668L134.067 115.733L134.519 116.819C135.037 118.064 135.569 119.341 136.108 120.634L131.771 123.57C131.074 121.894 130.388 120.25 129.73 118.668ZM134.704 116.742L134.236 115.618L138.574 112.686C139.236 114.281 139.92 115.921 140.614 117.588L136.277 120.524C135.743 119.239 135.217 117.97 134.704 116.741V116.742ZM138.742 112.569L143.08 109.634C143.739 111.217 144.423 112.86 145.121 114.536L140.783 117.472L138.742 112.569ZM143.248 109.52L147.586 106.584L149.627 111.489L145.289 114.425L143.248 109.52ZM143.17 109.332L141.129 104.429L145.467 101.494L147.508 106.397L143.17 109.332ZM141.051 104.24C140.291 102.416 139.601 100.758 139.01 99.3376L140.321 98.4502L143.348 96.4022L145.389 101.305L141.051 104.24ZM141.554 91.5773L145.891 88.6419L147.776 93.1687L143.438 96.1041L141.554 91.5773ZM136.238 93.9703L133.669 93.2883L137.952 90.3868L140.523 91.0688L136.238 93.9703ZM133.413 93.2205L130.331 92.4029L134.615 89.5014L137.696 90.319L133.413 93.2205ZM130.076 92.3351L126.995 91.5175L131.279 88.617L134.36 89.4336L130.076 92.3351ZM126.739 91.4477L123.658 90.6301L127.942 87.7295L131.023 88.5472L126.739 91.4477ZM123.403 90.5623L120.322 89.7457L124.605 86.8441L127.687 87.6617L123.403 90.5623ZM123.184 90.7108L118.9 93.6124L115.819 92.7948L120.102 89.8932L123.184 90.7108ZM118.677 93.7599L114.393 96.6615L111.312 95.8438L115.596 92.9433L118.677 93.7599ZM114.175 96.809L109.891 99.7096L106.803 98.8919L111.087 95.9914L114.175 96.809ZM109.669 99.8581L105.82 102.463L102.739 101.645L106.588 99.0405L109.669 99.8581ZM105.516 103.413L107.345 107.807L104.251 106.986L102.42 102.594L105.516 103.413ZM107.442 108.039L109.464 112.897L106.376 112.076L104.353 107.219L107.442 108.039ZM109.561 113.129L111.585 117.99L108.49 117.173L106.466 112.314L109.561 113.129ZM111.685 118.222L113.707 123.08L110.609 122.258L108.586 117.399L111.685 118.222ZM111.927 118.286L115.021 119.107L117.043 123.966L113.955 123.145L111.927 118.286ZM115.264 119.172L118.357 119.992L120.376 124.85L117.282 124.03L115.264 119.172ZM118.6 120.057L121.694 120.878L123.717 125.737L120.622 124.915L118.6 120.057ZM121.937 120.943L124.545 121.635C125.199 123.202 125.876 124.831 126.569 126.492L123.96 125.8C123.264 124.141 122.586 122.511 121.933 120.943H121.937ZM127.684 126.578L131.684 123.871L133.725 128.774L132.43 129.647L129.716 131.481L127.684 126.578ZM131.849 123.753L136.191 120.822C136.864 122.437 137.549 124.081 138.232 125.725L133.89 128.66L131.849 123.753ZM136.354 120.704L140.693 117.771L142.733 122.673L138.396 125.608C137.711 123.967 137.028 122.323 136.354 120.708V120.704ZM140.861 117.654L145.199 114.719C145.871 116.334 146.556 117.979 147.24 119.621L142.902 122.557C142.217 120.917 141.535 119.277 140.861 117.658V117.654ZM145.367 114.605L149.705 111.67C150.377 113.285 151.062 114.93 151.746 116.572L147.408 119.512L145.367 114.605ZM151.824 116.76L153.865 121.662L149.527 124.598L147.486 119.695L151.824 116.76ZM151.993 116.646L156.33 113.711C157.015 115.355 157.698 117.001 158.371 118.613L154.033 121.553C153.362 119.938 152.677 118.293 151.993 116.65V116.646ZM151.914 116.459C151.23 114.815 150.546 113.168 149.874 111.556L154.211 108.621C154.884 110.237 155.568 111.879 156.253 113.523C154.82 114.495 153.365 115.477 151.914 116.463V116.459ZM149.795 111.373C149.098 109.697 148.413 108.055 147.754 106.471L151.67 103.821L152.092 103.535C152.752 105.119 153.436 106.764 154.133 108.438L149.795 111.373ZM151.558 103.655L147.673 106.282L145.635 101.379L149.972 98.4432C150.613 99.9818 151.298 101.627 152.014 103.346L151.558 103.655ZM145.555 101.191C144.798 99.3715 144.108 97.7154 143.514 96.2885L147.852 93.3531C148.449 94.7899 149.139 96.4441 149.893 98.2558L145.555 101.191ZM146.053 88.5282L150.391 85.5938C150.708 86.3526 151.371 87.9469 152.276 90.1206L147.946 93.051L146.053 88.5282ZM140.739 90.9212L138.169 90.2402L139.112 89.6021L142.455 87.3387L145.025 88.0207L140.739 90.9212ZM139 89.4366L137.912 90.1724L134.838 89.3538L139.122 86.4523L142.203 87.2699L139 89.4366ZM134.576 89.287L131.495 88.4694L135.793 85.5649L138.873 86.3815L134.576 89.287ZM131.24 88.4016L128.159 87.584L132.442 84.6834L135.524 85.5011L131.24 88.4016ZM127.903 87.5162L124.821 86.6986L129.105 83.798L132.185 84.6156L127.903 87.5162ZM124.566 86.6308L121.485 85.8141L125.769 82.9126L128.85 83.7302L124.566 86.6308ZM124.347 86.7793L120.064 89.6809L116.984 88.8553L121.268 85.9537L124.347 86.7793ZM119.84 89.8284L115.557 92.7299L112.482 91.9083L116.765 89.0078L119.84 89.8284ZM115.341 92.8745L111.057 95.775L107.976 94.9574L112.259 92.0569L115.341 92.8745ZM110.835 95.9236L106.551 98.8241L103.47 98.0075L107.754 95.106L110.835 95.9236ZM106.328 98.9727L102.48 101.577L99.3984 100.76L103.248 98.1551L106.328 98.9727ZM102.179 102.529L104.014 106.924L100.915 106.105L99.0856 101.711L102.179 102.529ZM104.105 107.156L106.128 112.015L103.034 111.19L101.011 106.332L104.105 107.156ZM106.224 112.246L108.247 117.105L105.153 116.284L103.13 111.425L106.224 112.246ZM108.343 117.337L110.367 122.195L107.272 121.374L105.25 116.516L108.343 117.337ZM110.462 122.427L112.482 127.286L109.393 126.465L107.371 121.607L110.462 122.427ZM110.705 122.492L113.799 123.313L115.822 128.17L112.728 127.35L110.705 122.492ZM114.042 123.376L117.136 124.198L119.156 129.056L116.068 128.24L114.042 123.376ZM117.379 124.262L120.473 125.082L122.495 129.941L119.401 129.121L117.379 124.262ZM120.715 125.149L123.809 125.97C124.476 127.571 125.153 129.197 125.832 130.829L122.742 130.006L120.715 125.149ZM124.052 126.035L126.66 126.727L128.684 131.584L126.075 130.892C125.396 129.262 124.719 127.633 124.052 126.033V126.035ZM129.798 131.671L132.542 129.814C132.931 129.551 133.352 129.266 133.799 128.963L135.84 133.866L131.84 136.574L129.798 131.671ZM133.968 128.849L138.306 125.914L140.346 130.817L136.009 133.752L133.968 128.849ZM138.474 125.8L142.812 122.865C143.495 124.505 144.178 126.146 144.853 127.768L140.515 130.701L138.474 125.8ZM142.98 122.751L147.318 119.816C148.003 121.46 148.686 123.106 149.359 124.717L145.021 127.653C144.346 126.031 143.663 124.389 142.98 122.749V122.751ZM149.441 124.904C150.138 126.581 150.822 128.223 151.481 129.807L147.143 132.742L145.099 127.841L149.441 124.904ZM149.609 124.79L153.943 121.859C154.641 123.535 155.325 125.178 155.985 126.761L151.646 129.696L149.609 124.79ZM154.115 121.74L158.452 118.805C159.149 120.48 159.834 122.122 160.493 123.707L156.153 126.645C155.493 125.06 154.809 123.416 154.112 121.74H154.115ZM158.62 118.691L162.959 115.756C163.656 117.433 164.341 119.075 164.999 120.658L160.662 123.594C160 122.008 159.315 120.363 158.618 118.691H158.62ZM158.543 118.504L156.502 113.601L160.839 110.666L162.88 115.568L158.543 118.504ZM156.424 113.413L154.383 108.511L158.72 105.575C159.394 107.192 160.077 108.833 160.761 110.478L156.424 113.413ZM154.304 108.327L152.264 103.425L156.601 100.489L158.642 105.392L154.304 108.327ZM152.185 103.242L150.138 98.3276L154.475 95.3922C155.113 96.9247 155.799 98.5719 156.517 100.295L152.185 103.242ZM150.066 98.1521C149.309 96.3334 148.62 94.6753 148.022 93.2424L152.36 90.307C152.951 91.7279 153.641 93.384 154.401 95.2097L150.066 98.1521ZM150.564 85.4891L154.903 82.5537C155.217 83.3095 155.881 84.9048 156.787 87.0804L152.45 90.0019L150.564 85.4891ZM145.249 87.8821L142.679 87.2001L146.963 84.2996L149.54 84.9666L145.249 87.8821ZM142.424 87.1323L139.343 86.3157L143.627 83.4142L146.708 84.2318L142.424 87.1323ZM139.087 86.2479L136.006 85.4303L140.289 82.5287L143.371 83.3464L139.087 86.2479ZM135.751 85.3625L132.669 84.5449L136.953 81.6433L140.034 82.4609L135.751 85.3625ZM132.414 84.4681L129.333 83.6505L133.617 80.7499L136.698 81.5666L132.414 84.4681ZM129.078 83.5827L125.997 82.7651L130.281 79.8645L133.362 80.6821L129.078 83.5827ZM125.741 82.6973L122.66 81.8757L126.943 78.9741L130.025 79.7917L125.741 82.6973ZM125.523 82.8458L121.239 85.7473L118.158 84.9297L122.442 82.0282L125.523 82.8458ZM121.016 85.8949L116.732 88.7964L113.651 87.9788L117.935 85.0773L121.016 85.8949ZM116.51 88.945L112.226 91.8455L109.145 91.0279L113.429 88.1274L116.51 88.945ZM112.004 91.9941L107.721 94.8946L104.639 94.078L108.923 91.1765L112.004 91.9941ZM107.501 95.0372L103.217 97.9387L100.129 97.1221L104.412 94.2206L107.501 95.0372ZM102.995 98.0863L99.1424 100.693L96.0612 99.8751L99.9105 97.2697L102.995 98.0863ZM98.8455 101.643L100.676 106.038L97.5804 105.217L95.7454 100.82L98.8455 101.643ZM100.772 106.27L102.794 111.128L99.7003 110.308L97.677 105.449L100.772 106.27ZM102.891 111.356L104.91 116.219L101.816 115.399L99.7929 110.54L102.891 111.356ZM105.01 116.452L107.032 121.31L103.938 120.489L101.916 115.631L105.01 116.452ZM107.129 121.542L109.151 126.401L106.057 125.58L104.035 120.721L107.129 121.542ZM109.248 126.633L111.271 131.491L108.176 130.67L106.154 125.811L109.248 126.633ZM109.491 126.697L112.581 127.517L114.603 132.376L111.509 131.556L109.491 126.697ZM112.827 127.582L115.921 128.403L117.944 133.262L114.855 132.44L112.827 127.582ZM116.164 128.468L119.253 129.288L121.276 134.147L118.184 133.325L116.164 128.468ZM119.501 129.352L122.595 130.174L124.617 135.031L121.523 134.211L119.501 129.352ZM122.834 130.234L125.93 131.058L127.951 135.918L124.857 135.097L122.834 130.234ZM126.171 131.12L128.78 131.812L130.803 136.671L128.194 135.979L126.171 131.12ZM131.917 136.756L135.918 134.049L137.959 138.951L133.959 141.659C133.302 140.077 132.615 138.433 131.917 136.759V136.756ZM136.091 133.938L140.425 131.002L142.467 135.905L138.129 138.84C137.469 137.257 136.789 135.619 136.091 133.938ZM140.597 130.888L144.935 127.953L146.976 132.856L142.638 135.791C141.975 134.207 141.29 132.563 140.593 130.888H140.597ZM147.05 133.043L149.091 137.946L144.758 140.881C144.119 139.345 143.432 137.698 142.717 135.979L147.05 133.043ZM147.218 132.93L151.556 129.994C152.274 131.717 152.959 133.364 153.598 134.897L149.259 137.832C148.61 136.271 147.925 134.627 147.218 132.927V132.93ZM151.725 129.88L156.062 126.944C156.78 128.667 157.465 130.314 158.103 131.847L153.766 134.782L151.725 129.88ZM156.231 126.831L160.569 123.896L162.609 128.799L158.272 131.73L156.231 126.831ZM160.737 123.781L165.075 120.846C165.792 122.57 166.478 124.216 167.116 125.748L162.778 128.684L160.737 123.781ZM165.243 120.732L169.581 117.797C170.298 119.52 170.984 121.167 171.622 122.699L167.284 125.635C166.646 124.102 165.96 122.457 165.243 120.732ZM165.165 120.545C164.506 118.961 163.822 117.317 163.124 115.642L167.462 112.707C168.159 114.383 168.843 116.026 169.503 117.609L165.165 120.545ZM163.046 115.454C162.373 113.839 161.689 112.194 161.004 110.552L165.343 107.616C166.027 109.26 166.712 110.907 167.384 112.519L163.046 115.454ZM160.927 110.368L158.885 105.466L163.224 102.53L165.264 107.433L160.927 110.368ZM158.805 105.273C158.107 103.597 157.422 101.953 156.764 100.371L161.102 97.4352C161.76 99.0166 162.446 100.664 163.142 102.338L158.805 105.273ZM156.686 100.188L154.645 95.2855L158.985 92.3451C159.624 93.8776 160.309 95.5248 161.026 97.2477L156.686 100.188ZM154.566 95.098C153.806 93.2704 153.116 91.6142 152.526 90.1953C154.052 89.1544 155.51 88.1723 156.866 87.2599C157.458 88.6798 158.147 90.3369 158.907 92.1626L154.566 95.098ZM155.064 82.435L159.402 79.4996L161.286 84.0264L156.949 86.9618C156.043 84.7602 155.379 83.1619 155.072 82.426L155.064 82.435ZM149.748 84.828L147.179 84.146L151.463 81.2445L154.033 81.9265L149.748 84.828ZM146.931 84.0692L143.85 83.2516L148.133 80.3511L151.215 81.1687C149.876 82.0751 148.436 83.0512 146.931 84.0692ZM143.595 83.1838L140.514 82.3672L144.797 79.4657L147.878 80.2833L143.595 83.1838ZM140.258 82.2994L137.176 81.4818L141.46 78.5803L144.541 79.3979L140.258 82.2994ZM136.921 81.414L133.84 80.5964L138.124 77.6949L141.205 78.5125L136.921 81.414ZM133.584 80.5286L130.503 79.711L134.786 76.8104L137.868 77.6271L133.584 80.5286ZM130.248 79.6432L127.166 78.8256L131.45 75.925L134.531 76.7426L130.248 79.6432ZM126.91 78.7578L123.829 77.9411L128.113 75.0396L131.194 75.8572L126.91 78.7578ZM126.691 78.9063L122.408 81.8078L119.326 80.9902L123.61 78.0887L126.691 78.9063ZM122.185 81.9554L117.902 84.8569L114.821 84.0393L119.104 81.1378L122.185 81.9554ZM117.68 85.0045L113.396 87.906L110.315 87.0884L114.598 84.1879L117.68 85.0045ZM113.173 88.0576L108.889 90.9581L105.807 90.1385L110.091 87.237L113.173 88.0576ZM108.667 91.1067L104.383 94.0082L101.302 93.1906L105.586 90.2891L108.667 91.1067ZM104.161 94.1558L99.8776 97.0573L96.7924 96.2337L101.076 93.3322L104.161 94.1558ZM99.6554 97.2049L95.8061 99.8103L92.7239 98.9926L96.5742 96.3873L99.6554 97.2049ZM95.5053 100.761L97.3393 105.154L94.2451 104.333L92.4161 99.9379L95.5053 100.761ZM97.4319 105.389L99.4542 110.247L96.36 109.426L94.3377 104.567L97.4319 105.389ZM99.5508 110.479L101.573 115.337L98.4799 114.516L96.4567 109.654L99.5508 110.479ZM101.67 115.564L103.692 120.423L100.604 119.601L98.5805 114.744L101.67 115.564ZM103.789 120.654L105.812 125.513L102.719 124.695L100.696 119.836L103.789 120.654ZM105.907 125.747L107.929 130.605L104.835 129.785L102.818 124.926L105.907 125.747ZM108.026 130.833L110.048 135.69L106.954 134.87L104.931 130.012L108.026 130.833ZM108.268 130.896L111.363 131.718L113.385 136.576L110.29 135.76L108.268 130.896ZM111.605 131.782L114.699 132.603L116.721 137.461L113.627 136.641L111.605 131.782ZM114.941 132.667L118.035 133.488L120.059 138.347L116.964 137.531L114.941 132.667ZM118.278 133.553L121.373 134.373L123.395 139.232L120.301 138.41L118.278 133.553ZM121.615 134.438L124.709 135.259L126.731 140.118L123.639 139.301L121.615 134.438ZM124.952 135.323L128.046 136.144L130.068 141.002L126.974 140.181L124.952 135.323ZM128.29 136.217L130.899 136.909L132.922 141.768L130.313 141.072L128.29 136.217ZM134.036 141.853L138.038 139.146C138.755 140.868 139.441 142.516 140.078 144.049L136.077 146.756C135.438 145.215 134.753 143.568 134.036 141.849V141.853ZM138.206 139.033L142.544 136.097C143.26 137.816 143.945 139.463 144.585 140.999L140.247 143.934C139.609 142.399 138.923 140.751 138.206 139.029V139.033ZM144.659 141.183C145.415 142.998 146.103 144.653 146.7 146.086L142.367 149.021L140.326 144.119L144.659 141.183ZM144.827 141.07L149.166 138.134L151.206 143.036L146.868 145.971L144.827 141.07ZM149.341 138.02L153.678 135.084C154.437 136.908 155.128 138.567 155.72 139.987L151.381 142.922L149.341 138.02ZM153.844 134.971L158.181 132.035L160.222 136.938L155.885 139.873L153.844 134.971ZM158.35 131.921L162.69 128.986C163.444 130.798 164.132 132.451 164.73 133.889L160.393 136.824C159.801 135.401 159.109 133.743 158.35 131.921ZM162.856 128.872L167.194 125.937C167.954 127.762 168.643 129.419 169.235 130.839L164.898 133.774L162.856 128.872ZM167.362 125.822L171.701 122.887C172.46 124.713 173.15 126.37 173.741 127.79L169.403 130.725L167.362 125.822ZM171.869 122.773L176.206 119.838L178.248 124.74L173.909 127.676L171.869 122.773ZM171.79 122.586C171.153 121.052 170.466 119.405 169.749 117.683L174.087 114.748L176.128 119.65L171.79 122.586ZM169.671 117.495C169.013 115.912 168.327 114.267 167.63 112.593L171.968 109.657L174.009 114.559L169.671 117.495ZM167.552 112.404C166.879 110.789 166.196 109.146 165.511 107.502L169.849 104.566L171.89 109.469L167.552 112.404ZM165.433 107.319L163.392 102.416L167.73 99.4802L169.771 104.383L165.433 107.319ZM163.314 102.234L161.273 97.3315L165.611 94.3961L167.652 99.2988L163.314 102.234ZM161.196 97.1311C160.478 95.4071 159.792 93.7599 159.154 92.2284L163.493 89.293L165.533 94.1957L161.196 97.1311ZM159.076 92.0459C158.316 90.2193 157.625 88.5621 157.035 87.1433C158.649 86.0515 160.116 85.0584 161.372 84.2078L163.413 89.1105L159.076 92.0459ZM154.263 81.7759L151.693 81.0939L155.977 78.1924L158.546 78.8744L154.263 81.7759ZM151.433 81.0202L148.353 80.2025L152.636 77.301L155.718 78.1186L151.433 81.0202ZM148.097 80.1347L145.015 79.3171L149.299 76.4166L152.38 77.2342L148.097 80.1347ZM144.76 79.2493L141.679 78.4317L145.963 75.5312L149.044 76.3488L144.76 79.2493ZM141.423 78.3649L138.342 77.5473L142.626 74.6458L145.707 75.4634L141.423 78.3649ZM138.087 77.4795L135.006 76.6619L139.289 73.7604L142.37 74.578L138.087 77.4795ZM134.754 76.5911L131.672 75.7735L135.956 72.872L139.037 73.6896L134.754 76.5911ZM131.417 75.7057L128.336 74.896L132.62 71.9955L135.7 72.8121L131.417 75.7057ZM128.08 74.8203L124.999 74.0036L129.282 71.1021L132.342 71.9138L132.364 71.9197L128.08 74.8203ZM127.861 74.9688L123.577 77.8703L120.496 77.0527L124.78 74.1512L127.861 74.9688ZM123.355 78.0179L119.071 80.9194L115.99 80.1018L120.274 77.2003L123.355 78.0179ZM118.849 81.067L114.566 83.9685L111.485 83.1539L115.769 80.2534L118.849 81.067ZM114.343 84.1171L110.06 87.0176L106.979 86.201L111.262 83.2995L114.343 84.1171ZM109.837 87.1662L105.553 90.0677L102.469 89.2541L106.752 86.3526L109.837 87.1662ZM105.331 90.2153L101.047 93.1168L97.9659 92.2992L102.25 89.3977L105.331 90.2153ZM100.826 93.2674L96.5423 96.1689L93.4541 95.3513L97.7378 92.4508L100.826 93.2674ZM96.3202 96.3165L92.4689 98.9258L89.3876 98.1082L93.2369 95.5038L96.3202 96.3165ZM92.169 99.8741L93.998 104.268L90.9098 103.448L89.0708 99.0535L92.169 99.8741ZM94.0947 104.501L96.1179 109.358L93.0237 108.538L91.0015 103.68L94.0947 104.501ZM96.2146 109.595L98.2359 114.449L95.1476 113.629L93.1254 108.77L96.2146 109.595ZM98.3355 114.68L100.358 119.539L97.2636 118.718L95.2413 113.859L98.3355 114.68ZM100.454 119.771L102.477 124.629L99.3835 123.808L97.3602 118.949L100.454 119.771ZM102.573 124.856L104.597 129.714L101.502 128.893L99.4801 124.035L102.573 124.856ZM104.692 129.941L106.714 134.811L103.615 133.989L101.593 129.132L104.692 129.941ZM106.812 135.031L108.834 139.89L105.74 139.07L103.715 134.223L106.812 135.031ZM107.054 135.096L110.148 135.917L112.171 140.776L109.077 139.955L107.054 135.096ZM110.391 135.982L113.484 136.815L115.506 141.674L112.412 140.852L110.391 135.982ZM113.728 136.866L116.822 137.688L118.844 142.545L115.751 141.725L113.728 136.866ZM117.065 137.751L120.153 138.572L122.177 143.431L119.082 142.61L117.065 137.751ZM122.278 143.663L124.3 148.522L121.206 147.7L119.184 142.843L122.278 143.663ZM120.401 138.637L123.495 139.457L125.518 144.316L122.424 143.496L120.401 138.637ZM123.738 139.522L126.832 140.343L128.854 145.202L125.759 144.393L123.738 139.522ZM127.075 140.408L130.169 141.228L132.191 146.086L129.097 145.265L127.075 140.408ZM130.413 141.302L133.022 142L135.044 146.858L132.436 146.166C131.798 144.639 131.119 143.008 130.413 141.302ZM136.16 146.939L140.161 144.231C140.92 146.055 141.609 147.712 142.202 149.134L138.2 151.841C137.599 150.406 136.909 148.751 136.156 146.94L136.16 146.939ZM142.448 149.208L146.786 146.273L148.67 150.799L144.333 153.735L142.448 149.208ZM151.461 143.109L155.798 140.174C156.701 142.343 157.365 143.936 157.683 144.701L153.346 147.637L151.461 143.109ZM155.967 140.06L160.304 137.124L162.189 141.652L157.847 144.592L155.967 140.06ZM160.469 137.015L164.807 134.079C165.647 136.096 166.301 137.669 166.692 138.606L162.353 141.542C162.023 140.743 161.361 139.153 160.469 137.015ZM169.481 130.916L173.819 127.981C174.725 130.158 175.39 131.752 175.703 132.508L175.342 132.752L171.366 135.444L169.481 130.916ZM173.988 127.866L178.33 124.928L180.215 129.456L175.878 132.39C175.55 131.616 174.887 130.025 173.988 127.863V127.866ZM178.494 124.817L182.494 122.11C183.412 124.313 184.077 125.911 184.379 126.637L180.378 129.337L178.494 124.817ZM182.417 121.926L178.416 124.634L176.375 119.731L180.375 117.024L182.417 121.926ZM180.298 116.836L176.296 119.544L174.256 114.641L178.257 111.933C178.975 113.651 179.66 115.299 180.298 116.829V116.836ZM177.248 109.512C177.563 110.269 177.873 111.014 178.178 111.745L174.177 114.452L172.137 109.55L176.139 106.836L177.248 109.512ZM176.059 106.655L172.054 109.355L170.013 104.453L174.014 101.746L176.059 106.655ZM169.939 104.272L167.898 99.3695L171.899 96.6625L173.94 101.564L169.939 104.272ZM167.82 99.1871L165.778 94.2724L169.779 91.5643L171.82 96.467L167.82 99.1871ZM165.7 94.096L163.66 89.1933L167.661 86.4862L169.702 91.3889L165.7 94.096ZM163.587 88.9939L161.545 84.0912L165.547 81.3841L167.587 86.2868L163.587 88.9939ZM158.774 78.7239L156.204 78.0428L160.053 75.4385L162.623 76.1205L158.774 78.7239ZM155.949 77.975L152.867 77.1574L156.713 74.5491L159.794 75.3667L155.949 77.975ZM152.607 77.0896L149.526 76.272L153.374 73.6676L156.456 74.4852L152.607 77.0896ZM153.118 73.5998L149.27 76.2042L146.189 75.3866L150.038 72.7782L153.118 73.5998ZM149.782 72.7144L145.933 75.3148L142.853 74.4972L146.701 71.8928L149.782 72.7144ZM142.597 74.4294L139.515 73.6128L143.364 71.0074L146.445 71.824L142.597 74.4294ZM139.26 73.545L136.179 72.7274L140.027 70.123L143.109 70.9406L139.26 73.545ZM135.923 72.6596L132.842 71.842L136.689 69.2376L139.77 70.0552L135.923 72.6596ZM136.435 69.1698L132.587 71.7742L132.398 71.7243L129.509 70.9565L133.357 68.3522L136.435 69.1698ZM129.25 70.8887L126.68 70.2097L130.53 67.6063L133.103 68.2844L129.25 70.8887ZM129.03 71.0373L124.747 73.9388L122.177 73.2568L126.46 70.3553L129.03 71.0373ZM124.525 74.0864L120.241 76.9879L117.672 76.3059L121.955 73.4044L124.525 74.0864ZM120.019 77.1355L115.735 80.037L113.166 79.355L117.45 76.4545L120.019 77.1355ZM115.512 80.1856L111.228 83.0861L108.658 82.4041L112.942 79.5036L115.512 80.1856ZM111.006 83.2347L106.722 86.1352L104.153 85.4542L108.437 82.5527L111.006 83.2347ZM106.504 86.2838L102.221 89.1853L99.6505 88.5033L103.934 85.6018L106.504 86.2838ZM101.998 89.3329L97.7139 92.2344L95.1437 91.5524L99.4273 88.6519L101.998 89.3329ZM97.4917 92.383L93.208 95.2835L90.6379 94.6015L94.9215 91.7009L97.4917 92.383ZM92.9819 95.436L89.1326 98.0404L86.5624 97.3584L90.4117 94.754L92.9819 95.436ZM88.8327 98.9926L90.6647 103.383L88.0567 102.691L86.2267 98.2967L88.8327 98.9926ZM89.806 106.903L88.1493 102.923L90.7584 103.612L92.7807 108.47L90.1726 107.778C90.0484 107.483 89.9262 107.191 89.806 106.903ZM90.2663 108.013L92.8743 108.705L94.8976 113.564L92.2886 112.872C91.5822 111.169 90.9028 109.538 90.2663 108.013ZM94.9942 113.796L97.0165 118.655L94.4075 117.963C93.7171 116.305 93.0397 114.673 92.3852 113.104L94.9942 113.796ZM94.5041 118.196L97.1131 118.888L99.1354 123.746L96.5304 123.055C95.852 121.425 95.1745 119.797 94.5071 118.195L94.5041 118.196ZM99.2321 123.979L101.257 128.838L98.6493 128.14C97.9828 126.545 97.3054 124.913 96.626 123.282L99.2321 123.979ZM98.7429 128.377L101.351 129.069L103.376 133.924L100.768 133.232C100.116 131.667 99.4373 130.035 98.7459 128.375L98.7429 128.377ZM100.862 133.462L103.47 134.154L105.493 139.013L102.884 138.321C102.257 136.808 101.576 135.175 100.865 133.465L100.862 133.462ZM105.59 139.245L107.612 144.103L105.01 143.414L102.988 138.556L105.59 139.245ZM105.832 139.309L108.926 140.13L110.948 144.988L110.911 144.978L107.854 144.168L105.832 139.309ZM109.168 140.194L112.262 141.015L114.286 145.874L111.191 145.053L109.168 140.194ZM112.505 141.08L115.6 141.9L117.622 146.759L114.528 145.939L112.505 141.08ZM115.843 141.965L118.936 142.786L120.959 147.645L117.865 146.824L115.843 141.965ZM122.517 143.735L125.611 144.557L127.634 149.414L124.541 148.594L122.517 143.735ZM125.854 144.62L128.943 145.441L130.966 150.3L127.878 149.478L125.854 144.62ZM129.191 145.506L132.285 146.326L134.307 151.185L131.21 150.368L129.191 145.506ZM132.528 146.391L135.136 147.083C135.88 148.869 136.563 150.508 137.159 151.942L134.55 151.25L132.528 146.391ZM106.931 148.037L105.102 143.643L107.711 144.335L109.54 148.729L106.931 148.037ZM114.626 146.17L117.721 146.991L119.555 151.389L116.46 150.568L114.626 146.17ZM126.466 153.22L124.635 148.829L127.728 149.65L129.558 154.045L126.466 153.22ZM134.647 151.481L137.256 152.173C138.041 154.062 138.671 155.573 139.085 156.567L136.476 155.876C136.108 154.992 135.473 153.467 134.648 151.484L134.647 151.481Z" fill="#8459FF" fill-opacity="0.44"/>
</svg>
