<svg width="772" height="917" viewBox="0 0 772 917" fill="none" xmlns="http://www.w3.org/2000/svg">
<path d="M639.429 340.479C587.678 316.069 523.246 311.305 452.729 323.253C437.043 325.892 421.502 328.75 406.402 331.536C368.432 338.573 325.697 350.888 287.067 343.044C279.37 341.505 271.6 338.866 265.956 333.442C258.919 326.771 256.133 316.216 257.966 306.76C261.631 288.141 280.25 278.685 296.083 271.868C318.587 262.192 342.923 256.841 366.966 252.81C417.544 244.233 469.589 241.448 520.827 243.72C538.859 244.527 554.985 232.432 559.31 214.912L600.579 46.9778C606.443 23.2279 588.558 0.210926 564.001 0.0643218C400.465 -0.961906 233.63 9.44707 122.504 92.938L168.024 153.559C251.295 91.0321 381.406 77.4713 515.402 75.9319L492.972 167.266C420.403 166.826 265.443 174.45 206.215 243.94C184.664 269.229 176.967 300.309 183.931 333.808C197.419 398.607 250.562 412.022 273.286 417.739C308.618 426.682 357.876 417.592 420.11 406.011C434.843 403.299 449.944 400.073 465.264 397.874C526.471 389.225 564.588 391.35 597.354 405.058C604.391 380.355 619.418 356.165 639.429 340.479Z" fill="url(#paint0_linear)"/>
<path d="M522.04 318.75C544.616 333.199 551.706 364.093 537.53 386.241C536.573 387.737 535.535 389.1 534.402 390.483C552.219 392.48 571.326 393.164 599.438 402.966C618.148 409.508 638.59 424.001 655.018 433.462L690.629 375.841C669.905 363.794 646.508 343.217 621.924 334.618C589.022 323.129 556.041 317.157 520.303 317.719C520.889 318.095 521.512 318.412 522.04 318.75Z" fill="url(#paint1_linear)"/>
<path d="M41.0489 340.854C39.2896 340.854 37.4571 340.707 35.6979 340.487C14.9534 337.555 0.586244 318.35 3.51832 297.679C26.8284 132.603 157.599 69.7102 163.17 67.0713C182.155 58.2018 204.659 66.4115 213.528 85.3234C222.398 104.235 214.261 126.666 195.423 135.609C191.025 137.734 95.9521 185.161 78.5062 308.235C75.794 327.146 59.5943 340.854 41.0489 340.854Z" fill="url(#paint2_linear)"/>
<path d="M41.0489 340.854C39.2896 340.854 37.4571 340.707 35.6979 340.487C14.9534 337.555 0.586244 318.35 3.51832 297.679C26.8284 132.603 157.599 69.7102 163.17 67.0713C182.155 58.2018 204.659 66.4115 213.528 85.3234C222.398 104.235 214.261 126.666 195.423 135.609C191.025 137.734 95.9521 185.161 78.5062 308.235C75.794 327.146 59.5943 340.854 41.0489 340.854Z" fill="url(#paint3_linear)"/>
<path d="M28.7696 837.387L90.7829 654.133C96.7204 636.613 115.119 626.718 133.005 631.483C152.65 636.687 163.792 657.431 157.268 676.71L95.2544 859.964C89.3169 877.483 70.9182 887.379 53.0325 882.615C33.3876 877.337 22.2457 856.592 28.7696 837.387Z" fill="url(#paint4_linear)"/>
<path d="M291.917 916.571C252.847 916.571 212.751 912.979 172.068 905.136C149.711 900.885 136.224 878.014 143.114 856.39L198.384 683.984C204.175 666.025 222.28 655.03 240.899 658.182C241.705 658.329 324.536 671.963 396.885 654.443C455.967 640.15 487.34 627.615 496.796 603.279C502.514 588.692 519.446 579.822 534.986 581.728C563.354 585.1 576.255 616.4 564.967 639.27C534.693 700.624 470.627 714.551 414.698 728.112C357.376 741.966 297.121 740.06 261.057 736.908L228.877 837.258C447.17 862.401 625.221 754.354 673.967 659.281C706.952 594.922 696.177 537.16 681.37 499.996L680.857 498.604C680.637 497.944 652.782 422.883 596.413 404.85C579.847 399.573 567.826 384.399 568.705 366.953C570.098 341.004 594.727 325.025 617.744 332.135C708.199 359.99 747.855 461.439 751.887 472.435C780.841 545.443 777.102 624.097 741.331 693.88C680.637 812.189 501.854 916.571 291.917 916.571Z" fill="url(#paint5_linear)"/>
<path d="M518.1 689.712C489.878 689.712 466.055 665.889 466.055 637.667C466.055 635.762 466.202 633.929 466.422 632.023C449.489 640.526 426.912 647.197 396.418 654.601C376.114 659.512 355.003 662.004 335.064 662.957V738.824C360.28 737.725 387.549 734.719 414.231 728.269C449.929 719.619 488.852 710.823 520.225 689.639C519.492 689.639 518.759 689.712 518.1 689.712Z" fill="url(#paint6_linear)"/>
<path d="M523.087 507.539C507.401 498.376 475.807 488.627 451.178 491.046V490.9C417.606 491.486 382.128 497.57 350.828 502.994C333.162 506 316.376 508.858 305.014 509.811C276.499 512.01 179.521 515.529 129.016 467.589C60.9917 402.937 68.2486 308.891 97.6427 242.333C106.072 223.201 97.4228 200.844 78.291 192.341C59.1592 183.838 36.4356 192.561 27.9326 211.692C-11.9437 301.78 -19.7871 430.792 76.7516 522.493C147.928 590.15 264.111 588.978 310.805 585.312C325.685 584.14 343.204 581.134 363.509 577.689C392.17 572.778 424.569 566.4 452.424 565.887L457.042 565.961C463.126 565.887 469.21 566.474 475.074 568.086C481.158 569.846 486.803 573.218 490.541 577.543C494.573 582.161 495.819 589.124 495.745 596.381C495.306 604.298 490.908 620.571 465.472 632.299C449.345 639.776 441.649 658.468 445.9 675.767C451.764 699.37 478.446 711.685 500.364 701.276C565.529 670.343 571.613 618.665 571.613 618.665C581.802 552.033 545.298 520.513 523.087 507.539Z" fill="url(#paint7_linear)"/>
<defs>
<linearGradient id="paint0_linear" x1="381.036" y1="373.805" x2="381.036" y2="-3.21595" gradientUnits="userSpaceOnUse">
<stop stop-color="#A966E5"/>
<stop offset="1" stop-color="#7966E8"/>
</linearGradient>
<linearGradient id="paint1_linear" x1="533.945" y1="386.192" x2="655.806" y2="447.579" gradientUnits="userSpaceOnUse">
<stop stop-color="#A966E6"/>
<stop offset="1" stop-color="#3F2575"/>
</linearGradient>
<linearGradient id="paint2_linear" x1="110.129" y1="63.4961" x2="110.129" y2="340.854" gradientUnits="userSpaceOnUse">
<stop offset="0.286458" stop-color="#6F6EBD"/>
<stop offset="1" stop-color="#1C1FEA"/>
</linearGradient>
<linearGradient id="paint3_linear" x1="110.129" y1="63.4961" x2="110.129" y2="340.854" gradientUnits="userSpaceOnUse">
<stop offset="0.229167" stop-color="#8267E8"/>
<stop offset="1" stop-color="#2F3198"/>
</linearGradient>
<linearGradient id="paint4_linear" x1="118.924" y1="657.561" x2="40.6153" y2="958.167" gradientUnits="userSpaceOnUse">
<stop stop-color="#E374FF"/>
<stop offset="1" stop-color="#EE4A93"/>
</linearGradient>
<linearGradient id="paint5_linear" x1="507.451" y1="387.751" x2="164.914" y2="763.799" gradientUnits="userSpaceOnUse">
<stop stop-color="#7A3CFE"/>
<stop offset="1" stop-color="#FCA543"/>
</linearGradient>
<linearGradient id="paint6_linear" x1="538.216" y1="665.303" x2="326.39" y2="651.026" gradientUnits="userSpaceOnUse">
<stop stop-color="#EFB253"/>
<stop offset="1" stop-color="#DB8185"/>
</linearGradient>
<linearGradient id="paint7_linear" x1="19.2675" y1="262.426" x2="493.19" y2="686.462" gradientUnits="userSpaceOnUse">
<stop stop-color="#E89331"/>
<stop offset="1" stop-color="#EDB355"/>
</linearGradient>
</defs>
</svg>
