<svg width="601" height="601" viewBox="0 0 601 601" fill="none" xmlns="http://www.w3.org/2000/svg">
<circle cx="300.86" cy="300.713" r="300.026" fill="url(#paint0_linear)"/>
<g clip-path="url(#clip0)">
<path d="M300.712 543.149C236.375 543.149 174.672 517.591 129.179 472.098C83.6856 426.604 58.1276 364.902 58.1276 300.565C58.1276 236.227 83.6856 174.525 129.179 129.031C174.672 83.5378 236.375 57.9799 300.712 57.9799C365.05 57.9799 426.752 83.5378 472.245 129.031C517.739 174.525 543.297 236.227 543.297 300.565C543.297 364.902 517.739 426.604 472.245 472.098C426.752 517.591 365.05 543.149 300.712 543.149ZM300.712 577.804C374.241 577.804 444.758 548.595 496.75 496.603C548.743 444.61 577.952 374.093 577.952 300.565C577.952 227.036 548.743 156.519 496.75 104.527C444.758 52.534 374.241 23.325 300.712 23.325C227.184 23.325 156.667 52.534 104.674 104.527C52.6818 156.519 23.4727 227.036 23.4727 300.565C23.4727 374.093 52.6818 444.61 104.674 496.603C156.667 548.595 227.184 577.804 300.712 577.804Z" fill="#313246"/>
<path d="M488.99 111.181C486.385 108.555 483.29 106.471 479.882 105.049C476.475 103.628 472.822 102.896 469.133 102.896C465.444 102.896 461.791 103.628 458.384 105.049C454.976 106.471 451.881 108.555 449.276 111.181L112.719 449.615C110.111 452.237 108.043 455.35 106.632 458.776C105.221 462.202 104.494 465.874 104.494 469.583C104.494 473.291 105.221 476.963 106.632 480.389C108.043 483.815 110.111 486.928 112.719 489.55C117.985 494.846 125.128 497.821 132.576 497.821C136.264 497.821 139.915 497.091 143.322 495.672C146.73 494.252 149.825 492.172 152.433 489.55L488.99 151.117C491.602 148.497 493.674 145.385 495.088 141.958C496.502 138.532 497.23 134.859 497.23 131.149C497.23 127.439 496.502 123.766 495.088 120.34C493.674 116.913 491.602 113.801 488.99 111.181Z" fill="#313246"/>
</g>
<defs>
<linearGradient id="paint0_linear" x1="300.86" y1="0.686523" x2="300.86" y2="600.739" gradientUnits="userSpaceOnUse">
<stop stop-color="#9293A9"/>
<stop offset="1" stop-color="#3F404D"/>
</linearGradient>
<clipPath id="clip0">
<rect width="554.479" height="554.479" fill="white" transform="translate(23.4727 23.325)"/>
</clipPath>
</defs>
</svg>
