<svg width="191" height="49" viewBox="0 0 191 49" fill="none" xmlns="http://www.w3.org/2000/svg">
  <ellipse cx="18.4899" cy="22.93" rx="18.4897" ry="17.564" fill="#1E2033" />
  <path d="M19.8076 7.17222C10.9821 7.17222 3.82532 14.3268 3.82532 23.1546C3.82532 31.9823 10.981 39.1369 19.8076 39.1369C28.6343 39.1369 35.79 31.9808 35.79 23.1546C35.79 14.3283 28.6343 7.17222 19.8076 7.17222ZM20.0425 38.6022C11.9009 38.6022 5.30092 32.0022 5.30092 23.8606C5.30092 15.719 11.9009 9.11864 20.0425 9.11864C28.1841 9.11864 34.7856 15.719 34.7856 23.8606C34.7856 32.0022 28.1841 38.6022 20.0425 38.6022Z" fill="white" />
  <path d="M19.0255 21.0431C18.318 21.0431 17.6265 21.2528 17.0383 21.6459C16.4501 22.0389 15.9917 22.5975 15.721 23.2511C15.4503 23.9047 15.3794 24.6239 15.5175 25.3177C15.6555 26.0116 15.9962 26.6489 16.4965 27.1491C16.9967 27.6493 17.6341 27.9899 18.3279 28.1279C19.0218 28.2658 19.7409 28.1949 20.3945 27.9242C21.048 27.6534 21.6066 27.1949 21.9996 26.6067C22.3926 26.0184 22.6023 25.3269 22.6022 24.6194C22.6021 23.6709 22.2252 22.7612 21.5545 22.0905C20.8837 21.4198 19.974 21.0431 19.0255 21.0431ZM18.4147 26.5315C17.9526 26.5316 17.5008 26.3946 17.1165 26.1379C16.7323 25.8812 16.4328 25.5163 16.2559 25.0894C16.079 24.6625 16.0327 24.1927 16.1228 23.7394C16.213 23.2862 16.4355 22.8698 16.7623 22.5431C17.089 22.2163 17.5054 21.9938 17.9586 21.9037C18.4119 21.8135 18.8817 21.8598 19.3086 22.0367C19.7355 22.2136 20.1004 22.5131 20.3571 22.8974C20.6138 23.2816 20.7508 23.7334 20.7507 24.1955C20.7506 24.815 20.5045 25.4091 20.0664 25.8472C19.6283 26.2853 19.0342 26.5314 18.4147 26.5315Z" fill="#464B89" />
  <path d="M18.4635 4.78163C8.26615 4.78163 6.10352e-05 13.0477 6.10352e-05 23.2451C6.10352e-05 33.4424 8.26615 41.7085 18.4635 41.7085C28.6609 41.7085 36.927 33.4424 36.927 23.2451C36.927 13.0477 28.6598 4.78163 18.4635 4.78163ZM19.1138 40.107C9.60105 40.107 1.89072 32.3956 1.89072 22.8839C1.89072 13.3723 9.60105 5.66123 19.1138 5.66123C28.6265 5.66123 36.3361 13.3719 36.3361 22.8839C36.3361 32.3959 28.6262 40.107 19.1138 40.107Z" fill="#684BFD" />
  <path d="M18.9975 14.3608C14.2819 14.3608 10.4585 18.1835 10.4585 22.8998C10.4585 27.6161 14.2819 31.4387 18.9975 31.4387C23.713 31.4387 27.5364 27.6153 27.5364 22.8998C27.5364 18.1842 23.7138 14.3608 18.9975 14.3608ZM19.7194 30.3719C15.6903 30.3719 12.4226 27.1054 12.4226 23.0741C12.4226 19.0427 15.6903 15.7755 19.7194 15.7755C23.7485 15.7755 27.018 19.0435 27.018 23.0741C27.018 27.1046 23.7518 30.3719 19.7194 30.3719Z" fill="white" />
  <path d="M18.3528 22.3586C18.1361 22.3586 17.9242 22.4229 17.744 22.5433C17.5638 22.6637 17.4234 22.8348 17.3405 23.0351C17.2576 23.2353 17.2359 23.4556 17.2782 23.6681C17.3205 23.8807 17.4249 24.0759 17.5782 24.2291C17.7314 24.3823 17.9267 24.4866 18.1392 24.5289C18.3518 24.5711 18.5721 24.5493 18.7723 24.4664C18.9725 24.3834 19.1436 24.2429 19.2639 24.0627C19.3843 23.8825 19.4485 23.6706 19.4484 23.4539C19.4483 23.1634 19.3328 22.8848 19.1274 22.6794C18.9219 22.474 18.6433 22.3586 18.3528 22.3586Z" fill="#8D7AFF" />
  <path d="M20.0485 17.6851C18.8509 17.6856 17.6804 18.0413 16.6849 18.707C15.6895 19.3727 14.9137 20.3186 14.4557 21.4251C13.9978 22.5317 13.8782 23.7492 14.112 24.9237C14.3459 26.0982 14.9227 27.177 15.7696 28.0237C16.6165 28.8704 17.6954 29.4471 18.8699 29.6807C20.0445 29.9143 21.2619 29.7945 22.3684 29.3363C23.4748 28.8782 24.4206 28.1022 25.0861 27.1066C25.7517 26.111 26.1071 24.9405 26.1074 23.7429C26.1077 22.9472 25.9511 22.1593 25.6467 21.4241C25.3423 20.689 24.896 20.021 24.3333 19.4584C23.7706 18.8958 23.1026 18.4497 22.3673 18.1454C21.6321 17.8411 20.8442 17.6847 20.0485 17.6851ZM19.7427 29.2387C18.7899 29.2388 17.8584 28.9563 17.0661 28.427C16.2738 27.8977 15.6563 27.1453 15.2917 26.265C14.927 25.3847 14.8316 24.416 15.0174 23.4815C15.2033 22.547 15.6621 21.6885 16.3359 21.0148C17.0096 20.341 17.8681 19.8822 18.8026 19.6963C19.7371 19.5104 20.7058 19.6059 21.5861 19.9706C22.4664 20.3352 23.2188 20.9527 23.7481 21.745C24.2774 22.5373 24.5599 23.4688 24.5598 24.4216C24.5598 25.0542 24.4352 25.6806 24.1932 26.2651C23.9511 26.8495 23.5962 27.3805 23.1489 27.8278C22.7016 28.2751 22.1706 28.63 21.5862 28.8721C21.0017 29.1141 20.3753 29.2387 19.7427 29.2387Z" fill="#F2A66E" />
  <path d="M18.3625 13.0683C12.2762 13.0683 7.34241 18.0021 7.34241 24.0884C7.34241 30.1747 12.2762 35.1085 18.3625 35.1085C24.4488 35.1085 29.3826 30.1743 29.3826 24.0884C29.3826 18.0024 24.4484 13.0683 18.3625 13.0683ZM18.3994 33.1244C12.9981 33.1244 8.62082 28.7471 8.62082 23.345C8.62082 17.943 12.9981 13.5657 18.4002 13.5657C23.8022 13.5657 28.1799 17.9437 28.1799 23.345C28.1799 28.7463 23.8015 33.1244 18.4002 33.1244H18.3994Z" fill="#FC6DFB" />
  <path d="M19.6483 10.9908C12.1924 10.9908 6.14706 17.0358 6.14706 24.492C6.14706 31.9483 12.1924 37.9932 19.6483 37.9932C27.1042 37.9932 33.1495 31.9487 33.1495 24.492C33.1495 17.0354 27.1046 10.9908 19.6483 10.9908ZM18.9097 36.8526C12.1388 36.8526 6.65001 31.3638 6.65001 24.5928C6.65001 17.8219 12.1396 12.3331 18.9097 12.3331C25.6799 12.3331 31.1695 17.8227 31.1695 24.5928C31.1695 31.363 25.6825 36.8526 18.9105 36.8526H18.9097Z" fill="#FFD600" />
  <g filter="url(#filter0_d)">
    <path d="M66.6266 14.678L68.3892 15.7381L70.2639 12.6211H66.6266V14.678ZM55.6066 33V35.0568H56.7697L57.3692 34.0601L55.6066 33ZM47.7686 33L45.7529 33.409L46.0873 35.0568H47.7686V33ZM44.0506 14.678V12.6211H41.5345L42.0349 15.087L44.0506 14.678ZM51.5201 14.678L53.5431 14.3064L53.2336 12.6211H51.5201V14.678ZM53.3289 24.5256L51.3059 24.8972L52.299 30.3041L55.0989 25.5732L53.3289 24.5256ZM59.1571 14.678V12.6211H57.9844L57.3871 13.6304L59.1571 14.678ZM64.864 13.6178L53.844 31.9399L57.3692 34.0601L68.3892 15.7381L64.864 13.6178ZM55.6066 30.9432H47.7686V35.0568H55.6066V30.9432ZM49.7844 32.591L46.0664 14.2689L42.0349 15.087L45.7529 33.409L49.7844 32.591ZM44.0506 16.7348L51.5201 16.7348V12.6211L44.0506 12.6211V16.7348ZM49.4972 15.0495L51.3059 24.8972L55.3519 24.1541L53.5431 14.3064L49.4972 15.0495ZM55.0989 25.5732L60.9272 15.7255L57.3871 13.6304L51.5588 23.4781L55.0989 25.5732ZM59.1571 16.7348H66.6266V12.6211L59.1571 12.6211V16.7348ZM69.1021 32.2966L68.2157 34.1526L68.227 34.158L68.2384 34.1633L69.1021 32.2966ZM65.6186 29.3155L63.8796 30.4138L63.8864 30.4246L63.8934 30.4354L65.6186 29.3155ZM65.8866 19.5013L67.6349 20.5848L67.6416 20.5738L65.8866 19.5013ZM69.9395 15.7163L68.9825 13.8957L68.9728 13.9008L69.9395 15.7163ZM81.0935 15.4149L80.2071 17.2709L80.2184 17.2763L80.2298 17.2816L81.0935 15.4149ZM84.5435 18.3625L82.8045 19.4608L82.8114 19.4716L82.8183 19.4823L84.5435 18.3625ZM84.3091 28.2101L86.0574 29.2936L86.0641 29.2827L84.3091 28.2101ZM80.2226 31.9616L79.2656 30.141L79.2559 30.1461L80.2226 31.9616ZM77.1745 26.2339L75.5868 24.9264L75.5752 24.9405L75.5638 24.9548L77.1745 26.2339ZM77.3755 21.1091L75.8276 22.4635L75.8576 22.4979L75.8892 22.5308L77.3755 21.1091ZM72.9876 21.4441L71.3999 20.1365L71.3883 20.1506L71.3769 20.165L72.9876 21.4441ZM72.7866 26.6024L71.2387 27.9568L71.2688 27.9911L71.3003 28.0241L72.7866 26.6024ZM74.3609 31.2781C72.5854 31.2781 71.1386 30.9725 69.9658 30.4299L68.2384 34.1633C70.0579 35.0051 72.1169 35.3918 74.3609 35.3918V31.2781ZM69.9886 30.4406C68.8018 29.8738 67.9447 29.1213 67.3438 28.1956L63.8934 30.4354C64.9449 32.0553 66.4102 33.2903 68.2157 34.1526L69.9886 30.4406ZM67.3576 28.2172C66.7869 27.3136 66.4696 26.2198 66.4696 24.8606H62.3559C62.3559 26.8956 62.8425 28.7717 63.8796 30.4138L67.3576 28.2172ZM66.4696 24.8606C66.4696 23.2299 66.8674 21.8233 67.6349 20.5848L64.1382 18.4179C62.9407 20.3503 62.3559 22.5165 62.3559 24.8606H66.4696ZM67.6416 20.5738C68.4258 19.2906 69.4997 18.2807 70.9062 17.5318L68.9728 13.9008C66.9404 14.983 65.3124 16.4964 64.1315 18.4288L67.6416 20.5738ZM70.8965 17.5369C72.3112 16.7933 73.9418 16.3998 75.8347 16.3998V12.2862C73.3509 12.2862 71.0513 12.8083 68.9825 13.8957L70.8965 17.5369ZM75.8347 16.3998C77.6017 16.3998 79.0402 16.7136 80.2071 17.2709L81.98 13.5589C80.1545 12.687 78.0872 12.2862 75.8347 12.2862V16.3998ZM80.2298 17.2816C81.4018 17.8238 82.2323 18.5547 82.8045 19.4608L86.2826 17.2641C85.247 15.6246 83.7775 14.3904 81.9572 13.5482L80.2298 17.2816ZM82.8183 19.4823C83.4031 20.3832 83.7261 21.4691 83.7261 22.8174H87.8397C87.8397 20.7714 87.3365 18.8874 86.2688 17.2426L82.8183 19.4823ZM83.7261 22.8174C83.7261 24.4479 83.3282 25.8708 82.554 27.1376L86.0641 29.2827C87.255 27.334 87.8397 25.1616 87.8397 22.8174H83.7261ZM82.5608 27.1267C81.7823 28.3829 80.7012 29.3864 79.2656 30.141L81.1796 33.7823C83.2276 32.7058 84.8708 31.2083 86.0574 29.2936L82.5608 27.1267ZM79.2559 30.1461C77.8692 30.8845 76.2543 31.2781 74.3609 31.2781V35.3918C76.8442 35.3918 79.1372 34.8698 81.1893 33.7771L79.2559 30.1461ZM74.7964 29.4296C76.3965 29.4296 77.7861 28.7712 78.7853 27.513L75.5638 24.9548C75.3572 25.215 75.1613 25.3159 74.7964 25.3159V29.4296ZM78.7623 27.5414C79.7704 26.3172 80.1692 24.7933 80.1692 23.1858H76.0556C76.0556 24.124 75.8292 24.6321 75.5868 24.9264L78.7623 27.5414ZM80.1692 23.1858C80.1692 21.9113 79.798 20.6661 78.8619 19.6874L75.8892 22.5308C75.9356 22.5793 76.0556 22.7186 76.0556 23.1858H80.1692ZM78.9234 19.7547C77.9888 18.6865 76.7164 18.2484 75.3993 18.2484V22.362C75.6081 22.362 75.7141 22.3949 75.7547 22.4114C75.7867 22.4244 75.804 22.4366 75.8276 22.4635L78.9234 19.7547ZM75.3993 18.2484C73.8014 18.2484 72.4154 18.9034 71.3999 20.1365L74.5753 22.7516C74.8103 22.4662 75.0321 22.362 75.3993 22.362V18.2484ZM71.3769 20.165C70.4057 21.3879 70.0264 22.9009 70.0264 24.4921H74.14C74.14 23.5377 74.3636 23.0187 74.5983 22.7232L71.3769 20.165ZM70.0264 24.4921C70.0264 25.7454 70.3727 26.9671 71.2387 27.9568L74.3345 25.2479C74.2627 25.1658 74.14 24.9807 74.14 24.4921H70.0264ZM71.3003 28.0241C72.2539 29.0211 73.504 29.4296 74.7964 29.4296V25.3159C74.3916 25.3159 74.3019 25.2108 74.273 25.1806L71.3003 28.0241ZM96.6616 16.5537L94.6433 16.1573L93.3594 22.6938L98.105 18.019L96.6616 16.5537ZM103.093 14.343L105.11 14.7464L105.602 12.2862H103.093V14.343ZM101.753 21.0421L101.428 23.0731L103.382 23.3857L103.77 21.4455L101.753 21.0421ZM97.03 21.779L98.2721 23.4185L98.2795 23.4129L97.03 21.779ZM95.5228 24.5256L93.51 24.1019L93.5082 24.1105L93.5065 24.1192L95.5228 24.5256ZM93.8145 33V35.0568H95.4981L95.8307 33.4064L93.8145 33ZM86.2445 33L84.2273 32.598L83.7374 35.0568H86.2445V33ZM89.8955 14.678V12.6211H88.2081L87.8783 14.276L89.8955 14.678ZM97.03 14.678L99.0483 15.0744L99.5302 12.6211H97.03V14.678ZM98.105 18.019C99.1029 17.036 100.658 16.3998 103.093 16.3998V12.2862C99.9447 12.2862 97.2126 13.1238 95.2182 15.0884L98.105 18.019ZM101.076 13.9396L99.736 20.6387L103.77 21.4455L105.11 14.7464L101.076 13.9396ZM102.078 19.0111C101.418 18.9055 100.762 18.8513 100.112 18.8513V22.9649C100.533 22.9649 100.971 23 101.428 23.0731L102.078 19.0111ZM100.112 18.8513C98.5236 18.8513 97.007 19.2073 95.7806 20.1452L98.2795 23.4129C98.5715 23.1895 99.1094 22.9649 100.112 22.9649V18.8513ZM95.788 20.1395C94.5215 21.099 93.8389 22.5401 93.51 24.1019L97.5354 24.9494C97.7426 23.9656 98.0648 23.5755 98.2721 23.4185L95.788 20.1395ZM93.5065 24.1192L91.7982 32.5936L95.8307 33.4064L97.539 24.9321L93.5065 24.1192ZM93.8145 30.9432L86.2445 30.9432V35.0568H93.8145V30.9432ZM88.2617 33.402L91.9127 15.0799L87.8783 14.276L84.2273 32.598L88.2617 33.402ZM89.8955 16.7348H97.03V12.6211L89.8955 12.6211V16.7348ZM95.0118 14.2815L94.6433 16.1573L98.6798 16.9502L99.0483 15.0744L95.0118 14.2815ZM111.859 25.7985L109.841 25.4008L109.835 25.4305L109.83 25.4603L111.859 25.7985ZM114.873 27.1718L116.901 26.825L116.447 24.1734L114.007 25.3062L114.873 27.1718ZM115.744 32.2631L116.738 34.064L118.018 33.3576L117.771 31.9163L115.744 32.2631ZM105.863 31.8612L104.532 33.4291L104.548 33.4425L104.564 33.4557L105.863 31.8612ZM104.289 25.832L106.3 26.2629L106.302 26.252L106.304 26.241L104.289 25.832ZM105.226 21.2096L107.242 21.6186L107.743 19.1528H105.226V21.2096ZM102.681 21.2096L100.664 20.8062L100.172 23.2664H102.681V21.2096ZM103.786 15.6828V13.626H102.1L101.769 15.2795L103.786 15.6828ZM106.298 15.6828V17.7396H107.98L108.314 16.0913L106.298 15.6828ZM107.337 10.558V8.5012L105.655 8.5012L105.321 10.1496L107.337 10.558ZM114.907 10.558L116.923 10.9665L117.422 8.5012L114.907 8.5012V10.558ZM113.868 15.6828L111.852 15.2744L111.353 17.7396L113.868 17.7396V15.6828ZM117.62 15.6828L119.637 16.0862L120.129 13.626H117.62V15.6828ZM116.514 21.2096V23.2664H118.201L118.531 21.613L116.514 21.2096ZM112.763 21.2096V19.1528L111.072 19.1528L110.745 20.8119L112.763 21.2096ZM109.83 25.4603C109.79 25.698 109.735 26.0459 109.735 26.3344L113.848 26.3344C113.848 26.3647 113.848 26.3872 113.847 26.3994C113.846 26.4122 113.846 26.4199 113.846 26.4215C113.845 26.4237 113.846 26.4139 113.849 26.3885C113.856 26.3371 113.868 26.2553 113.887 26.1366L109.83 25.4603ZM109.735 26.3344C109.735 27.1318 109.965 28.0915 110.763 28.8142C111.523 29.5016 112.46 29.664 113.198 29.664V25.5504C112.998 25.5504 113.233 25.5007 113.523 25.7638C113.67 25.8967 113.762 26.0507 113.81 26.1802C113.853 26.2979 113.848 26.3624 113.848 26.3344L109.735 26.3344ZM113.198 29.664C114.084 29.664 114.945 29.4062 115.739 29.0373L114.007 25.3062C113.551 25.518 113.295 25.5504 113.198 25.5504V29.664ZM112.846 27.5186L113.717 32.6099L117.771 31.9163L116.901 26.825L112.846 27.5186ZM114.75 30.4622C113.849 30.9594 112.568 31.2781 110.787 31.2781V35.3918C113.025 35.3918 115.049 34.9959 116.738 34.064L114.75 30.4622ZM110.787 31.2781C109.024 31.2781 107.894 30.8631 107.162 30.2666L104.564 33.4557C106.243 34.8243 108.396 35.3918 110.787 35.3918V31.2781ZM107.194 30.2933C106.549 29.7455 106.144 28.9563 106.144 27.6407H102.031C102.031 29.9427 102.81 31.9671 104.532 33.4291L107.194 30.2933ZM106.144 27.6407C106.144 27.2187 106.193 26.7606 106.3 26.2629L102.277 25.401C102.116 26.1538 102.031 26.9015 102.031 27.6407H106.144ZM106.304 26.241L107.242 21.6186L103.211 20.8006L102.273 25.423L106.304 26.241ZM105.226 19.1528H102.681V23.2664H105.226V19.1528ZM104.698 21.613L105.803 16.0862L101.769 15.2795L100.664 20.8062L104.698 21.613ZM103.786 17.7396H106.298V13.626L103.786 13.626V17.7396ZM108.314 16.0913L109.353 10.9665L105.321 10.1496L104.282 15.2744L108.314 16.0913ZM107.337 12.6148H114.907V8.5012H107.337V12.6148ZM112.891 10.1496L111.852 15.2744L115.884 16.0913L116.923 10.9665L112.891 10.1496ZM113.868 17.7396H117.62V13.626L113.868 13.626V17.7396ZM115.603 15.2795L114.498 20.8062L118.531 21.613L119.637 16.0862L115.603 15.2795ZM116.514 19.1528H112.763V23.2664H116.514V19.1528ZM110.745 20.8119L109.841 25.4008L113.877 26.1962L114.781 21.6073L110.745 20.8119ZM138.029 25.5975V27.6543H139.651L140.029 26.0775L138.029 25.5975ZM125.2 25.5975V23.5407H122.677L123.186 26.0123L125.2 25.5975ZM126.306 27.2388L125.278 29.0204V29.0204L126.306 27.2388ZM132.703 26.4684L134.399 25.3047L133.189 23.5413L131.474 24.819L132.703 26.4684ZM135.852 31.0573L137.008 32.7581L138.716 31.5967L137.548 29.8936L135.852 31.0573ZM122.554 32.2966L121.701 34.1681L121.711 34.1728L122.554 32.2966ZM119.004 29.349L117.278 30.4689L117.285 30.4794L117.292 30.4899L119.004 29.349ZM119.171 19.4678L117.405 18.4132L117.401 18.4206L119.171 19.4678ZM123.191 15.7163L124.139 17.5416L124.148 17.5367L124.157 17.5318L123.191 15.7163ZM134.11 15.3814L133.202 17.2269L133.214 17.2327L133.226 17.2384L134.11 15.3814ZM137.326 18.2285L135.562 19.2867L135.566 19.2939L135.571 19.301L137.326 18.2285ZM126.708 20.1712L127.984 21.7839L127.992 21.7773L126.708 20.1712ZM125.502 21.9465L123.562 21.2619L122.595 24.0033H125.502V21.9465ZM131.497 21.9465V24.0033L133.554 24.0033V21.9465L131.497 21.9465ZM130.761 20.1712L129.377 21.6931L129.396 21.7108L129.416 21.7279L130.761 20.1712ZM136.374 22.4154C136.374 23.2376 136.265 24.1363 136.029 25.1175L140.029 26.0775C140.33 24.8256 140.488 23.603 140.488 22.4154H136.374ZM138.029 23.5407L125.2 23.5407V27.6543L138.029 27.6543V23.5407ZM123.186 26.0123C123.44 27.2477 124.106 28.3445 125.278 29.0204L127.333 25.4572C127.318 25.4481 127.312 25.4425 127.31 25.4412C127.309 25.44 127.306 25.4369 127.3 25.4283C127.289 25.4124 127.248 25.3451 127.215 25.1827L123.186 26.0123ZM125.278 29.0204C126.295 29.607 127.506 29.798 128.717 29.798V25.6844C127.875 25.6844 127.478 25.5405 127.333 25.4572L125.278 29.0204ZM128.717 29.798C130.646 29.798 132.413 29.2497 133.932 28.1177L131.474 24.819C130.716 25.3842 129.826 25.6844 128.717 25.6844V29.798ZM131.007 27.632L134.156 32.2209L137.548 29.8936L134.399 25.3047L131.007 27.632ZM134.695 29.3564C132.852 30.6096 130.601 31.2781 127.846 31.2781V35.3918C131.299 35.3918 134.385 34.5418 137.008 32.7581L134.695 29.3564ZM127.846 31.2781C126.099 31.2781 124.63 30.9744 123.397 30.4204L121.711 34.1728C123.56 35.0033 125.619 35.3918 127.846 35.3918V31.2781ZM123.407 30.4251C122.205 29.8767 121.332 29.1335 120.715 28.2081L117.292 30.4899C118.372 32.1102 119.867 33.332 121.701 34.1681L123.407 30.4251ZM120.729 28.2291C120.147 27.3326 119.821 26.237 119.821 24.8606H115.707C115.707 26.923 116.208 28.8197 117.278 30.4689L120.729 28.2291ZM119.821 24.8606C119.821 23.1847 120.208 21.7549 120.941 20.515L117.401 18.4206C116.258 20.3517 115.707 22.517 115.707 24.8606H119.821ZM120.937 20.5224C121.694 19.2542 122.746 18.2652 124.139 17.5416L122.242 13.8911C120.196 14.9539 118.568 16.4659 117.405 18.4132L120.937 20.5224ZM124.157 17.5318C125.538 16.7966 127.174 16.3998 129.119 16.3998V12.2862C126.599 12.2862 124.282 12.805 122.224 13.9008L124.157 17.5318ZM129.119 16.3998C130.794 16.3998 132.134 16.7014 133.202 17.2269L135.018 13.5359C133.272 12.6769 131.285 12.2862 129.119 12.2862V16.3998ZM133.226 17.2384C134.301 17.7503 135.052 18.436 135.562 19.2867L139.089 17.1703C138.126 15.5646 136.733 14.3523 134.994 13.5243L133.226 17.2384ZM135.571 19.301C136.087 20.1458 136.374 21.1611 136.374 22.4154H140.488C140.488 20.4989 140.038 18.7229 139.081 17.156L135.571 19.301ZM128.784 17.4445C127.567 17.4445 126.401 17.7824 125.423 18.5651L127.992 21.7773C128.131 21.6668 128.349 21.5581 128.784 21.5581V17.4445ZM125.431 18.5586C124.54 19.2636 123.936 20.2031 123.562 21.2619L127.441 22.631C127.604 22.1715 127.803 21.9274 127.984 21.7839L125.431 18.5586ZM125.502 24.0033H131.497V19.8897H125.502V24.0033ZM133.554 21.9465C133.554 20.7016 133.127 19.4973 132.105 18.6146L129.416 21.7279C129.423 21.7339 129.422 21.7341 129.418 21.7284C129.414 21.7227 129.412 21.7191 129.414 21.7218C129.415 21.726 129.441 21.7883 129.441 21.9465L133.554 21.9465ZM132.144 18.6493C131.188 17.7798 129.992 17.4445 128.784 17.4445V21.5581C129.229 21.5581 129.351 21.6694 129.377 21.6931L132.144 18.6493ZM153.329 23.9227L151.846 22.4982L150.814 23.5726L151.513 24.8878L153.329 23.9227ZM158.153 33V35.0568H161.575L159.969 32.0349L158.153 33ZM150.114 33L148.271 33.9135L148.838 35.0568H150.114V33ZM148.171 29.081L150.014 28.1675L148.68 25.4768L146.653 27.6929L148.171 29.081ZM144.587 33V35.0568H145.493L146.105 34.3881L144.587 33ZM136.046 33L134.576 31.5615L131.155 35.0568H136.046V33ZM145.19 23.6548L146.66 25.0933L147.711 24.0194L147.007 22.6918L145.19 23.6548ZM140.434 14.678V12.6211L137.016 12.6211L138.616 15.6409L140.434 14.678ZM148.372 14.678L150.212 13.7581L149.643 12.6211H148.372V14.678ZM150.315 18.5634L148.475 19.4833L149.801 22.1342L151.82 19.965L150.315 18.5634ZM153.932 14.678V12.6211H153.037L152.427 13.2764L153.932 14.678ZM162.206 14.678L163.689 16.1025L167.032 12.6211H162.206V14.678ZM151.513 24.8878L156.336 33.9651L159.969 32.0349L155.146 22.9576L151.513 24.8878ZM158.153 30.9432L150.114 30.9432V35.0568H158.153V30.9432ZM151.957 32.0865L150.014 28.1675L146.328 29.9946L148.271 33.9135L151.957 32.0865ZM146.653 27.6929L143.069 31.6119L146.105 34.3881L149.689 30.4691L146.653 27.6929ZM144.587 30.9432H136.046V35.0568H144.587V30.9432ZM137.516 34.4385L146.66 25.0933L143.72 22.2163L134.576 31.5615L137.516 34.4385ZM147.007 22.6918L142.251 13.715L138.616 15.6409L143.373 24.6177L147.007 22.6918ZM140.434 16.7348H148.372V12.6211H140.434V16.7348ZM146.532 15.5978L148.475 19.4833L152.155 17.6436L150.212 13.7581L146.532 15.5978ZM151.82 19.965L155.438 16.0795L152.427 13.2764L148.809 17.1619L151.82 19.965ZM153.932 16.7348L162.206 16.7348V12.6211L153.932 12.6211V16.7348ZM160.722 13.2534L151.846 22.4982L154.813 25.3472L163.689 16.1025L160.722 13.2534Z" fill="#A6A5FB" />
  </g>
  <g filter="url(#filter1_d)">
    <path d="M66.6266 14.678L55.6066 33H47.7686L44.0506 14.678L51.5201 14.678L53.3289 24.5256L59.1571 14.678L66.6266 14.678ZM74.3609 33.335C72.3512 33.335 70.5983 32.9888 69.1021 32.2966C67.606 31.582 66.4448 30.5883 65.6186 29.3155C64.8147 28.0427 64.4128 26.5577 64.4128 24.8606C64.4128 22.8732 64.904 21.0868 65.8866 19.5013C66.8691 17.8935 68.2201 16.6319 69.9395 15.7163C71.6813 14.8008 73.6464 14.343 75.8347 14.343C77.8445 14.343 79.5974 14.7003 81.0935 15.4149C82.5896 16.1071 83.7397 17.0896 84.5436 18.3625C85.3698 19.6353 85.7829 21.1203 85.7829 22.8174C85.7829 24.8048 85.2916 26.6024 84.3091 28.2101C83.3265 29.7956 81.9644 31.0461 80.2226 31.9616C78.5032 32.8772 76.5493 33.335 74.3609 33.335ZM74.7964 27.3728C75.7789 27.3728 76.5716 26.9931 77.1745 26.2339C77.7998 25.4747 78.1124 24.4586 78.1124 23.1858C78.1124 22.3149 77.8668 21.6227 77.3755 21.1091C76.9066 20.5732 76.2478 20.3052 75.3993 20.3052C74.4167 20.3052 73.6129 20.6848 72.9876 21.4441C72.3847 22.2033 72.0832 23.2193 72.0832 24.4921C72.0832 25.363 72.3177 26.0664 72.7866 26.6024C73.2779 27.116 73.9478 27.3728 74.7964 27.3728ZM96.6616 16.5537C98.1577 15.0799 100.301 14.343 103.093 14.343L101.753 21.0421C101.195 20.9528 100.648 20.9081 100.112 20.9081C98.8165 20.9081 97.7893 21.1984 97.03 21.779C96.2931 22.3373 95.7907 23.2528 95.5227 24.5256L93.8145 33H86.2445L89.8955 14.678L97.03 14.678L96.6616 16.5537ZM111.859 25.7985C111.814 26.0664 111.792 26.2451 111.792 26.3344C111.792 27.1829 112.261 27.6072 113.198 27.6072C113.69 27.6072 114.248 27.4621 114.873 27.1718L115.744 32.2631C114.449 32.9777 112.796 33.335 110.787 33.335C108.71 33.335 107.069 32.8437 105.863 31.8612C104.679 30.8563 104.088 29.4495 104.088 27.6407C104.088 27.0601 104.155 26.4572 104.289 25.832L105.226 21.2096H102.681L103.786 15.6828L106.298 15.6828L107.337 10.558H114.907L113.868 15.6828L117.62 15.6828L116.514 21.2096H112.763L111.859 25.7985ZM138.431 22.4154C138.431 23.4203 138.297 24.481 138.029 25.5975L125.2 25.5975C125.357 26.3567 125.725 26.9038 126.306 27.2388C126.886 27.5737 127.69 27.7412 128.717 27.7412C130.236 27.7412 131.564 27.3169 132.703 26.4684L135.852 31.0573C133.619 32.5757 130.95 33.335 127.846 33.335C125.859 33.335 124.095 32.9888 122.554 32.2966C121.036 31.6044 119.852 30.6218 119.004 29.349C118.177 28.0762 117.764 26.58 117.764 24.8606C117.764 22.8509 118.233 21.0533 119.171 19.4678C120.131 17.86 121.471 16.6095 123.191 15.7163C124.91 14.8008 126.886 14.343 129.119 14.343C131.04 14.343 132.703 14.6891 134.11 15.3814C135.517 16.0513 136.589 17.0003 137.326 18.2285C138.063 19.4343 138.431 20.83 138.431 22.4154ZM128.784 19.5013C127.958 19.5013 127.266 19.7246 126.708 20.1712C126.172 20.5955 125.77 21.1873 125.502 21.9465H131.497C131.497 21.1873 131.252 20.5955 130.761 20.1712C130.269 19.7246 129.611 19.5013 128.784 19.5013ZM153.329 23.9227L158.153 33H150.114L148.171 29.081L144.587 33H136.046L145.19 23.6548L140.434 14.678H148.372L150.315 18.5634L153.932 14.678L162.206 14.678L153.329 23.9227Z" fill="#1A1B2E" />
    <path d="M66.6266 14.678L67.0267 14.9186L67.4522 14.2111H66.6266V14.678ZM55.6066 33V33.4669H55.8706L56.0067 33.2406L55.6066 33ZM47.7686 33L47.3111 33.0928L47.387 33.4669H47.7686V33ZM44.0506 14.678V14.2111H43.4795L43.5931 14.7708L44.0506 14.678ZM51.5201 14.678L51.9793 14.5936L51.9091 14.2111H51.5201V14.678ZM53.3289 24.5256L52.8697 24.61L53.0951 25.8373L53.7307 24.7634L53.3289 24.5256ZM59.1571 14.678V14.2111H58.8909L58.7553 14.4402L59.1571 14.678ZM66.2265 14.4373L55.2065 32.7594L56.0067 33.2406L67.0267 14.9186L66.2265 14.4373ZM55.6066 32.5331H47.7686V33.4669H55.6066V32.5331ZM48.2262 32.9072L44.5082 14.5851L43.5931 14.7708L47.3111 33.0928L48.2262 32.9072ZM44.0506 15.1448L51.5201 15.1448V14.2111L44.0506 14.2111V15.1448ZM51.061 14.7623L52.8697 24.61L53.7881 24.4413L51.9793 14.5936L51.061 14.7623ZM53.7307 24.7634L59.5589 14.9157L58.7553 14.4402L52.9271 24.2879L53.7307 24.7634ZM59.1571 15.1448L66.6266 15.1448V14.2111L59.1571 14.2111V15.1448ZM69.1021 32.2966L68.9009 32.7179L68.9061 32.7203L69.1021 32.2966ZM65.6186 29.3155L65.2238 29.5648L65.227 29.5697L65.6186 29.3155ZM65.8866 19.5013L66.2834 19.7472L66.2849 19.7448L65.8866 19.5013ZM69.9395 15.7163L69.7223 15.3031L69.7201 15.3042L69.9395 15.7163ZM81.0935 15.4149L80.8923 15.8362L80.8975 15.8386L81.0935 15.4149ZM84.5435 18.3625L84.1488 18.6118L84.152 18.6167L84.5435 18.3625ZM84.3091 28.2101L84.7059 28.4561L84.7075 28.4536L84.3091 28.2101ZM80.2226 31.9616L80.0054 31.5484L80.0032 31.5496L80.2226 31.9616ZM77.1745 26.2339L76.8141 25.9371L76.8089 25.9436L77.1745 26.2339ZM77.3755 21.1091L77.0242 21.4165L77.031 21.4243L77.0381 21.4318L77.3755 21.1091ZM72.9876 21.4441L72.6272 21.1472L72.622 21.1537L72.9876 21.4441ZM72.7866 26.6024L72.4353 26.9098L72.4421 26.9176L72.4493 26.9251L72.7866 26.6024ZM74.3609 32.8681C72.4044 32.8681 70.7209 32.5312 69.2982 31.8729L68.9061 32.7203C70.4756 33.4465 72.298 33.8018 74.3609 33.8018V32.8681ZM69.3033 31.8753C67.8774 31.1943 66.7853 30.2553 66.0102 29.0613L65.227 29.5697C66.1044 30.9213 67.3346 31.9698 68.9009 32.7179L69.3033 31.8753ZM66.0133 29.0662C65.2624 27.8772 64.8796 26.481 64.8796 24.8606H63.9459C63.9459 26.6344 64.367 28.2082 65.2239 29.5648L66.0133 29.0662ZM64.8796 24.8606C64.8796 22.9542 65.3497 21.2539 66.2834 19.7472L65.4897 19.2554C64.4584 20.9196 63.9459 22.7922 63.9459 24.8606H64.8796ZM66.2849 19.7448C67.2224 18.2106 68.5105 17.0061 70.1589 16.1284L69.7201 15.3042C67.9296 16.2576 66.5158 17.5764 65.4882 19.2579L66.2849 19.7448ZM70.1567 16.1296C71.8243 15.253 73.7134 14.8099 75.8347 14.8099V13.8761C73.5793 13.8761 71.5383 14.3485 69.7223 15.3031L70.1567 16.1296ZM75.8347 14.8099C77.7894 14.8099 79.4709 15.1573 80.8923 15.8361L81.2947 14.9936C79.7239 14.2433 77.8996 13.8761 75.8347 13.8761V14.8099ZM80.8975 15.8386C82.32 16.4968 83.3975 17.4222 84.1488 18.6118L84.9383 18.1132C84.0818 16.7571 82.8593 15.7174 81.2896 14.9912L80.8975 15.8386ZM84.152 18.6167C84.9234 19.8051 85.316 21.1994 85.316 22.8174H86.2497C86.2497 21.0411 85.8162 19.4655 84.9351 18.1083L84.152 18.6167ZM85.316 22.8174C85.316 24.7238 84.846 26.4363 83.9107 27.9667L84.7075 28.4536C85.7373 26.7684 86.2497 24.8858 86.2497 22.8174H85.316ZM83.9122 27.9642C82.976 29.4749 81.6777 30.6694 80.0054 31.5484L80.4399 32.3749C82.2511 31.4228 83.6771 30.1163 84.7059 28.4561L83.9122 27.9642ZM80.0032 31.5496C78.3593 32.4249 76.4823 32.8681 74.3609 32.8681V33.8018C76.6162 33.8018 78.6471 33.3295 80.4421 32.3737L80.0032 31.5496ZM74.7964 27.8396C75.9191 27.8396 76.8473 27.3967 77.5401 26.5242L76.8089 25.9436C76.296 26.5895 75.6387 26.9059 74.7964 26.9059V27.8396ZM77.5349 26.5307C78.2471 25.6659 78.5793 24.5346 78.5793 23.1858H77.6456C77.6456 24.3827 77.3525 25.2834 76.8142 25.9371L77.5349 26.5307ZM78.5793 23.1858C78.5793 22.2233 78.3051 21.4056 77.7129 20.7864L77.0381 21.4318C77.4284 21.8398 77.6456 22.4066 77.6456 23.1858H78.5793ZM77.7269 20.8017C77.1522 20.1449 76.3542 19.8383 75.3993 19.8383V20.7721C76.1415 20.7721 76.6609 21.0014 77.0242 21.4165L77.7269 20.8017ZM75.3993 19.8383C74.2771 19.8383 73.341 20.2805 72.6272 21.1473L73.348 21.7408C73.8847 21.0892 74.5564 20.7721 75.3993 20.7721V19.8383ZM72.622 21.1537C71.9355 22.0182 71.6164 23.147 71.6164 24.4921H72.5501C72.5501 23.2916 72.8339 22.3884 73.3532 21.7344L72.622 21.1537ZM71.6164 24.4921C71.6164 25.4498 71.8762 26.2709 72.4353 26.9098L73.138 26.2949C72.7592 25.862 72.5501 25.2762 72.5501 24.4921H71.6164ZM72.4493 26.9251C73.0455 27.5484 73.8471 27.8396 74.7964 27.8396V26.9059C74.0485 26.9059 73.5103 26.6835 73.124 26.2797L72.4493 26.9251ZM96.6616 16.5537L96.2035 16.4637L95.912 17.9474L96.9892 16.8863L96.6616 16.5537ZM103.093 14.343L103.551 14.4346L103.662 13.8761H103.093V14.343ZM101.753 21.0421L101.679 21.5031L102.123 21.5741L102.211 21.1337L101.753 21.0421ZM97.03 21.779L97.312 22.1511L97.3136 22.1499L97.03 21.779ZM95.5228 24.5256L95.0659 24.4295L95.0651 24.4334L95.5228 24.5256ZM93.8145 33V33.4669H94.1966L94.2721 33.0923L93.8145 33ZM86.2445 33L85.7866 32.9088L85.6754 33.4669H86.2445V33ZM89.8955 14.678V14.2111H89.5125L89.4376 14.5867L89.8955 14.678ZM97.03 14.678L97.4882 14.7679L97.5975 14.2111H97.03V14.678ZM96.9892 16.8863C98.3723 15.5239 100.382 14.8099 103.093 14.8099V13.8761C100.22 13.8761 97.9432 14.6359 96.334 16.2211L96.9892 16.8863ZM102.635 14.2514L101.295 20.9505L102.211 21.1337L103.551 14.4346L102.635 14.2514ZM101.827 20.5811C101.245 20.4881 100.674 20.4413 100.112 20.4413V21.375C100.622 21.375 101.144 21.4175 101.679 21.5031L101.827 20.5811ZM100.112 20.4413C98.75 20.4413 97.6117 20.7465 96.7465 21.4082L97.3136 22.1499C97.9668 21.6504 98.883 21.375 100.112 21.375V20.4413ZM96.7481 21.4069C95.891 22.0562 95.3477 23.091 95.0659 24.4295L95.9796 24.6218C96.2337 23.4146 96.6953 22.6183 97.312 22.1511L96.7481 21.4069ZM95.0651 24.4334L93.3568 32.9077L94.2721 33.0923L95.9804 24.6179L95.0651 24.4334ZM93.8145 32.5331H86.2445V33.4669H93.8145V32.5331ZM86.7024 33.0912L90.3534 14.7692L89.4376 14.5867L85.7866 32.9088L86.7024 33.0912ZM89.8955 15.1448L97.03 15.1448V14.2111L89.8955 14.2111V15.1448ZM96.5719 14.588L96.2035 16.4637L97.1197 16.6437L97.4882 14.7679L96.5719 14.588ZM111.859 25.7985L111.4 25.7082L111.398 25.7217L111.859 25.7985ZM114.873 27.1718L115.333 27.0931L115.23 26.4912L114.677 26.7483L114.873 27.1718ZM115.744 32.2631L115.97 32.6719L116.26 32.5115L116.204 32.1844L115.744 32.2631ZM105.863 31.8612L105.561 32.2171L105.568 32.2231L105.863 31.8612ZM104.289 25.832L104.745 25.9298L104.746 25.9248L104.289 25.832ZM105.226 21.2096L105.684 21.3024L105.798 20.7427H105.226V21.2096ZM102.681 21.2096L102.223 21.118L102.111 21.6764H102.681V21.2096ZM103.786 15.6828V15.216H103.403L103.328 15.5913L103.786 15.6828ZM106.298 15.6828V16.1497H106.68L106.756 15.7755L106.298 15.6828ZM107.337 10.558V10.0912H106.955L106.879 10.4653L107.337 10.558ZM114.907 10.558L115.364 10.6507L115.478 10.0912H114.907V10.558ZM113.868 15.6828L113.411 15.5901L113.297 16.1497H113.868V15.6828ZM117.62 15.6828L118.078 15.7744L118.189 15.216H117.62V15.6828ZM116.514 21.2096V21.6764H116.897L116.972 21.3011L116.514 21.2096ZM112.763 21.2096V20.7427H112.379L112.305 21.1193L112.763 21.2096ZM111.398 25.7217C111.355 25.9828 111.325 26.1999 111.325 26.3344L112.258 26.3344C112.258 26.2903 112.273 26.15 112.319 25.8752L111.398 25.7217ZM111.325 26.3344C111.325 26.8434 111.468 27.3072 111.83 27.6352C112.184 27.9552 112.668 28.0741 113.198 28.0741V27.1404C112.791 27.1404 112.572 27.0471 112.457 26.9428C112.35 26.8466 112.258 26.674 112.258 26.3344L111.325 26.3344ZM113.198 28.0741C113.779 28.0741 114.406 27.9034 115.07 27.5952L114.677 26.7483C114.09 27.0208 113.6 27.1404 113.198 27.1404V28.0741ZM114.413 27.2505L115.284 32.3418L116.204 32.1844L115.333 27.0931L114.413 27.2505ZM115.519 31.8543C114.313 32.5196 112.745 32.8681 110.787 32.8681V33.8018C112.848 33.8018 114.585 33.4358 115.97 32.6719L115.519 31.8543ZM110.787 32.8681C108.781 32.8681 107.256 32.3941 106.158 31.4992L105.568 32.2231C106.881 33.2932 108.639 33.8018 110.787 33.8018V32.8681ZM106.165 31.5053C105.104 30.6042 104.555 29.3375 104.555 27.6407H103.621C103.621 29.5614 104.255 31.1084 105.561 32.217L106.165 31.5053ZM104.555 27.6407C104.555 27.0961 104.617 26.5261 104.745 25.9298L103.832 25.7341C103.692 26.3883 103.621 27.0241 103.621 27.6407H104.555ZM104.746 25.9248L105.684 21.3024L104.769 21.1168L103.831 25.7391L104.746 25.9248ZM105.226 20.7427H102.681V21.6764H105.226V20.7427ZM103.139 21.3011L104.244 15.7744L103.328 15.5913L102.223 21.118L103.139 21.3011ZM103.786 16.1497H106.298V15.216L103.786 15.216V16.1497ZM106.756 15.7755L107.794 10.6507L106.879 10.4653L105.841 15.5901L106.756 15.7755ZM107.337 11.0249H114.907V10.0912H107.337V11.0249ZM114.449 10.4653L113.411 15.5901L114.326 15.7755L115.364 10.6507L114.449 10.4653ZM113.868 16.1497H117.62V15.216L113.868 15.216V16.1497ZM117.162 15.5913L116.057 21.118L116.972 21.3011L118.078 15.7744L117.162 15.5913ZM116.514 20.7427H112.763V21.6764H116.514V20.7427ZM112.305 21.1193L111.401 25.7082L112.317 25.8887L113.221 21.2999L112.305 21.1193ZM138.029 25.5975V26.0644H138.397L138.483 25.7064L138.029 25.5975ZM125.2 25.5975V25.1306H124.628L124.743 25.6916L125.2 25.5975ZM126.306 27.2388L126.072 27.6432L126.306 27.2388ZM132.703 26.4684L133.088 26.2042L132.814 25.804L132.424 26.094L132.703 26.4684ZM135.852 31.0573L136.114 31.4433L136.502 31.1797L136.237 30.7931L135.852 31.0573ZM122.554 32.2966L122.36 32.7214L122.363 32.7225L122.554 32.2966ZM119.004 29.349L118.612 29.6032L118.615 29.608L119.004 29.349ZM119.171 19.4678L118.77 19.2284L118.769 19.2301L119.171 19.4678ZM123.191 15.7163L123.406 16.1306L123.41 16.1284L123.191 15.7163ZM134.11 15.3814L133.904 15.8003L133.909 15.8029L134.11 15.3814ZM137.326 18.2285L136.925 18.4687L136.927 18.4719L137.326 18.2285ZM126.708 20.1712L126.997 20.5373L126.999 20.5358L126.708 20.1712ZM125.502 21.9465L125.061 21.7911L124.842 22.4133H125.502V21.9465ZM131.497 21.9465V22.4133H131.964V21.9465H131.497ZM130.761 20.1712L130.446 20.5168L130.455 20.5246L130.761 20.1712ZM137.964 22.4154C137.964 23.3788 137.836 24.4027 137.575 25.4885L138.483 25.7064C138.758 24.5592 138.898 23.4618 138.898 22.4154H137.964ZM138.029 25.1306L125.2 25.1306V26.0644L138.029 26.0644V25.1306ZM124.743 25.6916C124.922 26.559 125.358 27.2308 126.072 27.6432L126.539 26.8344C126.092 26.5768 125.792 26.1545 125.658 25.5034L124.743 25.6916ZM126.072 27.6432C126.752 28.0352 127.648 28.2081 128.717 28.2081V27.2743C127.732 27.2743 127.021 27.1122 126.539 26.8344L126.072 27.6432ZM128.717 28.2081C130.329 28.2081 131.757 27.7556 132.982 26.8427L132.424 26.094C131.372 26.8782 130.143 27.2743 128.717 27.2743V28.2081ZM132.318 26.7325L135.467 31.3214L136.237 30.7931L133.088 26.2042L132.318 26.7325ZM135.589 30.6712C133.445 32.1295 130.871 32.8681 127.846 32.8681V33.8018C131.03 33.8018 133.793 33.022 136.114 31.4433L135.589 30.6712ZM127.846 32.8681C125.913 32.8681 124.216 32.5316 122.745 31.8707L122.363 32.7225C123.973 33.4461 125.805 33.8018 127.846 33.8018V32.8681ZM122.748 31.8718C121.301 31.2122 120.188 30.284 119.392 29.09L118.615 29.608C119.516 30.9596 120.77 31.9965 122.36 32.7214L122.748 31.8718ZM119.395 29.0948C118.624 27.9074 118.231 26.5022 118.231 24.8606H117.297C117.297 26.6579 117.73 28.2449 118.612 29.6032L119.395 29.0948ZM118.231 24.8606C118.231 22.9266 118.681 21.2125 119.573 19.7055L118.769 19.2301C117.785 20.894 117.297 22.7751 117.297 24.8606H118.231ZM119.572 19.7072C120.486 18.1765 121.76 16.9853 123.406 16.1306L122.975 15.302C121.182 16.2337 119.776 17.5436 118.77 19.2284L119.572 19.7072ZM123.41 16.1284C125.053 15.2538 126.951 14.8099 129.119 14.8099V13.8761C126.821 13.8761 124.767 14.3478 122.971 15.3042L123.41 16.1284ZM129.119 14.8099C130.984 14.8099 132.574 15.1459 133.904 15.8003L134.316 14.9625C132.832 14.2324 131.095 13.8761 129.119 13.8761V14.8099ZM133.909 15.8029C135.241 16.4369 136.24 17.3262 136.925 18.4687L137.726 17.9883C136.938 16.6744 135.793 15.6656 134.311 14.9599L133.909 15.8029ZM136.927 18.4719C137.614 19.5958 137.964 20.9051 137.964 22.4154H138.898C138.898 20.7548 138.511 19.2728 137.724 17.985L136.927 18.4719ZM128.784 19.0345C127.869 19.0345 127.07 19.2838 126.416 19.8067L126.999 20.5358C127.462 20.1655 128.047 19.9682 128.784 19.9682V19.0345ZM126.418 19.8052C125.801 20.2932 125.353 20.9639 125.061 21.7911L125.942 22.1019C126.186 21.4107 126.542 20.8978 126.997 20.5373L126.418 19.8052ZM125.502 22.4133H131.497V21.4796H125.502V22.4133ZM131.964 21.9465C131.964 21.077 131.677 20.3462 131.066 19.8179L130.455 20.5246C130.826 20.8448 131.031 21.2975 131.031 21.9465H131.964ZM131.075 19.8258C130.478 19.2832 129.697 19.0345 128.784 19.0345V19.9682C129.524 19.9682 130.061 20.166 130.446 20.5167L131.075 19.8258ZM153.329 23.9227L152.993 23.5994L152.759 23.8432L152.917 24.1418L153.329 23.9227ZM158.153 33V33.4669H158.93L158.565 32.7809L158.153 33ZM150.114 33L149.696 33.2074L149.824 33.4669H150.114V33ZM148.171 29.081L148.589 28.8737L148.287 28.2629L147.827 28.766L148.171 29.081ZM144.587 33V33.4669H144.793L144.932 33.3151L144.587 33ZM136.046 33L135.712 32.6735L134.936 33.4669H136.046V33ZM145.19 23.6548L145.524 23.9813L145.762 23.7375L145.603 23.4362L145.19 23.6548ZM140.434 14.678V14.2111H139.658L140.021 14.8965L140.434 14.678ZM148.372 14.678L148.79 14.4692L148.661 14.2111H148.372V14.678ZM150.315 18.5634L149.897 18.7722L150.198 19.3739L150.657 18.8816L150.315 18.5634ZM153.932 14.678V14.2111H153.729L153.591 14.3598L153.932 14.678ZM162.206 14.678L162.542 15.0013L163.301 14.2111H162.206V14.678ZM152.917 24.1418L157.74 33.2191L158.565 32.7809L153.742 23.7037L152.917 24.1418ZM158.153 32.5331H150.114V33.4669H158.153V32.5331ZM150.532 32.7926L148.589 28.8737L147.753 29.2884L149.696 33.2074L150.532 32.7926ZM147.827 28.766L144.243 32.6849L144.932 33.3151L148.516 29.3961L147.827 28.766ZM144.587 32.5331H136.046V33.4669H144.587V32.5331ZM136.379 33.3265L145.524 23.9813L144.856 23.3282L135.712 32.6735L136.379 33.3265ZM145.603 23.4362L140.846 14.4594L140.021 14.8965L144.777 23.8733L145.603 23.4362ZM140.434 15.1448H148.372V14.2111H140.434V15.1448ZM147.955 14.8867L149.897 18.7722L150.732 18.3547L148.79 14.4692L147.955 14.8867ZM150.657 18.8816L154.274 14.9961L153.591 14.3598L149.973 18.2453L150.657 18.8816ZM153.932 15.1448L162.206 15.1448V14.2111L153.932 14.2111V15.1448ZM161.869 14.3546L152.993 23.5994L153.666 24.2461L162.542 15.0013L161.869 14.3546Z" fill="white" />
  </g>
  <defs>
    <filter id="filter0_d" x="39.6671" y="7.28736" width="128.299" height="29.6917" filterUnits="userSpaceOnUse" color-interpolation-filters="sRGB">
      <feFlood flood-opacity="0" result="BackgroundImageFix" />
      <feColorMatrix in="SourceAlpha" type="matrix" values="0 0 0 0 0 0 0 0 0 0 0 0 0 0 0 0 0 0 127 0" result="hardAlpha" />
      <feOffset dx="-0.466862" dy="0.186745" />
      <feGaussianBlur stdDeviation="0.700293" />
      <feComposite in2="hardAlpha" operator="out" />
      <feColorMatrix type="matrix" values="0 0 0 0 0 0 0 0 0 0 0 0 0 0 0 0 0 0 1 0" />
      <feBlend mode="normal" in2="BackgroundImageFix" result="effect1_dropShadow" />
      <feBlend mode="normal" in="SourceGraphic" in2="effect1_dropShadow" result="shape" />
    </filter>
    <filter id="filter1_d" x="41.6121" y="8.87732" width="122.623" height="26.5118" filterUnits="userSpaceOnUse" color-interpolation-filters="sRGB">
      <feFlood flood-opacity="0" result="BackgroundImageFix" />
      <feColorMatrix in="SourceAlpha" type="matrix" values="0 0 0 0 0 0 0 0 0 0 0 0 0 0 0 0 0 0 127 0" result="hardAlpha" />
      <feOffset dx="-0.466862" dy="0.186745" />
      <feGaussianBlur stdDeviation="0.700293" />
      <feComposite in2="hardAlpha" operator="out" />
      <feColorMatrix type="matrix" values="0 0 0 0 0 0 0 0 0 0 0 0 0 0 0 0 0 0 1 0" />
      <feBlend mode="normal" in2="BackgroundImageFix" result="effect1_dropShadow" />
      <feBlend mode="normal" in="SourceGraphic" in2="effect1_dropShadow" result="shape" />
    </filter>
  </defs>
</svg>
  
